{"glyphs":{"0":{"ha":833,"x_min":40,"x_max":790,"o":"m 493 4 q 393 -2 444 -6 q 294 18 342 1 q 219 58 254 33 q 157 114 183 82 q 103 205 125 156 q 68 307 82 254 q 44 457 49 381 q 49 608 40 533 q 81 754 58 683 q 143 888 103 825 q 183 938 161 915 q 232 979 204 961 q 294 1011 261 999 q 363 1031 328 1024 q 499 1027 431 1042 q 626 975 568 1013 q 691 919 663 951 q 739 847 719 886 q 777 719 767 786 q 789 585 788 651 q 777 410 790 497 q 736 239 764 322 q 698 153 721 194 q 642 79 675 111 q 572 33 611 51 q 493 4 533 14 m 560 849 q 596 825 572 826 q 633 844 619 824 q 639 876 643 861 q 616 915 632 897 q 582 944 600 932 q 556 965 569 956 q 528 982 543 975 q 513 987 524 983 q 492 993 503 990 q 470 999 481 996 q 454 1001 460 1001 q 428 992 438 1001 q 415 971 418 983 q 416 945 411 958 q 435 924 421 932 q 456 918 444 918 q 511 894 485 911 q 538 874 525 883 q 560 849 551 864 m 646 808 q 618 789 625 804 q 615 758 611 774 q 631 733 618 743 q 665 726 644 722 q 693 746 686 731 q 697 776 700 761 q 680 802 693 792 q 646 808 667 813 m 408 376 q 431 378 419 374 q 449 392 442 383 q 477 438 468 411 q 490 490 486 464 q 493 578 497 533 q 469 660 489 622 q 440 697 457 683 q 399 699 421 713 q 369 660 381 686 q 351 605 357 635 q 343 544 344 575 q 344 493 342 514 q 351 459 346 478 q 363 423 356 440 q 382 393 371 406 q 408 376 393 381 z "},"1":{"ha":663,"x_min":-12,"x_max":611,"o":"m 443 -6 q 389 -6 415 -7 q 336 -1 363 -6 q 291 10 313 1 q 256 38 269 19 q 242 65 246 50 q 235 96 238 81 q 231 152 231 124 q 231 208 231 181 q 242 433 233 321 q 261 657 250 544 q 263 678 261 663 q 268 711 265 693 q 273 744 271 729 q 275 765 275 760 q 247 760 268 764 q 201 753 225 757 q 156 747 178 750 q 128 742 135 743 q 92 738 110 739 q 57 743 75 738 q 35 754 46 746 q 15 774 24 763 q -3 815 3 793 q -11 858 -8 836 q -8 902 -12 881 q 7 942 -4 924 q 60 983 26 969 q 156 1006 106 1003 q 257 1013 207 1010 q 376 1015 317 1015 q 494 1006 435 1015 q 531 996 513 1003 q 560 974 549 989 q 579 932 575 956 q 586 885 583 908 q 589 833 589 858 q 588 781 589 807 q 585 569 585 674 q 594 357 586 464 q 605 254 599 306 q 608 150 611 203 q 602 93 607 122 q 581 40 597 64 q 560 21 572 29 q 533 7 547 13 q 489 -2 511 0 q 443 -6 467 -4 m 192 932 q 199 910 192 919 q 215 895 206 900 q 237 891 225 890 q 258 900 249 892 q 276 938 278 915 q 253 972 274 961 q 231 975 242 976 q 210 968 219 974 q 196 953 201 963 q 192 932 190 943 m 33 797 q 58 783 44 785 q 83 785 72 781 q 101 802 94 790 q 107 831 108 814 q 106 836 107 833 q 104 842 104 839 q 104 860 103 849 q 110 875 106 871 q 124 879 113 878 q 138 882 135 881 q 168 903 160 888 q 172 935 176 919 q 153 959 168 950 q 115 963 138 968 q 82 953 99 958 q 53 936 65 947 q 36 914 43 928 q 25 884 29 900 q 19 852 21 868 q 22 824 18 836 q 27 810 25 817 q 33 797 29 803 z "},"2":{"ha":806,"x_min":39,"x_max":764,"o":"m 529 -1 q 335 -7 432 0 q 142 -1 238 -14 q 100 14 119 1 q 76 44 85 25 q 65 82 68 63 q 63 134 61 108 q 72 185 65 160 q 88 232 79 208 q 111 275 97 256 q 184 343 140 315 q 268 400 228 371 q 359 478 317 435 q 432 572 401 521 q 456 649 451 606 q 442 726 460 692 q 398 761 428 754 q 344 744 368 768 q 326 713 331 732 q 322 674 321 693 q 326 634 322 654 q 328 593 329 614 q 325 567 328 581 q 314 542 322 553 q 288 517 303 526 q 256 501 272 508 q 181 482 218 486 q 149 481 165 481 q 117 489 132 482 q 74 527 90 500 q 51 582 58 554 q 46 692 39 635 q 76 799 53 750 q 130 878 96 842 q 204 940 164 914 q 339 993 265 978 q 483 1000 413 1008 q 562 983 524 996 q 632 949 600 971 q 694 889 668 925 q 735 813 719 853 q 761 679 758 750 q 743 544 764 608 q 661 394 715 463 q 549 263 607 326 q 592 269 571 265 q 638 271 614 272 q 667 268 653 271 q 694 257 682 265 q 722 225 711 247 q 738 176 732 203 q 746 123 744 150 q 746 76 747 96 q 733 26 746 49 q 707 4 725 11 q 674 -3 692 -1 q 639 -4 657 -4 q 584 -3 611 -6 q 529 -1 557 -1 m 310 869 q 346 873 329 863 q 365 904 363 883 q 349 941 368 928 q 307 946 331 954 q 288 931 294 942 q 282 908 282 921 q 289 885 282 896 q 310 869 296 874 m 100 697 q 109 670 100 681 q 131 657 118 660 q 157 659 143 654 q 179 678 171 664 q 185 700 186 688 q 189 724 183 713 q 206 767 197 744 q 231 804 215 789 q 238 812 232 807 q 246 818 243 817 q 258 827 251 824 q 269 838 264 831 q 276 877 283 857 q 247 904 268 897 q 224 903 236 908 q 199 888 211 897 q 176 866 186 878 q 157 846 165 854 q 144 826 153 842 q 132 806 135 811 q 127 794 131 803 q 119 774 124 785 q 112 755 115 764 q 107 742 108 746 q 102 719 104 736 q 100 697 100 703 z "},"3":{"ha":817,"x_min":38,"x_max":769,"o":"m 563 7 q 366 -15 467 -18 q 169 13 265 -12 q 115 33 142 19 q 68 69 88 47 q 44 117 51 90 q 39 172 38 144 q 43 207 40 185 q 51 252 46 229 q 64 295 57 275 q 81 325 71 315 q 121 349 97 340 q 168 356 144 357 q 245 343 207 354 q 322 329 283 332 q 352 331 338 328 q 376 346 367 335 q 385 375 388 357 q 372 404 383 393 q 354 416 365 413 q 332 421 343 419 q 274 422 304 425 q 215 432 243 419 q 188 460 199 440 q 177 493 181 475 q 174 529 174 511 q 187 580 174 551 q 221 617 200 608 q 253 622 236 622 q 286 618 269 621 q 319 615 303 615 q 351 619 336 614 q 376 633 364 624 q 394 654 388 643 q 400 678 400 665 q 392 703 400 692 q 369 718 383 714 q 339 722 356 722 q 306 717 322 721 q 275 707 289 713 q 235 689 256 699 q 192 678 214 679 q 146 691 168 678 q 110 724 124 704 q 88 758 99 738 q 71 803 78 779 q 63 849 64 826 q 68 886 61 871 q 81 907 74 897 q 99 925 89 917 q 163 969 128 951 q 235 997 199 986 q 400 1023 314 1022 q 564 996 486 1024 q 628 965 597 983 q 685 919 660 946 q 733 849 717 888 q 758 781 749 815 q 769 710 767 746 q 756 625 769 665 q 703 544 738 581 q 629 478 669 507 q 708 406 674 450 q 757 313 742 363 q 767 247 767 281 q 758 181 768 213 q 730 125 749 151 q 688 79 711 99 q 629 36 660 56 q 563 7 599 17 m 533 875 q 563 863 547 863 q 590 872 579 863 q 604 897 601 882 q 597 929 607 913 q 579 947 592 938 q 551 963 567 956 q 522 975 536 969 q 497 982 507 981 q 477 988 486 985 q 457 994 468 992 q 434 997 449 996 q 403 997 419 997 q 374 994 388 996 q 353 988 360 992 q 331 965 336 979 q 329 938 325 951 q 346 915 333 925 q 376 908 358 906 q 382 910 379 908 q 388 911 385 911 q 413 914 394 914 q 439 913 432 914 q 454 908 447 911 q 469 903 461 906 q 478 901 471 903 q 489 899 486 900 q 512 888 494 896 q 533 875 529 879 m 624 796 q 652 795 639 790 q 673 810 665 800 q 681 835 681 821 q 671 861 681 849 q 644 876 663 874 q 613 868 625 878 q 598 844 601 858 q 601 816 594 831 q 624 796 607 801 z "},"4":{"ha":851,"x_min":35,"x_max":804,"o":"m 747 40 q 713 8 736 19 q 660 -10 689 -4 q 601 -17 632 -17 q 549 -14 571 -17 q 517 -8 533 -11 q 488 1 501 -6 q 467 13 476 6 q 454 32 458 21 q 447 58 449 44 q 443 85 446 71 q 439 173 439 129 q 442 261 439 217 q 429 262 439 263 q 417 261 419 261 q 321 258 368 258 q 225 263 274 258 q 172 267 199 264 q 121 276 146 269 q 91 287 106 281 q 65 304 76 293 q 40 355 46 325 q 35 413 35 385 q 45 515 35 465 q 67 617 56 565 q 95 744 81 681 q 129 869 110 807 q 136 892 131 876 q 148 926 142 908 q 160 958 154 943 q 171 979 167 974 q 214 1006 186 1000 q 267 1015 242 1013 q 322 1019 294 1018 q 376 1013 350 1021 q 408 994 393 1006 q 428 965 424 982 q 427 878 436 936 q 403 758 418 821 q 370 639 388 696 q 343 553 353 582 q 339 535 340 544 q 340 518 338 526 q 359 493 344 503 q 389 481 374 483 q 449 491 418 476 q 490 533 481 506 q 500 576 497 554 q 504 621 503 599 q 509 715 508 668 q 510 810 510 763 q 512 882 511 846 q 528 950 513 918 q 593 1001 547 990 q 697 1010 643 1013 q 756 1001 726 1010 q 772 993 764 999 q 786 979 781 988 q 802 916 800 958 q 801 826 804 874 q 791 735 797 779 q 783 665 785 690 q 779 627 782 654 q 774 565 776 600 q 767 492 771 531 q 761 418 764 453 q 757 356 758 383 q 756 318 756 329 q 758 260 756 299 q 760 177 760 221 q 759 95 761 133 q 747 40 757 57 m 276 943 q 303 913 282 921 q 343 919 324 906 q 358 956 360 933 q 339 989 357 978 q 314 995 326 996 q 292 987 301 994 q 278 968 283 979 q 276 943 274 957 m 122 726 q 138 703 126 711 q 161 694 149 694 q 185 702 174 694 q 203 725 197 710 q 208 748 204 729 q 213 772 211 767 q 217 787 214 776 q 224 810 219 797 q 231 833 228 822 q 236 849 235 844 q 250 874 240 863 q 260 901 260 886 q 241 936 260 925 q 201 940 222 947 q 188 931 194 938 q 176 915 182 924 q 166 897 171 906 q 160 882 161 888 q 155 867 158 878 q 149 844 151 857 q 142 822 146 832 q 138 807 139 811 q 133 790 136 801 q 126 767 129 779 q 122 743 124 754 q 122 726 121 732 z "},"5":{"ha":790,"x_min":50,"x_max":747,"o":"m 560 19 q 465 -6 515 0 q 365 -8 414 -11 q 186 28 275 -3 q 136 49 161 38 q 92 78 111 60 q 74 103 81 89 q 64 132 67 117 q 67 196 60 164 q 90 256 75 228 q 119 294 101 276 q 158 319 136 313 q 191 324 174 325 q 224 318 208 322 q 287 294 256 308 q 350 269 318 279 q 399 261 374 263 q 447 271 425 260 q 483 317 478 285 q 465 376 488 350 q 432 400 453 392 q 390 411 411 408 q 297 410 343 417 q 203 403 250 404 q 160 407 182 403 q 121 422 139 411 q 94 449 106 433 q 76 481 83 464 q 62 538 67 508 q 54 596 57 567 q 51 681 51 639 q 53 767 50 724 q 58 862 54 814 q 82 951 63 910 q 99 979 89 967 q 125 999 110 992 q 169 1010 143 1010 q 229 1010 200 1013 q 289 1007 258 1008 q 370 1006 329 1006 q 451 1004 411 1006 q 538 1008 494 1003 q 625 1011 581 1013 q 651 1006 638 1010 q 675 994 664 1003 q 701 960 693 981 q 713 915 710 942 q 717 860 717 888 q 711 806 717 832 q 694 764 706 779 q 650 733 679 740 q 593 725 621 726 q 485 734 539 724 q 379 743 432 744 q 357 741 372 743 q 336 735 342 739 q 333 724 333 732 q 332 713 332 717 q 336 626 332 669 q 399 637 368 633 q 461 638 429 640 q 574 614 518 635 q 667 546 626 592 q 726 446 708 500 q 747 324 746 388 q 728 203 747 261 q 664 94 710 143 q 560 19 618 44 m 313 904 q 349 885 325 883 q 388 907 374 886 q 388 945 399 925 q 357 968 378 965 q 313 949 329 971 q 313 904 297 928 m 119 739 q 163 748 144 731 q 175 790 181 765 q 174 808 172 797 q 178 831 175 819 q 187 852 182 842 q 197 868 192 863 q 216 876 201 874 q 238 881 231 879 q 265 902 257 885 q 267 939 274 919 q 227 963 257 965 q 171 950 197 961 q 140 928 154 942 q 117 899 125 915 q 99 852 106 876 q 92 804 92 828 q 92 783 92 793 q 96 761 93 772 q 119 739 103 746 z "},"6":{"ha":803,"x_min":38,"x_max":775,"o":"m 529 -12 q 381 -22 458 -32 q 236 22 303 -12 q 100 147 150 65 q 53 267 68 203 q 39 396 39 331 q 72 615 38 506 q 168 817 107 725 q 258 925 207 875 q 368 1011 308 975 q 401 1028 383 1021 q 439 1033 419 1035 q 472 1025 456 1032 q 503 1007 489 1018 q 546 971 526 992 q 581 926 565 950 q 600 894 592 911 q 611 857 608 876 q 603 808 614 829 q 585 786 596 796 q 564 769 575 776 q 471 706 518 738 q 389 629 424 674 q 466 639 426 636 q 543 633 506 642 q 625 601 586 625 q 708 528 672 572 q 760 432 743 485 q 774 345 774 390 q 765 256 775 300 q 727 147 754 200 q 657 56 700 93 q 598 14 631 31 q 529 -12 565 -3 m 375 936 q 365 912 365 925 q 372 888 365 899 q 391 872 379 878 q 417 869 403 867 q 439 882 431 872 q 449 903 447 892 q 446 927 451 915 q 428 947 440 939 q 400 951 415 956 q 375 936 385 947 m 140 632 q 152 608 142 617 q 175 598 163 600 q 199 601 188 596 q 218 621 211 607 q 222 635 221 628 q 225 649 222 642 q 236 673 228 654 q 247 697 244 692 q 252 703 249 699 q 260 715 256 708 q 267 726 264 721 q 272 732 271 731 q 282 747 275 738 q 297 766 289 756 q 314 785 306 776 q 326 797 322 793 q 343 820 340 807 q 340 846 346 833 q 323 866 335 858 q 294 872 311 874 q 278 863 288 871 q 258 846 268 856 q 239 826 247 836 q 225 811 231 817 q 210 791 219 806 q 190 760 200 776 q 170 727 179 743 q 158 704 161 711 q 144 668 151 686 q 140 632 138 650 m 365 243 q 389 214 375 226 q 418 194 403 201 q 450 186 433 186 q 483 197 467 186 q 506 225 499 207 q 517 263 514 243 q 514 310 518 283 q 500 360 510 336 q 475 403 490 383 q 440 431 460 422 q 385 429 413 442 q 347 389 358 417 q 340 315 333 354 q 365 243 347 275 z "},"7":{"ha":728,"x_min":15,"x_max":710,"o":"m 371 7 q 316 11 343 6 q 263 25 289 17 q 222 42 242 32 q 188 68 203 53 q 149 149 156 103 q 149 210 143 179 q 163 268 154 240 q 201 371 178 321 q 250 469 224 421 q 334 610 290 542 q 418 750 378 679 q 293 719 356 733 q 167 703 231 706 q 129 702 147 701 q 94 710 111 703 q 44 743 65 718 q 27 778 33 758 q 18 818 21 799 q 26 888 15 853 q 58 953 38 924 q 96 989 74 974 q 142 1011 118 1004 q 179 1017 161 1015 q 217 1021 197 1019 q 322 1026 269 1025 q 428 1026 375 1026 q 512 1024 469 1025 q 594 1015 554 1022 q 634 1006 614 1013 q 671 989 654 1000 q 704 940 697 971 q 702 876 710 918 q 682 786 694 833 q 655 697 669 739 q 633 633 640 654 q 578 428 600 532 q 533 219 557 324 q 513 138 524 179 q 478 60 501 96 q 436 22 461 36 q 404 12 421 15 q 371 7 388 8 m 289 986 q 291 945 278 965 q 328 925 304 925 q 365 949 354 925 q 360 994 376 974 q 322 1010 344 1013 q 289 986 300 1007 m 61 808 q 90 785 69 790 q 125 793 110 781 q 137 810 133 800 q 142 833 140 821 q 147 856 144 844 q 156 875 149 867 q 176 898 164 888 q 203 911 188 908 q 210 913 204 913 q 217 913 215 913 q 239 926 231 917 q 249 949 247 936 q 244 973 250 961 q 226 992 239 985 q 203 995 217 996 q 177 990 190 994 q 151 979 164 986 q 131 967 139 972 q 108 948 124 963 q 89 926 93 933 q 75 901 82 917 q 63 868 68 885 q 57 835 58 851 q 61 808 56 818 z "},"8":{"ha":865,"x_min":39,"x_max":825,"o":"m 525 -14 q 407 -19 467 -21 q 289 -7 347 -18 q 199 20 243 3 q 118 69 154 38 q 80 116 96 89 q 54 172 64 143 q 40 256 42 213 q 49 342 39 300 q 98 456 61 401 q 188 542 135 511 q 133 606 157 571 q 99 681 110 640 q 92 743 90 711 q 103 806 93 775 q 179 919 126 874 q 257 967 214 949 q 344 993 300 985 q 498 997 419 1006 q 647 960 576 988 q 746 889 706 936 q 796 790 783 844 q 803 715 806 754 q 789 639 800 675 q 747 563 774 599 q 685 500 719 526 q 744 452 717 479 q 790 392 772 425 q 819 297 814 347 q 813 199 825 247 q 768 107 800 150 q 693 36 736 64 q 613 2 656 13 q 525 -14 569 -8 m 367 957 q 346 937 351 950 q 344 910 340 924 q 358 888 347 897 q 385 878 368 878 q 419 897 408 878 q 426 925 428 911 q 416 948 425 939 q 394 960 407 957 q 367 957 381 964 m 138 763 q 153 738 142 746 q 178 730 165 729 q 203 740 192 731 q 218 765 215 749 q 226 787 219 771 q 235 807 232 803 q 251 826 238 813 q 271 844 265 840 q 279 849 272 846 q 294 854 286 851 q 308 860 301 857 q 317 864 314 863 q 332 890 331 875 q 326 918 333 906 q 305 936 319 931 q 274 936 290 942 q 263 932 269 935 q 247 926 256 929 q 232 918 239 922 q 222 913 225 914 q 188 881 204 897 q 160 846 172 865 q 151 828 156 839 q 143 804 147 817 q 137 781 139 792 q 138 763 135 769 m 390 628 q 420 617 403 619 q 456 616 438 614 q 492 624 475 618 q 522 638 510 629 q 542 655 533 644 q 553 676 550 665 q 550 700 556 688 q 536 722 544 713 q 489 748 517 740 q 435 750 461 756 q 394 730 411 744 q 370 697 378 715 q 367 659 363 678 q 390 628 371 640 m 400 246 q 449 244 424 242 q 494 258 474 247 q 546 321 532 278 q 540 376 556 354 q 498 407 525 399 q 438 409 471 415 q 379 379 404 403 q 349 338 358 358 q 351 280 335 307 q 400 246 368 253 z "},"9":{"ha":803,"x_min":29,"x_max":765,"o":"m 435 -3 q 401 -19 419 -12 q 365 -25 383 -26 q 331 -17 347 -24 q 300 1 315 -10 q 257 38 276 17 q 222 82 238 58 q 203 115 211 97 q 192 151 194 132 q 201 200 189 179 q 219 222 208 213 q 240 239 229 232 q 333 303 286 271 q 414 379 379 335 q 338 369 376 372 q 260 375 299 367 q 178 407 217 383 q 96 479 131 435 q 43 575 61 524 q 29 663 29 618 q 38 753 29 708 q 76 861 49 808 q 146 953 104 914 q 206 994 174 978 q 274 1021 239 1011 q 424 1031 346 1040 q 568 986 501 1021 q 644 933 608 965 q 703 861 679 901 q 749 742 735 806 q 764 613 764 678 q 731 393 765 503 q 635 192 696 283 q 547 83 597 133 q 435 -3 496 33 m 533 860 q 558 850 544 850 q 581 856 571 850 q 597 874 592 863 q 600 901 603 886 q 587 923 597 911 q 563 945 576 935 q 535 964 549 956 q 511 976 521 972 q 485 986 506 979 q 460 996 465 993 q 417 1003 446 1001 q 374 1000 388 1006 q 352 978 357 992 q 351 952 347 965 q 367 930 356 939 q 397 921 379 921 q 444 913 421 921 q 474 901 460 907 q 501 888 489 896 q 508 882 503 886 q 517 873 513 878 q 527 865 522 868 q 533 860 532 861 m 596 835 q 586 809 586 822 q 593 785 586 796 q 612 769 600 775 q 638 768 624 764 q 658 779 650 771 q 669 799 667 788 q 669 822 672 810 q 656 842 665 833 q 624 851 642 853 q 596 835 607 849 m 363 578 q 417 579 390 567 q 456 619 444 592 q 463 697 471 656 q 433 771 454 739 q 409 799 424 788 q 378 817 394 811 q 345 822 363 824 q 314 807 328 819 q 292 774 299 794 q 286 730 286 753 q 291 684 286 707 q 304 643 296 661 q 328 605 314 624 q 363 578 343 586 z "},"\u0000":{"ha":0,"x_min":0,"x_max":0,"o":""},"\r":{"ha":417,"x_min":0,"x_max":0,"o":""}," ":{"ha":417,"x_min":0,"x_max":0,"o":""},"!":{"ha":447,"x_min":44,"x_max":396,"o":"m 290 344 q 278 343 288 344 q 257 341 268 342 q 236 340 246 340 q 224 339 226 339 q 182 341 203 339 q 142 351 161 343 q 122 366 131 357 q 108 385 114 375 q 93 426 97 404 q 85 471 89 449 q 55 681 65 575 q 50 893 44 788 q 54 932 51 913 q 67 968 57 951 q 92 999 76 989 q 133 1016 111 1011 q 179 1024 156 1021 q 234 1026 203 1026 q 294 1019 265 1025 q 348 1000 324 1013 q 382 965 372 988 q 394 922 393 944 q 396 875 396 899 q 394 833 396 863 q 392 767 393 804 q 388 688 390 729 q 383 608 385 646 q 378 542 381 571 q 375 500 376 513 q 369 453 372 476 q 358 407 365 431 q 336 365 351 381 q 315 351 328 356 q 290 344 303 347 m 238 972 q 227 950 228 963 q 231 927 226 938 q 247 909 236 917 q 269 903 257 901 q 290 908 281 903 q 306 921 300 913 q 312 953 315 938 q 297 978 308 969 q 268 986 285 986 q 238 972 251 986 m 79 819 q 100 799 86 804 q 127 797 114 794 q 150 811 140 800 q 160 839 160 822 q 158 858 160 849 q 160 876 157 867 q 171 883 163 881 q 183 889 179 886 q 206 911 200 894 q 206 944 211 928 q 183 967 199 961 q 150 967 167 972 q 113 945 131 960 q 85 911 94 931 q 75 865 78 896 q 79 819 72 835 m 286 -15 q 224 -22 257 -25 q 163 -8 192 -19 q 115 26 132 6 q 92 73 99 47 q 87 124 85 99 q 99 174 89 150 q 128 217 110 199 q 155 236 139 228 q 186 249 171 244 q 233 253 210 254 q 281 247 257 253 q 313 235 297 243 q 342 217 329 228 q 364 180 356 201 q 374 133 372 158 q 370 84 375 108 q 356 42 365 60 q 326 7 344 22 q 286 -15 308 -8 z "},"\"":{"ha":604,"x_min":33,"x_max":571,"o":"m 197 629 q 114 628 157 617 q 83 643 96 632 q 64 674 72 653 q 50 721 56 696 q 42 770 44 746 q 38 808 39 794 q 34 867 35 838 q 39 926 33 897 q 44 945 42 936 q 51 964 46 954 q 88 992 65 986 q 131 999 108 999 q 175 997 153 999 q 215 995 194 997 q 250 979 236 993 q 268 944 265 965 q 272 903 271 922 q 273 849 274 883 q 269 778 272 815 q 258 708 265 742 q 242 660 251 675 q 222 641 235 649 q 197 629 210 633 m 494 625 q 411 624 454 613 q 379 639 394 628 q 360 670 368 649 q 347 717 353 692 q 339 766 342 742 q 335 804 336 790 q 331 863 332 833 q 336 922 331 893 q 347 960 338 939 q 383 988 363 982 q 426 994 404 994 q 471 993 449 994 q 511 991 490 993 q 547 975 532 989 q 565 940 561 961 q 569 899 568 918 q 569 845 571 879 q 565 774 568 811 q 554 704 561 738 q 538 656 547 671 q 494 625 522 635 m 67 910 q 83 875 65 889 q 121 872 101 861 q 138 889 132 878 q 143 911 143 900 q 138 933 143 922 q 122 949 133 943 q 85 945 103 958 q 67 910 68 932 m 364 906 q 380 871 363 885 q 417 868 397 857 q 434 885 428 874 q 440 907 440 896 q 435 928 440 918 q 419 944 431 939 q 383 941 400 954 q 364 906 365 928 z "},"«":{"ha":604,"x_min":33,"x_max":571,"o":"m 197 629 q 114 628 157 617 q 83 643 96 632 q 64 674 72 653 q 50 721 56 696 q 42 770 44 746 q 38 808 39 794 q 34 867 35 838 q 39 926 33 897 q 44 945 42 936 q 51 964 46 954 q 88 992 65 986 q 131 999 108 999 q 175 997 153 999 q 215 995 194 997 q 250 979 236 993 q 268 944 265 965 q 272 903 271 922 q 273 849 274 883 q 269 778 272 815 q 258 708 265 742 q 242 660 251 675 q 222 641 235 649 q 197 629 210 633 m 494 625 q 411 624 454 613 q 379 639 394 628 q 360 670 368 649 q 347 717 353 692 q 339 766 342 742 q 335 804 336 790 q 331 863 332 833 q 336 922 331 893 q 347 960 338 939 q 383 988 363 982 q 426 994 404 994 q 471 993 449 994 q 511 991 490 993 q 547 975 532 989 q 565 940 561 961 q 569 899 568 918 q 569 845 571 879 q 565 774 568 811 q 554 704 561 738 q 538 656 547 671 q 494 625 522 635 m 67 910 q 83 875 65 889 q 121 872 101 861 q 138 889 132 878 q 143 911 143 900 q 138 933 143 922 q 122 949 133 943 q 85 945 103 958 q 67 910 68 932 m 364 906 q 380 871 363 885 q 417 868 397 857 q 434 885 428 874 q 440 907 440 896 q 435 928 440 918 q 419 944 431 939 q 383 941 400 954 q 364 906 365 928 z "},"»":{"ha":604,"x_min":33,"x_max":571,"o":"m 197 629 q 114 628 157 617 q 83 643 96 632 q 64 674 72 653 q 50 721 56 696 q 42 770 44 746 q 38 808 39 794 q 34 867 35 838 q 39 926 33 897 q 44 945 42 936 q 51 964 46 954 q 88 992 65 986 q 131 999 108 999 q 175 997 153 999 q 215 995 194 997 q 250 979 236 993 q 268 944 265 965 q 272 903 271 922 q 273 849 274 883 q 269 778 272 815 q 258 708 265 742 q 242 660 251 675 q 222 641 235 649 q 197 629 210 633 m 494 625 q 411 624 454 613 q 379 639 394 628 q 360 670 368 649 q 347 717 353 692 q 339 766 342 742 q 335 804 336 790 q 331 863 332 833 q 336 922 331 893 q 347 960 338 939 q 383 988 363 982 q 426 994 404 994 q 471 993 449 994 q 511 991 490 993 q 547 975 532 989 q 565 940 561 961 q 569 899 568 918 q 569 845 571 879 q 565 774 568 811 q 554 704 561 738 q 538 656 547 671 q 494 625 522 635 m 67 910 q 83 875 65 889 q 121 872 101 861 q 138 889 132 878 q 143 911 143 900 q 138 933 143 922 q 122 949 133 943 q 85 945 103 958 q 67 910 68 932 m 364 906 q 380 871 363 885 q 417 868 397 857 q 434 885 428 874 q 440 907 440 896 q 435 928 440 918 q 419 944 431 939 q 383 941 400 954 q 364 906 365 928 z "},"„":{"ha":604,"x_min":33,"x_max":571,"o":"m 197 629 q 114 628 157 617 q 83 643 96 632 q 64 674 72 653 q 50 721 56 696 q 42 770 44 746 q 38 808 39 794 q 34 867 35 838 q 39 926 33 897 q 44 945 42 936 q 51 964 46 954 q 88 992 65 986 q 131 999 108 999 q 175 997 153 999 q 215 995 194 997 q 250 979 236 993 q 268 944 265 965 q 272 903 271 922 q 273 849 274 883 q 269 778 272 815 q 258 708 265 742 q 242 660 251 675 q 222 641 235 649 q 197 629 210 633 m 494 625 q 411 624 454 613 q 379 639 394 628 q 360 670 368 649 q 347 717 353 692 q 339 766 342 742 q 335 804 336 790 q 331 863 332 833 q 336 922 331 893 q 347 960 338 939 q 383 988 363 982 q 426 994 404 994 q 471 993 449 994 q 511 991 490 993 q 547 975 532 989 q 565 940 561 961 q 569 899 568 918 q 569 845 571 879 q 565 774 568 811 q 554 704 561 738 q 538 656 547 671 q 494 625 522 635 m 67 910 q 83 875 65 889 q 121 872 101 861 q 138 889 132 878 q 143 911 143 900 q 138 933 143 922 q 122 949 133 943 q 85 945 103 958 q 67 910 68 932 m 364 906 q 380 871 363 885 q 417 868 397 857 q 434 885 428 874 q 440 907 440 896 q 435 928 440 918 q 419 944 431 939 q 383 941 400 954 q 364 906 365 928 z "},"‟":{"ha":604,"x_min":33,"x_max":571,"o":"m 197 629 q 114 628 157 617 q 83 643 96 632 q 64 674 72 653 q 50 721 56 696 q 42 770 44 746 q 38 808 39 794 q 34 867 35 838 q 39 926 33 897 q 44 945 42 936 q 51 964 46 954 q 88 992 65 986 q 131 999 108 999 q 175 997 153 999 q 215 995 194 997 q 250 979 236 993 q 268 944 265 965 q 272 903 271 922 q 273 849 274 883 q 269 778 272 815 q 258 708 265 742 q 242 660 251 675 q 222 641 235 649 q 197 629 210 633 m 494 625 q 411 624 454 613 q 379 639 394 628 q 360 670 368 649 q 347 717 353 692 q 339 766 342 742 q 335 804 336 790 q 331 863 332 833 q 336 922 331 893 q 347 960 338 939 q 383 988 363 982 q 426 994 404 994 q 471 993 449 994 q 511 991 490 993 q 547 975 532 989 q 565 940 561 961 q 569 899 568 918 q 569 845 571 879 q 565 774 568 811 q 554 704 561 738 q 538 656 547 671 q 494 625 522 635 m 67 910 q 83 875 65 889 q 121 872 101 861 q 138 889 132 878 q 143 911 143 900 q 138 933 143 922 q 122 949 133 943 q 85 945 103 958 q 67 910 68 932 m 364 906 q 380 871 363 885 q 417 868 397 857 q 434 885 428 874 q 440 907 440 896 q 435 928 440 918 q 419 944 431 939 q 383 941 400 954 q 364 906 365 928 z "},"#":{"ha":969,"x_min":35,"x_max":942,"o":"m 694 67 q 649 51 675 51 q 599 53 622 50 q 552 63 575 56 q 510 85 529 69 q 490 112 497 96 q 482 143 483 128 q 483 203 479 174 q 492 264 488 233 l 357 264 q 349 217 354 247 q 337 158 344 188 q 318 102 329 128 q 293 67 307 76 q 249 51 274 53 q 201 53 225 50 q 149 63 175 56 q 103 90 122 71 q 87 127 90 103 q 83 180 83 151 q 86 235 83 208 q 92 279 89 263 q 67 288 79 282 q 46 306 54 294 q 36 353 35 322 q 49 401 38 383 q 81 428 60 419 q 122 440 101 438 q 130 477 126 460 q 138 514 133 494 q 112 517 125 515 q 88 525 99 518 q 63 550 72 532 q 56 579 57 563 q 56 613 54 596 q 65 644 58 629 q 82 668 71 658 q 122 685 99 683 q 168 688 146 686 q 179 736 172 704 q 197 803 186 768 q 218 867 207 838 q 242 908 229 896 q 273 926 254 921 q 310 932 292 931 q 360 928 333 932 q 411 913 388 924 q 451 886 435 903 q 472 846 468 869 q 469 774 479 810 q 450 703 460 739 q 446 693 449 697 q 446 683 443 689 q 507 682 476 682 q 568 681 538 682 q 579 731 572 697 q 597 799 586 764 q 619 865 607 835 q 643 908 631 896 q 680 927 657 922 q 728 931 703 932 q 779 924 754 931 q 822 908 804 917 q 851 887 838 900 q 871 857 864 874 q 876 824 876 842 q 874 790 876 807 q 862 742 869 767 q 847 694 854 718 q 847 688 847 693 q 846 681 846 682 q 877 678 861 679 q 906 668 893 676 q 935 626 928 654 q 938 576 942 603 q 917 533 933 550 q 895 522 910 526 q 864 516 881 518 q 831 513 847 514 q 806 511 815 511 q 797 478 801 494 q 790 443 793 461 q 804 444 794 443 q 824 444 814 444 q 844 444 835 444 q 857 440 853 443 q 884 413 874 431 q 898 376 894 396 q 897 338 901 357 q 881 304 893 318 q 836 278 863 285 q 797 271 817 272 q 758 268 778 269 q 751 220 756 250 q 738 160 746 190 q 719 103 731 129 q 694 67 708 76 m 269 842 q 288 821 275 826 q 313 817 300 815 q 337 828 326 819 q 350 853 347 838 q 338 889 353 875 q 300 900 322 903 q 272 879 281 897 q 269 842 263 861 m 215 658 q 258 657 238 644 q 279 694 279 669 q 283 709 279 699 q 290 731 286 719 q 299 753 294 743 q 303 768 303 764 q 296 793 304 782 q 275 808 288 804 q 249 810 263 813 q 228 794 236 807 q 213 763 218 779 q 201 729 207 746 q 197 686 194 708 q 215 658 199 669 m 522 439 q 532 481 528 460 q 540 522 536 501 q 474 522 507 522 q 407 521 440 522 q 397 481 401 501 q 388 439 392 460 l 522 439 z "},"$":{"ha":817,"x_min":44,"x_max":775,"o":"m 485 -121 q 453 -129 469 -128 q 419 -131 436 -131 q 381 -128 400 -131 q 349 -112 361 -126 q 341 -102 343 -108 q 338 -89 339 -96 q 338 -76 338 -85 q 340 -56 339 -67 q 343 -37 342 -46 q 344 -24 344 -28 q 270 -8 307 -18 q 200 19 233 1 q 126 71 160 40 q 69 140 92 101 q 51 188 57 161 q 44 242 44 215 q 53 292 44 268 q 81 331 61 315 q 185 378 125 367 q 222 381 203 381 q 257 375 240 382 q 301 343 282 367 q 325 311 315 328 q 349 279 335 294 q 369 260 357 268 q 394 249 381 251 q 422 247 408 244 q 445 257 435 250 q 461 275 456 264 q 465 300 467 286 q 453 328 463 315 q 431 353 443 342 q 347 403 393 385 q 257 444 301 421 q 194 482 225 461 q 138 529 164 503 q 83 608 104 563 q 56 701 61 653 q 62 792 51 746 q 97 876 72 839 q 213 983 140 942 q 361 1038 285 1024 q 356 1069 358 1047 q 358 1099 354 1090 q 369 1113 361 1107 q 386 1121 378 1118 q 418 1128 400 1126 q 454 1129 436 1131 q 488 1122 472 1128 q 514 1103 504 1115 q 524 1071 524 1089 q 522 1036 525 1053 q 628 994 576 1025 q 711 918 679 964 q 735 872 724 900 q 753 813 746 843 q 762 753 761 782 q 753 706 763 725 q 734 680 746 690 q 708 663 722 669 q 665 647 689 653 q 615 642 640 642 q 568 650 590 643 q 532 674 546 657 q 511 705 519 688 q 492 738 503 722 q 470 758 483 750 q 442 767 457 765 q 414 763 428 768 q 390 746 400 758 q 386 701 374 725 q 419 663 399 678 q 518 603 465 626 q 619 551 571 581 q 669 517 646 536 q 711 475 693 499 q 763 353 751 422 q 765 219 775 285 q 742 143 760 181 q 696 78 724 106 q 604 14 657 38 q 497 -19 551 -10 q 502 -47 500 -32 q 504 -77 504 -62 q 500 -103 504 -92 q 485 -121 496 -115 m 357 936 q 376 917 364 922 q 401 913 389 911 q 424 925 414 915 q 436 950 435 935 q 433 972 438 961 q 419 989 428 982 q 391 995 406 997 q 367 985 376 993 q 353 963 357 976 q 357 936 350 950 m 133 858 q 124 834 125 847 q 126 810 122 821 q 140 791 131 799 q 164 783 150 783 q 201 807 189 783 q 235 851 213 832 q 281 883 257 871 q 294 888 288 886 q 307 892 300 889 q 328 915 324 900 q 328 942 333 929 q 310 964 324 956 q 279 969 297 972 q 260 965 274 969 q 243 957 247 960 q 214 940 228 949 q 188 921 200 932 q 159 891 172 907 q 133 858 146 875 z "},"%":{"ha":1429,"x_min":28,"x_max":1407,"o":"m 632 0 q 590 -5 613 -7 q 547 3 568 -3 q 505 18 525 10 q 467 40 485 26 q 446 61 456 49 q 432 88 436 74 q 428 144 424 115 q 457 273 435 211 q 503 396 479 335 q 424 371 465 379 q 341 364 383 363 q 257 374 299 365 q 178 399 215 382 q 104 450 138 415 q 67 499 82 472 q 43 556 51 526 q 28 650 28 601 q 40 746 28 699 q 77 835 53 793 q 136 910 101 878 q 215 963 171 942 q 306 992 258 985 q 431 987 368 1000 q 546 942 493 974 q 583 915 565 929 q 617 882 601 900 q 671 767 658 829 q 722 864 696 815 q 781 957 749 913 q 806 990 792 975 q 840 1015 821 1004 q 889 1027 861 1026 q 944 1020 917 1028 q 999 999 972 1013 q 1042 968 1025 985 q 1078 892 1075 936 q 1068 824 1081 857 q 1040 760 1056 790 q 999 685 1021 721 q 957 613 978 649 q 1109 635 1028 640 q 1257 593 1190 629 q 1306 560 1283 578 q 1347 518 1329 542 q 1385 450 1371 488 q 1401 375 1399 413 q 1385 233 1407 304 q 1319 107 1364 161 q 1239 43 1286 68 q 1142 11 1192 18 q 1021 9 1082 1 q 906 40 960 17 q 819 104 853 63 q 765 213 781 151 q 763 211 764 215 q 761 204 763 207 q 733 124 747 164 q 694 49 718 85 q 667 19 683 32 q 632 0 651 6 m 301 932 q 308 915 301 921 q 323 906 314 908 q 342 905 332 903 q 361 915 353 907 q 365 940 372 926 q 340 957 357 954 q 315 953 326 960 q 301 932 303 947 m 117 797 q 132 785 122 789 q 151 783 142 782 q 169 791 161 785 q 178 808 176 797 q 184 824 178 814 q 193 838 190 833 q 206 851 200 844 q 218 864 211 858 q 242 878 229 872 q 267 892 254 885 q 279 907 278 897 q 275 924 281 917 q 258 934 269 931 q 235 933 247 938 q 171 899 199 921 q 162 889 168 896 q 149 874 156 882 q 137 860 143 867 q 129 850 131 853 q 116 823 122 839 q 117 797 110 807 m 315 563 q 347 551 331 551 q 378 560 364 551 q 406 583 393 568 q 425 614 418 597 q 437 655 433 632 q 438 701 440 678 q 428 744 436 724 q 404 776 419 764 q 340 789 375 799 q 289 747 306 779 q 275 687 276 719 q 279 624 274 654 q 291 590 282 606 q 315 563 300 574 m 1043 203 q 1073 193 1057 193 q 1103 200 1089 193 q 1128 219 1117 207 q 1147 246 1140 231 q 1167 316 1164 278 q 1156 386 1171 354 q 1131 417 1147 406 q 1095 433 1114 429 q 1058 429 1076 436 q 1026 404 1039 422 q 1004 350 1008 381 q 1003 290 1000 319 q 1015 241 1006 267 q 1043 203 1024 215 z "},"&":{"ha":1031,"x_min":35,"x_max":1006,"o":"m 850 -18 q 796 -24 824 -22 q 744 -10 768 -25 q 715 26 725 3 q 696 72 704 49 q 569 7 639 29 q 426 -18 499 -15 q 286 -6 357 -21 q 158 50 215 10 q 88 128 117 82 q 46 233 57 176 q 44 346 35 290 q 75 435 50 390 q 125 499 94 471 q 189 551 156 528 q 137 606 158 574 q 104 675 115 639 q 93 765 92 718 q 113 851 94 811 q 180 938 135 901 q 281 995 225 974 q 399 1022 338 1017 q 513 1014 460 1026 q 595 978 556 1003 q 660 918 635 954 q 679 884 669 906 q 696 840 689 863 q 705 794 703 817 q 700 757 707 772 q 681 733 693 742 q 644 708 665 721 q 601 689 624 696 q 558 683 579 682 q 519 694 536 683 q 503 713 508 701 q 492 738 497 725 q 481 761 486 750 q 465 781 475 772 q 438 792 454 790 q 407 786 421 793 q 381 747 383 775 q 389 694 379 718 q 401 673 393 683 q 421 657 410 663 q 478 646 447 644 q 536 638 508 647 q 559 617 550 632 q 573 585 568 603 q 578 547 578 567 q 578 513 579 528 q 568 484 576 497 q 547 464 560 471 q 488 455 519 453 q 431 443 457 457 q 408 421 417 435 q 396 390 400 407 q 392 354 392 372 q 397 322 393 336 q 425 285 407 297 q 509 268 463 263 q 588 301 556 274 q 614 338 604 317 q 629 382 624 360 q 633 456 636 418 q 624 531 631 494 q 627 549 621 542 q 644 560 633 556 q 667 568 654 565 q 692 574 681 571 q 810 586 750 585 q 929 572 871 588 q 951 565 940 569 q 972 553 963 560 q 990 529 983 544 q 1001 497 997 514 q 1005 461 1004 479 q 1003 431 1006 443 q 997 409 1000 419 q 986 390 993 399 q 937 361 967 368 q 879 353 907 354 q 894 299 881 339 q 922 215 907 260 q 950 131 938 171 q 964 78 963 92 q 956 41 965 57 q 929 13 946 25 q 892 -6 913 1 q 850 -18 871 -14 m 369 925 q 392 903 376 908 q 425 903 408 897 q 446 926 440 910 q 446 958 451 942 q 423 981 439 975 q 390 981 407 988 q 368 958 374 974 q 369 925 363 942 m 132 719 q 149 694 136 701 q 177 688 163 686 q 203 699 192 689 q 215 729 214 710 q 215 735 215 731 q 214 743 214 740 q 217 756 214 747 q 225 776 221 765 q 233 795 229 786 q 239 808 238 804 q 251 824 243 818 q 265 838 258 831 q 278 850 268 840 q 290 861 288 860 q 300 866 296 864 q 308 871 304 868 q 324 903 324 883 q 310 938 325 922 q 289 946 301 944 q 265 943 276 947 q 244 931 257 940 q 217 908 231 921 q 192 884 203 896 q 175 864 181 872 q 164 843 171 857 q 150 813 157 829 q 138 781 143 796 q 132 757 133 765 q 130 738 131 747 q 132 719 129 729 z "},"'":{"ha":335,"x_min":32,"x_max":300,"o":"m 229 651 q 190 640 213 643 q 147 638 168 636 q 106 647 125 639 q 76 669 88 654 q 63 693 68 681 q 56 718 58 706 q 43 774 47 746 q 36 831 39 803 q 33 876 33 854 q 35 921 32 899 q 40 949 38 936 q 50 975 43 963 q 76 1001 58 993 q 113 1012 94 1010 q 151 1014 132 1014 q 181 1013 163 1014 q 217 1010 199 1013 q 253 1004 236 1008 q 276 992 269 1000 q 295 949 292 974 q 300 900 299 924 q 299 845 300 879 q 294 776 299 811 q 280 711 289 742 q 256 667 271 681 q 229 651 244 656 m 85 958 q 71 936 74 949 q 72 912 68 924 q 86 892 76 900 q 111 883 96 883 q 138 892 128 883 q 152 915 149 901 q 151 942 156 928 q 132 964 146 956 q 108 968 122 971 q 85 958 94 965 z "},"‚":{"ha":335,"x_min":32,"x_max":300,"o":"m 229 651 q 190 640 213 643 q 147 638 168 636 q 106 647 125 639 q 76 669 88 654 q 63 693 68 681 q 56 718 58 706 q 43 774 47 746 q 36 831 39 803 q 33 876 33 854 q 35 921 32 899 q 40 949 38 936 q 50 975 43 963 q 76 1001 58 993 q 113 1012 94 1010 q 151 1014 132 1014 q 181 1013 163 1014 q 217 1010 199 1013 q 253 1004 236 1008 q 276 992 269 1000 q 295 949 292 974 q 300 900 299 924 q 299 845 300 879 q 294 776 299 811 q 280 711 289 742 q 256 667 271 681 q 229 651 244 656 m 85 958 q 71 936 74 949 q 72 912 68 924 q 86 892 76 900 q 111 883 96 883 q 138 892 128 883 q 152 915 149 901 q 151 942 156 928 q 132 964 146 956 q 108 968 122 971 q 85 958 94 965 z "},"‛":{"ha":335,"x_min":32,"x_max":300,"o":"m 229 651 q 190 640 213 643 q 147 638 168 636 q 106 647 125 639 q 76 669 88 654 q 63 693 68 681 q 56 718 58 706 q 43 774 47 746 q 36 831 39 803 q 33 876 33 854 q 35 921 32 899 q 40 949 38 936 q 50 975 43 963 q 76 1001 58 993 q 113 1012 94 1010 q 151 1014 132 1014 q 181 1013 163 1014 q 217 1010 199 1013 q 253 1004 236 1008 q 276 992 269 1000 q 295 949 292 974 q 300 900 299 924 q 299 845 300 879 q 294 776 299 811 q 280 711 289 742 q 256 667 271 681 q 229 651 244 656 m 85 958 q 71 936 74 949 q 72 912 68 924 q 86 892 76 900 q 111 883 96 883 q 138 892 128 883 q 152 915 149 901 q 151 942 156 928 q 132 964 146 956 q 108 968 122 971 q 85 958 94 965 z "},"‹":{"ha":335,"x_min":32,"x_max":300,"o":"m 229 651 q 190 640 213 643 q 147 638 168 636 q 106 647 125 639 q 76 669 88 654 q 63 693 68 681 q 56 718 58 706 q 43 774 47 746 q 36 831 39 803 q 33 876 33 854 q 35 921 32 899 q 40 949 38 936 q 50 975 43 963 q 76 1001 58 993 q 113 1012 94 1010 q 151 1014 132 1014 q 181 1013 163 1014 q 217 1010 199 1013 q 253 1004 236 1008 q 276 992 269 1000 q 295 949 292 974 q 300 900 299 924 q 299 845 300 879 q 294 776 299 811 q 280 711 289 742 q 256 667 271 681 q 229 651 244 656 m 85 958 q 71 936 74 949 q 72 912 68 924 q 86 892 76 900 q 111 883 96 883 q 138 892 128 883 q 152 915 149 901 q 151 942 156 928 q 132 964 146 956 q 108 968 122 971 q 85 958 94 965 z "},"›":{"ha":335,"x_min":32,"x_max":300,"o":"m 229 651 q 190 640 213 643 q 147 638 168 636 q 106 647 125 639 q 76 669 88 654 q 63 693 68 681 q 56 718 58 706 q 43 774 47 746 q 36 831 39 803 q 33 876 33 854 q 35 921 32 899 q 40 949 38 936 q 50 975 43 963 q 76 1001 58 993 q 113 1012 94 1010 q 151 1014 132 1014 q 181 1013 163 1014 q 217 1010 199 1013 q 253 1004 236 1008 q 276 992 269 1000 q 295 949 292 974 q 300 900 299 924 q 299 845 300 879 q 294 776 299 811 q 280 711 289 742 q 256 667 271 681 q 229 651 244 656 m 85 958 q 71 936 74 949 q 72 912 68 924 q 86 892 76 900 q 111 883 96 883 q 138 892 128 883 q 152 915 149 901 q 151 942 156 928 q 132 964 146 956 q 108 968 122 971 q 85 958 94 965 z "},"(":{"ha":663,"x_min":44,"x_max":628,"o":"m 433 -107 q 239 -61 332 -112 q 166 -8 199 -40 q 111 63 133 24 q 72 171 83 114 q 54 286 60 228 q 48 470 44 378 q 75 651 51 563 q 76 656 76 653 q 124 820 90 739 q 218 963 158 901 q 278 1009 244 990 q 347 1035 311 1028 q 401 1043 375 1040 q 456 1043 428 1046 q 489 1040 472 1042 q 521 1032 506 1038 q 579 990 556 1019 q 614 922 603 960 q 626 843 625 885 q 619 764 628 801 q 604 720 614 742 q 576 683 594 699 q 547 667 564 672 q 492 659 521 657 q 435 657 463 661 q 399 643 415 654 q 371 617 382 632 q 344 566 353 594 q 331 510 336 538 q 324 427 324 469 q 333 344 325 385 q 344 299 338 321 q 363 257 351 278 q 385 228 372 242 q 417 207 399 214 q 474 198 444 197 q 531 193 503 199 q 560 183 546 190 q 583 165 574 176 q 601 138 594 154 q 610 106 607 122 q 610 35 613 71 q 592 -32 607 0 q 546 -81 578 -62 q 491 -100 521 -96 q 433 -107 461 -104 m 389 1007 q 361 988 368 1003 q 358 957 354 972 q 374 931 361 942 q 407 925 386 921 q 435 944 428 929 q 438 975 442 960 q 422 1001 435 990 q 389 1007 410 1011 m 154 801 q 159 761 147 779 q 193 743 171 743 q 219 752 208 743 q 233 775 231 761 q 246 818 239 797 q 267 856 253 839 q 278 869 269 858 q 289 882 286 879 q 310 894 299 889 q 328 907 321 899 q 333 949 343 926 q 300 975 324 972 q 264 965 286 976 q 232 943 242 953 q 206 914 218 929 q 185 881 194 899 q 167 841 174 861 q 154 801 161 821 z "},")":{"ha":663,"x_min":33,"x_max":619,"o":"m 306 -103 q 217 -107 263 -110 q 131 -87 171 -104 q 97 -65 113 -79 q 72 -32 81 -51 q 57 13 63 -14 q 51 67 51 39 q 58 121 51 96 q 76 163 64 146 q 102 183 88 175 q 132 193 117 190 q 180 197 156 197 q 228 203 204 197 q 278 226 257 207 q 303 261 293 242 q 319 301 313 281 q 338 401 335 350 q 333 500 342 451 q 324 547 331 524 q 307 592 318 571 q 267 642 293 624 q 219 658 246 654 q 169 660 194 661 q 119 665 144 658 q 65 708 83 676 q 36 816 39 757 q 51 926 33 875 q 82 988 63 963 q 136 1029 104 1014 q 215 1043 172 1043 q 302 1038 258 1046 q 383 1011 346 1031 q 445 963 418 992 q 494 903 472 935 q 554 785 532 849 q 588 656 576 721 q 588 651 588 653 q 589 646 589 649 q 615 466 610 557 q 610 283 619 375 q 588 157 603 221 q 538 40 574 93 q 437 -55 500 -17 q 306 -103 374 -93 m 243 965 q 257 928 240 943 q 294 918 274 913 q 319 934 311 922 q 328 959 328 946 q 319 985 328 972 q 296 1004 311 999 q 261 998 276 1011 q 243 965 246 985 m 67 817 q 74 792 67 803 q 92 777 82 782 q 115 774 103 772 q 136 786 126 776 q 149 808 149 796 q 151 836 150 815 q 154 864 151 857 q 159 877 157 871 q 164 890 161 883 q 171 903 165 893 q 179 915 176 913 q 186 918 182 918 q 210 951 207 929 q 194 988 213 974 q 153 996 175 1003 q 115 969 131 989 q 102 949 113 964 q 89 926 92 933 q 81 905 86 922 q 74 883 75 888 q 69 850 71 867 q 67 817 67 833 z "},"*":{"ha":449,"x_min":29,"x_max":419,"o":"m 263 631 q 219 620 249 619 q 174 628 190 621 q 154 644 158 633 q 149 677 147 660 q 151 710 150 694 q 126 688 139 699 q 97 672 114 676 q 77 673 88 669 q 58 683 67 676 q 43 701 49 690 q 38 722 38 711 q 48 749 38 735 q 73 775 58 763 q 103 799 88 788 q 129 817 119 810 q 110 828 122 821 q 83 846 97 836 q 56 865 68 856 q 40 879 44 874 q 32 908 29 892 q 43 938 35 924 q 64 960 51 951 q 86 964 74 967 q 111 953 99 961 q 135 933 124 944 q 157 914 147 922 q 156 954 156 928 q 167 992 156 981 q 203 1006 178 1003 q 243 1003 228 1008 q 276 974 268 996 q 284 936 285 956 q 282 897 283 917 q 303 917 290 906 q 331 938 317 928 q 358 955 344 949 q 383 957 372 961 q 409 933 399 953 q 418 899 419 914 q 410 875 417 886 q 394 856 404 864 q 367 831 382 842 q 336 810 351 821 q 356 797 344 806 q 377 778 367 788 q 395 757 388 768 q 404 738 403 746 q 401 721 404 726 q 384 692 397 707 q 356 676 371 678 q 337 681 347 675 q 316 697 326 688 q 297 717 306 707 q 282 733 288 726 q 283 695 283 714 q 278 657 282 676 q 263 631 275 642 z "},"+":{"ha":799,"x_min":26,"x_max":774,"o":"m 553 92 q 512 67 538 75 q 458 59 486 60 q 401 63 429 58 q 353 75 374 67 q 326 90 339 81 q 307 111 314 99 q 296 143 299 126 q 293 176 293 160 q 296 220 294 199 q 299 264 297 242 q 225 263 263 263 q 151 271 188 264 q 106 280 129 274 q 67 301 83 286 q 42 340 51 315 q 30 391 33 364 q 28 445 26 418 q 38 492 31 472 q 58 526 44 511 q 89 550 71 542 q 140 567 113 563 q 196 574 168 571 q 249 578 222 576 q 301 579 275 579 q 296 636 297 607 q 304 692 294 665 q 353 743 317 729 q 406 756 378 754 q 463 754 435 757 q 522 736 497 751 q 557 683 549 717 q 565 632 564 658 q 564 578 565 606 q 598 576 575 578 q 646 571 621 574 q 692 563 671 568 q 724 553 714 558 q 760 500 750 535 q 770 448 767 474 q 771 394 774 422 q 765 354 769 375 q 749 317 760 333 q 706 286 735 296 q 692 283 701 285 q 671 278 682 281 q 650 275 660 276 q 636 274 640 274 q 606 271 621 271 q 576 271 592 271 q 576 160 581 215 q 570 124 575 142 q 553 92 565 106 m 304 478 q 342 460 318 458 q 376 483 365 461 q 373 527 388 507 q 333 543 358 547 q 300 519 310 540 q 304 478 290 497 m 118 446 q 140 449 129 444 q 163 456 151 453 q 174 456 165 456 q 194 458 183 457 q 213 458 204 458 q 225 458 222 458 q 251 471 242 460 q 261 496 260 482 q 256 522 263 510 q 233 539 249 535 q 214 542 224 542 q 194 542 204 542 q 174 540 188 542 q 147 535 161 538 q 119 530 132 533 q 100 522 106 526 q 85 501 89 514 q 83 477 81 489 q 95 456 86 465 q 118 446 104 447 z "},",":{"ha":404,"x_min":24,"x_max":378,"o":"m 240 -186 q 222 -192 233 -197 q 214 -176 211 -187 q 218 -147 215 -168 q 224 -102 221 -126 q 230 -56 228 -78 q 232 -26 232 -35 q 204 -33 218 -32 q 175 -37 190 -35 q 128 -36 151 -40 q 84 -22 104 -32 q 50 6 64 -11 q 32 46 36 22 q 33 135 24 89 q 68 218 42 182 q 97 244 79 233 q 132 260 114 254 q 195 270 163 269 q 257 261 228 271 q 301 241 281 254 q 338 208 322 228 q 374 125 365 172 q 376 84 378 106 q 371 43 375 63 q 326 -76 360 -19 q 249 -176 293 -132 q 240 -186 246 -181 m 97 146 q 117 136 106 138 q 140 139 129 135 q 158 152 150 143 q 168 174 167 161 q 163 199 169 188 q 146 215 157 210 q 122 219 135 219 q 99 210 110 218 q 83 178 83 197 q 97 146 83 160 z "},"-":{"ha":665,"x_min":29,"x_max":636,"o":"m 465 249 q 328 238 396 242 q 190 239 260 235 q 124 248 158 242 q 67 276 90 254 q 40 325 47 296 q 31 382 32 354 q 32 432 29 407 q 46 479 35 457 q 65 506 53 494 q 92 524 78 517 q 142 540 115 536 q 196 547 169 544 q 290 553 243 551 q 385 556 338 554 q 453 556 419 557 q 521 551 488 556 q 554 545 538 549 q 586 532 571 542 q 615 501 604 522 q 628 460 625 482 q 633 417 632 439 q 635 369 636 393 q 626 321 633 344 q 601 282 619 296 q 576 267 594 275 q 549 261 558 258 q 542 260 546 263 q 538 257 539 258 q 465 249 501 250 m 300 485 q 311 445 294 461 q 350 435 328 429 q 371 446 363 438 q 382 465 379 454 q 381 488 385 476 q 367 508 376 500 q 327 516 349 524 q 300 485 306 508 m 118 503 q 90 482 97 497 q 86 451 83 467 q 102 426 89 436 q 136 421 115 417 q 164 428 151 426 q 176 430 167 429 q 197 431 186 431 q 218 431 208 431 q 231 433 228 432 q 257 451 249 438 q 263 478 265 464 q 250 504 261 493 q 219 515 239 515 q 118 503 168 515 z "},".":{"ha":379,"x_min":28,"x_max":350,"o":"m 268 8 q 181 -8 228 -10 q 96 17 133 -6 q 51 61 68 32 q 31 121 33 90 q 33 189 28 154 q 58 250 39 224 q 101 287 75 274 q 154 306 126 300 q 208 307 181 311 q 261 293 236 303 q 290 281 276 288 q 314 264 303 275 q 339 222 331 247 q 349 167 347 196 q 344 111 350 139 q 328 63 339 83 q 303 30 318 44 q 268 8 288 15 m 79 231 q 80 199 72 213 q 101 178 88 185 q 129 175 114 172 q 154 194 144 178 q 160 222 163 208 q 150 244 158 235 q 128 258 142 254 q 101 254 115 261 q 79 231 86 247 z "},"/":{"ha":657,"x_min":29,"x_max":644,"o":"m 276 -32 q 214 -41 247 -44 q 149 -31 181 -37 q 96 -15 122 -24 q 51 15 69 -6 q 32 74 35 36 q 33 156 29 113 q 47 242 38 200 q 61 310 56 283 q 87 419 72 365 q 117 526 101 472 q 211 843 160 685 q 240 926 226 885 q 272 1007 253 967 q 298 1044 283 1026 q 332 1071 313 1061 q 394 1085 361 1086 q 460 1076 428 1083 q 567 1042 518 1068 q 601 1021 585 1033 q 628 993 617 1008 q 644 936 644 968 q 639 890 644 913 q 626 846 633 868 q 573 688 603 765 q 515 531 543 610 q 497 474 510 513 q 466 385 483 435 q 429 279 449 335 q 392 174 410 224 q 359 85 374 124 q 336 31 344 47 q 311 -6 326 11 q 276 -32 296 -22 m 501 857 q 508 821 494 838 q 542 804 521 804 q 564 811 553 804 q 579 829 575 818 q 590 901 590 861 q 569 968 589 940 q 550 987 563 976 q 522 1006 538 997 q 492 1021 507 1015 q 465 1026 476 1026 q 437 1016 447 1026 q 424 992 426 1006 q 430 964 422 978 q 454 944 438 950 q 459 944 456 944 q 464 943 463 943 q 485 932 471 940 q 503 917 500 924 q 506 888 508 907 q 501 857 504 868 m 492 703 q 519 699 506 696 q 541 713 532 703 q 552 735 550 722 q 546 763 554 749 q 506 782 533 786 q 481 770 490 781 q 469 747 471 760 q 472 722 467 735 q 492 703 478 710 z "},":":{"ha":413,"x_min":39,"x_max":372,"o":"m 289 446 q 201 431 249 429 q 118 454 154 433 q 72 499 90 469 q 51 560 54 528 q 55 626 49 592 q 81 689 61 661 q 122 724 96 711 q 175 743 149 738 q 230 745 203 749 q 283 732 257 742 q 310 719 297 726 q 335 701 324 713 q 361 659 353 685 q 371 606 369 633 q 366 549 372 578 q 349 500 360 521 q 289 446 329 464 m 101 668 q 102 636 94 650 q 122 616 110 622 q 150 613 135 610 q 175 632 165 617 q 182 660 183 646 q 172 683 181 674 q 150 697 164 693 q 122 693 136 700 q 101 668 106 683 m 279 8 q 192 -8 239 -10 q 107 17 144 -6 q 62 61 79 32 q 42 121 44 90 q 44 189 39 154 q 69 250 50 224 q 112 287 86 274 q 165 306 138 300 q 219 307 192 311 q 272 293 247 303 q 301 281 288 288 q 325 264 314 275 q 350 222 342 247 q 360 167 358 196 q 356 111 361 139 q 339 63 350 83 q 314 30 329 44 q 279 8 299 15 m 90 231 q 91 199 83 213 q 112 178 99 185 q 140 175 125 172 q 165 194 156 178 q 172 222 174 208 q 161 244 169 235 q 140 258 153 254 q 113 254 126 261 q 90 231 97 247 z "},";":{"ha":410,"x_min":36,"x_max":369,"o":"m 286 446 q 199 431 246 429 q 115 454 151 433 q 69 499 88 469 q 49 560 51 528 q 52 626 46 592 q 78 689 58 661 q 119 724 93 711 q 172 743 144 738 q 227 745 200 749 q 281 732 254 742 q 308 719 294 726 q 332 701 321 713 q 358 659 350 685 q 368 606 367 633 q 363 549 369 578 q 346 500 357 521 q 286 446 326 464 m 99 668 q 99 636 92 650 q 119 616 107 622 q 147 613 132 610 q 172 632 163 617 q 179 660 181 646 q 169 683 178 674 q 147 697 161 693 q 119 693 133 700 q 99 668 103 683 m 238 -157 q 221 -162 231 -167 q 214 -146 211 -157 q 218 -118 215 -139 q 224 -74 221 -97 q 228 -31 226 -51 q 231 -1 231 -10 q 176 -12 204 -10 q 119 -7 147 -14 q 90 6 104 -1 q 65 25 76 14 q 43 69 47 46 q 44 158 36 113 q 78 238 53 203 q 129 276 96 263 q 243 283 185 299 q 293 261 269 276 q 332 222 317 246 q 361 148 356 190 q 360 65 367 106 q 318 -49 349 6 q 246 -147 288 -103 q 238 -157 240 -153 z "},"<":{"ha":565,"x_min":25,"x_max":532,"o":"m 453 106 q 405 94 431 94 q 356 103 379 94 q 258 152 304 122 q 168 215 213 182 q 111 263 139 239 q 60 317 83 288 q 37 351 47 332 q 25 389 26 369 q 28 417 25 404 q 39 444 32 431 q 71 490 53 468 q 110 531 89 511 q 144 560 118 539 q 201 606 171 582 q 258 651 232 631 q 296 678 285 671 q 349 708 321 694 q 407 719 378 722 q 469 690 442 717 q 511 632 497 664 q 521 602 518 618 q 519 571 524 586 q 488 523 514 550 q 429 469 461 496 q 365 421 397 443 q 314 386 332 399 q 464 315 390 354 q 499 294 482 306 q 522 264 515 282 q 528 222 532 244 q 515 181 525 200 q 490 138 504 158 q 453 106 475 117 m 321 629 q 343 594 324 606 q 383 592 363 582 q 400 608 394 597 q 406 630 406 618 q 400 651 406 642 q 383 667 394 661 q 340 665 361 678 q 321 629 319 653 m 122 475 q 133 449 122 458 q 156 435 143 439 q 183 437 169 432 q 203 457 196 442 q 213 468 204 463 q 231 484 217 471 q 249 500 244 497 q 259 507 251 501 q 275 519 267 513 q 290 531 283 525 q 300 540 297 538 q 309 562 308 550 q 305 584 310 574 q 290 601 300 594 q 268 608 281 608 q 245 601 256 608 q 224 586 235 593 q 183 554 203 571 q 143 518 163 538 q 129 499 136 510 q 122 475 122 488 z "},"=":{"ha":664,"x_min":38,"x_max":628,"o":"m 376 476 q 272 473 324 474 q 167 476 219 472 q 124 482 146 478 q 83 499 101 486 q 58 526 68 508 q 42 564 47 543 q 38 606 38 585 q 46 644 39 628 q 78 686 56 672 q 157 712 114 707 q 242 718 200 717 q 404 722 322 722 q 465 722 435 724 q 526 717 496 721 q 557 710 542 714 q 585 697 572 707 q 610 661 603 683 q 617 628 614 647 q 619 588 619 608 q 614 548 618 567 q 601 518 610 529 q 583 504 594 510 q 561 496 572 499 q 548 493 557 494 q 528 490 539 492 q 509 486 518 488 q 496 485 500 485 q 435 481 465 482 q 376 476 406 479 m 301 644 q 326 626 310 629 q 355 629 342 624 q 375 647 368 635 q 374 674 382 658 q 349 692 365 689 q 319 690 333 694 q 299 672 306 685 q 301 644 293 660 m 107 674 q 93 654 94 665 q 97 634 92 643 q 114 619 103 625 q 140 617 125 614 q 153 619 147 618 q 167 622 160 621 q 179 623 169 622 q 199 624 189 624 q 219 626 210 625 q 232 626 229 626 q 255 639 247 629 q 263 660 263 649 q 255 680 263 671 q 232 690 247 689 q 219 690 228 690 q 199 690 210 690 q 178 688 188 689 q 165 688 169 688 q 153 686 161 688 q 135 683 144 685 q 118 678 126 681 q 107 674 110 676 m 494 178 q 355 169 424 172 q 215 168 286 165 q 169 171 192 169 q 124 179 146 172 q 97 187 110 182 q 75 201 85 192 q 56 231 63 213 q 45 270 49 250 q 44 310 42 290 q 53 346 46 331 q 74 374 60 361 q 106 393 89 386 q 174 407 139 404 q 246 413 210 410 q 317 416 269 414 q 415 418 364 418 q 513 413 467 418 q 579 397 558 408 q 614 354 607 381 q 624 312 621 333 q 625 268 628 290 q 617 236 622 253 q 600 208 611 219 q 571 192 588 197 q 538 185 554 188 q 516 181 526 182 q 494 178 506 179 z "},">":{"ha":567,"x_min":35,"x_max":542,"o":"m 213 104 q 165 94 190 94 q 117 104 139 94 q 90 124 101 111 q 67 153 78 138 q 44 197 53 172 q 38 244 35 221 q 58 286 42 269 q 95 311 68 296 q 153 341 122 326 q 212 368 183 356 q 253 386 240 381 q 205 419 236 397 q 141 468 174 442 q 82 520 108 494 q 49 565 56 546 q 47 606 42 585 q 60 644 51 626 q 100 693 75 671 q 156 719 125 715 q 212 710 183 722 q 264 683 240 699 q 341 625 304 656 q 417 565 378 594 q 464 524 442 546 q 506 478 486 503 q 530 438 519 458 q 542 393 540 417 q 525 344 542 371 q 485 293 508 318 q 435 246 461 268 q 390 210 408 224 q 306 151 350 178 q 213 104 261 124 m 301 521 q 331 511 315 508 q 357 525 347 514 q 369 551 367 536 q 358 582 371 567 q 344 594 354 586 q 321 612 333 603 q 297 628 308 621 q 281 639 285 636 q 260 652 276 642 q 239 665 243 663 q 211 669 226 672 q 187 658 196 667 q 176 636 178 649 q 179 612 174 624 q 197 592 185 600 q 201 589 200 589 q 206 588 203 589 q 301 521 256 556 m 360 510 q 356 488 354 499 q 363 467 357 476 q 380 453 369 458 q 403 449 390 447 q 424 458 415 450 q 436 475 432 465 q 440 496 440 485 q 431 517 439 507 q 392 534 415 536 q 360 510 369 532 z "},"?":{"ha":721,"x_min":6,"x_max":703,"o":"m 358 321 q 320 318 339 318 q 282 319 301 318 q 249 326 265 322 q 219 339 233 329 q 205 355 211 346 q 194 374 199 364 q 185 410 188 392 q 182 449 183 429 q 193 540 181 494 q 231 601 203 579 q 282 628 254 619 q 336 649 310 636 q 366 665 351 656 q 390 688 381 674 q 397 733 406 708 q 364 769 388 757 q 340 779 353 776 q 313 782 326 782 q 268 778 290 783 q 224 767 246 774 q 180 750 201 760 q 135 736 158 740 q 102 736 119 733 q 72 749 85 739 q 42 789 51 764 q 35 807 39 793 q 28 836 32 821 q 22 865 25 851 q 17 883 18 879 q 8 922 11 901 q 14 960 6 942 q 39 988 22 976 q 72 1006 56 999 q 163 1039 117 1025 q 257 1058 208 1053 q 383 1058 319 1065 q 504 1025 446 1050 q 588 974 549 1006 q 654 901 626 942 q 678 855 668 879 q 692 806 688 831 q 688 681 703 746 q 638 568 674 617 q 601 531 622 547 q 557 500 581 514 q 516 478 538 488 q 471 463 494 468 q 476 420 475 442 q 469 379 476 399 q 436 340 461 354 q 398 327 418 331 q 358 321 378 324 m 400 939 q 424 931 406 938 q 449 925 442 925 q 477 935 467 925 q 490 960 488 946 q 487 987 493 974 q 464 1006 481 1000 q 451 1010 460 1007 q 433 1015 443 1013 q 415 1021 424 1018 q 403 1024 407 1024 q 356 1030 379 1026 q 308 1028 332 1033 q 288 1016 296 1025 q 277 996 279 1007 q 278 974 275 985 q 292 954 281 963 q 322 945 304 943 q 357 946 340 947 q 378 944 363 946 q 400 939 394 942 m 504 893 q 538 869 515 872 q 575 886 560 867 q 583 926 590 904 q 551 953 575 947 q 528 951 539 956 q 510 938 517 946 q 501 917 503 929 q 504 893 499 906 m 375 -15 q 313 -22 346 -25 q 251 -8 281 -19 q 225 7 238 -1 q 204 26 213 15 q 181 73 188 47 q 176 124 174 99 q 188 174 178 150 q 217 217 199 199 q 275 249 240 240 q 322 253 299 254 q 369 247 346 253 q 401 235 385 243 q 429 217 418 228 q 452 180 444 201 q 462 133 460 158 q 459 84 464 108 q 444 42 454 60 q 415 7 433 22 q 375 -15 397 -8 z "},"@":{"ha":1199,"x_min":35,"x_max":1168,"o":"m 850 -147 q 760 -162 806 -158 q 667 -167 714 -167 q 510 -153 588 -167 q 360 -108 432 -140 q 265 -55 311 -86 q 183 17 219 -24 q 121 99 147 54 q 76 193 94 144 q 41 356 47 271 q 49 522 35 440 q 98 683 63 604 q 190 824 133 761 q 299 915 239 875 q 426 982 358 956 q 565 1020 493 1008 q 708 1028 636 1032 q 857 997 783 1022 q 992 928 931 972 q 1092 821 1051 883 q 1150 688 1132 758 q 1163 543 1168 617 q 1126 404 1157 469 q 1094 356 1114 378 q 1047 317 1074 333 q 992 292 1021 301 q 935 283 964 283 q 865 300 896 283 q 820 332 840 313 q 783 375 800 351 q 738 322 763 347 q 681 285 713 297 q 610 272 646 271 q 544 286 575 272 q 488 325 513 300 q 449 383 463 350 q 435 462 433 421 q 449 540 436 503 q 488 610 463 578 q 549 660 514 642 q 675 682 608 690 q 790 629 742 674 q 809 597 799 621 q 829 544 819 572 q 847 491 839 517 q 861 454 856 465 q 868 444 864 449 q 879 436 872 439 q 906 442 893 432 q 925 464 918 451 q 939 519 936 488 q 906 649 943 594 q 810 733 869 703 q 676 767 750 763 q 531 749 601 772 q 451 705 488 733 q 389 639 414 676 q 349 544 361 597 q 341 435 338 490 q 363 328 344 379 q 418 243 382 278 q 467 207 439 221 q 569 175 514 182 q 678 176 625 168 q 751 198 715 183 q 824 224 786 213 q 865 231 843 229 q 906 228 886 233 q 971 186 943 218 q 1015 118 999 154 q 1038 56 1029 89 q 1039 -10 1046 22 q 1015 -60 1033 -37 q 974 -99 997 -83 q 914 -129 946 -118 q 850 -147 882 -140 m 878 838 q 911 835 892 829 q 938 868 935 843 q 922 908 942 893 q 902 920 918 911 q 882 932 886 929 q 828 956 856 946 q 774 975 801 965 q 735 984 754 981 q 696 989 715 988 q 676 988 686 989 q 658 982 667 986 q 634 947 635 971 q 654 910 633 924 q 676 904 667 903 q 738 899 708 907 q 797 881 768 892 q 878 838 838 864 m 971 757 q 1011 750 989 742 q 1039 781 1033 758 q 1028 820 1044 804 q 989 831 1011 836 q 968 819 976 828 q 957 800 960 811 q 957 777 954 789 q 971 757 960 765 m 667 426 q 688 430 676 425 q 709 443 699 435 q 728 461 719 451 q 742 481 738 471 q 753 525 753 500 q 733 561 753 550 q 700 560 719 569 q 669 539 681 551 q 641 489 650 519 q 649 438 632 458 q 667 426 656 429 z "},"A":{"ha":858,"x_min":26,"x_max":826,"o":"m 333 -3 q 290 -10 319 -8 q 229 -13 261 -12 q 167 -13 197 -14 q 124 -10 138 -12 q 84 -2 104 -7 q 49 17 64 3 q 32 44 38 28 q 26 75 26 60 q 38 282 29 179 q 65 488 47 385 q 103 666 81 578 q 163 838 125 754 q 201 910 179 875 q 253 972 222 944 q 299 1001 274 990 q 351 1019 324 1013 q 504 1033 424 1040 q 562 1023 532 1031 q 615 999 592 1015 q 663 951 643 979 q 696 892 682 924 q 747 752 726 824 q 781 606 768 681 q 802 457 794 532 q 815 308 810 382 q 820 249 817 288 q 825 169 824 210 q 822 92 826 129 q 806 39 818 56 q 765 12 793 22 q 703 -3 736 1 q 637 -9 669 -8 q 583 -8 604 -10 q 551 -2 568 -7 q 525 17 533 3 q 516 47 521 25 q 506 94 511 69 q 498 142 501 119 q 492 174 494 165 q 473 192 488 188 q 440 197 458 197 q 402 194 422 197 q 367 192 382 192 q 365 142 364 172 q 366 82 367 111 q 358 28 365 53 q 333 -3 351 4 m 406 968 q 414 926 397 944 q 456 913 431 907 q 485 940 478 918 q 478 981 493 961 q 438 996 463 1000 q 406 968 414 992 m 188 788 q 181 749 176 767 q 199 721 186 731 q 228 714 211 711 q 257 736 244 717 q 261 746 258 739 q 265 756 264 753 q 294 816 281 785 q 332 871 308 847 q 339 875 333 872 q 360 897 356 883 q 360 925 364 911 q 343 947 356 939 q 313 954 331 956 q 290 944 301 953 q 266 923 278 935 q 245 898 254 911 q 231 875 236 885 q 222 858 228 871 q 210 831 217 846 q 197 804 203 817 q 188 788 190 792 m 350 432 q 376 432 357 432 q 417 432 394 432 q 458 432 439 432 q 483 432 476 432 q 475 596 488 515 q 470 619 474 604 q 463 649 467 633 q 452 676 458 664 q 438 694 446 689 q 403 689 419 707 q 379 650 388 671 q 365 610 371 631 q 357 568 360 589 q 349 501 351 535 q 350 432 347 467 z "},"B":{"ha":903,"x_min":53,"x_max":869,"o":"m 644 8 q 481 -19 564 -14 q 314 -22 397 -25 q 292 -21 308 -22 q 256 -18 275 -19 q 219 -15 236 -17 q 197 -14 203 -14 q 163 -13 181 -14 q 129 -8 146 -12 q 108 0 118 -6 q 92 14 99 6 q 81 40 85 22 q 79 67 76 57 q 78 87 81 72 q 75 107 75 101 q 54 463 56 285 q 60 819 53 640 q 66 897 61 858 q 93 968 71 936 q 132 1000 107 989 q 181 1014 157 1011 q 237 1019 208 1017 q 293 1019 265 1022 q 326 1015 310 1018 q 357 1000 343 1011 q 374 979 368 992 q 383 953 379 967 q 525 1008 447 997 q 615 1011 569 1015 q 700 989 660 1007 q 775 939 740 971 q 831 867 810 907 q 863 763 857 817 q 854 660 868 710 q 807 567 840 610 q 724 499 774 525 q 769 474 747 488 q 807 442 792 461 q 856 348 842 399 q 863 246 869 297 q 832 147 857 194 q 764 65 807 100 q 708 31 739 44 q 644 8 676 18 m 442 939 q 435 910 432 924 q 447 887 438 896 q 472 876 457 878 q 501 882 486 874 q 518 890 507 886 q 542 895 529 893 q 566 899 554 897 q 585 899 578 900 q 610 893 597 897 q 635 892 622 889 q 658 906 650 894 q 667 932 667 917 q 657 958 667 949 q 633 974 647 968 q 601 981 618 979 q 567 982 583 982 q 540 979 560 982 q 514 975 521 976 q 497 969 506 972 q 479 964 489 965 q 458 956 468 963 q 442 939 449 949 m 686 890 q 680 866 679 878 q 687 844 681 854 q 704 829 693 835 q 729 825 715 824 q 756 843 747 828 q 763 875 765 858 q 752 897 761 889 q 731 908 743 906 q 706 907 718 911 q 686 890 694 903 m 389 621 q 411 611 397 614 q 441 608 425 608 q 472 610 457 608 q 496 615 486 611 q 537 647 519 625 q 557 692 554 668 q 541 740 558 717 q 499 769 524 764 q 478 772 492 771 q 452 772 465 772 q 426 769 439 771 q 407 763 414 767 q 399 754 401 760 q 393 743 396 749 q 383 687 383 715 q 381 631 382 658 q 383 626 381 628 q 389 621 386 624 m 378 254 q 421 247 397 244 q 465 256 444 249 q 501 267 483 260 q 529 290 518 275 q 538 342 542 311 q 517 392 535 374 q 490 411 506 404 q 457 421 474 418 q 438 424 449 422 q 417 424 428 425 q 396 420 406 424 q 382 411 386 417 q 376 397 376 404 q 374 381 375 389 q 374 317 372 349 q 378 254 375 286 z "},"C":{"ha":799,"x_min":25,"x_max":765,"o":"m 499 -17 q 321 -8 408 -33 q 235 24 276 4 q 161 75 194 43 q 67 213 99 133 q 42 302 49 256 q 32 394 35 349 q 47 630 25 511 q 126 849 68 749 q 189 928 151 892 q 271 988 226 964 q 394 1024 329 1017 q 522 1017 460 1031 q 638 969 585 1004 q 724 879 692 935 q 744 829 738 856 q 754 776 750 803 q 759 728 757 753 q 760 681 761 704 q 758 647 760 664 q 749 614 756 629 q 719 583 740 594 q 678 569 704 575 q 622 562 651 564 q 566 560 593 560 q 522 567 539 561 q 499 582 506 574 q 490 603 494 588 q 483 635 486 618 q 478 669 481 653 q 475 693 476 685 q 470 710 472 701 q 461 725 468 719 q 427 728 446 736 q 396 706 408 719 q 383 691 389 699 q 375 674 378 683 q 340 526 344 604 q 350 372 335 447 q 357 347 351 361 q 370 317 363 332 q 387 291 378 303 q 406 275 396 279 q 440 279 422 268 q 467 306 457 290 q 485 347 479 325 q 507 385 492 368 q 545 406 519 399 q 600 415 571 413 q 658 415 629 417 q 707 411 688 413 q 722 409 714 410 q 736 404 729 408 q 757 369 751 392 q 761 289 765 329 q 747 210 757 249 q 674 75 731 133 q 593 16 639 39 q 499 -17 547 -7 m 376 933 q 397 897 376 910 q 438 896 417 885 q 454 912 449 901 q 460 934 460 922 q 454 956 460 946 q 438 972 449 967 q 396 970 415 983 q 376 933 376 957 m 175 825 q 204 794 181 800 q 247 807 228 789 q 256 822 254 814 q 263 836 257 829 q 292 863 276 851 q 328 879 308 874 q 350 893 342 883 q 360 915 358 903 q 356 938 361 926 q 339 957 351 949 q 322 963 332 963 q 303 960 313 963 q 276 949 292 957 q 244 929 260 940 q 214 906 228 918 q 194 885 200 894 q 179 856 186 871 q 175 825 172 840 z "},"D":{"ha":913,"x_min":51,"x_max":890,"o":"m 382 -21 q 291 -24 338 -25 q 200 -17 244 -22 q 165 -10 182 -14 q 132 3 147 -6 q 90 58 99 22 q 71 171 75 114 q 64 286 67 228 q 54 523 57 404 q 56 760 51 642 q 59 836 57 799 q 68 911 61 874 q 81 954 71 933 q 99 976 88 967 q 126 992 111 986 q 171 1004 147 1001 q 218 1007 194 1007 q 258 1008 238 1008 q 299 1003 279 1007 q 322 996 310 1000 q 343 985 333 992 q 359 960 353 974 q 368 933 365 947 q 424 965 396 950 q 482 988 451 979 q 560 999 519 999 q 636 988 600 999 q 712 951 676 975 q 775 894 747 926 q 830 812 807 857 q 867 719 853 767 q 887 549 890 636 q 864 378 883 461 q 837 287 853 332 q 794 201 821 242 q 727 121 767 157 q 643 58 688 85 q 518 4 585 22 q 382 -21 451 -14 m 406 913 q 406 873 393 893 q 443 851 419 853 q 464 856 454 850 q 485 865 474 863 q 522 874 503 872 q 560 872 540 875 q 593 861 576 869 q 626 857 610 853 q 649 872 642 861 q 658 894 657 882 q 651 919 658 907 q 629 938 643 931 q 609 944 625 939 q 589 951 593 950 q 566 954 583 953 q 544 957 549 956 q 508 956 529 958 q 467 949 488 954 q 431 934 447 943 q 406 913 414 925 m 665 818 q 693 787 671 794 q 733 794 715 779 q 749 832 751 810 q 725 865 746 854 q 702 869 714 871 q 681 860 690 867 q 667 842 672 853 q 665 818 663 831 m 408 336 q 460 344 436 332 q 504 376 485 356 q 537 425 524 397 q 557 481 550 453 q 567 572 568 525 q 546 660 565 619 q 532 683 539 671 q 514 704 525 696 q 487 713 503 713 q 457 710 471 714 q 400 674 425 701 q 368 615 375 647 q 365 565 365 601 q 367 490 365 529 q 369 414 368 450 q 372 364 371 378 q 377 354 372 360 q 385 346 382 349 q 408 336 394 339 z "},"E":{"ha":810,"x_min":38,"x_max":782,"o":"m 353 -7 q 267 -1 310 -8 q 186 26 224 7 q 120 78 150 46 q 76 150 90 111 q 45 292 53 219 q 40 438 38 364 q 61 688 44 563 q 77 792 68 740 q 104 894 86 844 q 126 947 114 921 q 161 992 139 974 q 224 1018 189 1013 q 293 1024 258 1024 q 391 1015 342 1024 q 489 1004 440 1007 q 567 1006 528 1001 q 644 1010 606 1010 q 692 1004 668 1008 q 735 989 715 1000 q 774 940 763 972 q 781 888 782 915 q 775 835 781 861 q 760 778 771 807 q 726 732 749 750 q 678 713 706 717 q 624 711 650 708 q 560 721 592 715 q 497 729 529 726 q 480 730 490 729 q 458 730 469 731 q 435 727 446 729 q 421 721 425 725 q 405 692 410 714 q 400 657 400 669 q 402 647 401 651 q 406 638 403 642 q 438 622 414 626 q 478 618 463 618 q 528 620 496 618 q 593 623 560 622 q 656 620 626 624 q 697 603 685 617 q 713 573 708 592 q 716 533 717 554 q 710 492 715 513 q 700 458 706 472 q 661 417 689 431 q 594 403 629 401 q 525 410 558 404 q 493 417 513 411 q 454 426 474 422 q 417 430 435 431 q 390 421 399 429 q 380 404 383 415 q 375 381 376 393 q 375 356 374 368 q 379 335 376 343 q 385 319 382 326 q 396 308 389 311 q 429 299 407 301 q 476 296 451 296 q 523 297 500 296 q 558 300 546 297 q 620 310 589 304 q 683 310 651 315 q 744 254 732 299 q 754 197 751 231 q 754 128 757 163 q 741 65 751 94 q 713 18 731 35 q 674 3 700 7 q 617 -1 647 -1 q 558 1 586 -1 q 514 3 531 3 q 433 -1 474 4 q 353 -7 393 -6 m 136 846 q 148 825 139 833 q 168 814 157 817 q 190 815 179 811 q 210 829 201 818 q 217 849 217 838 q 221 871 218 860 q 236 897 225 885 q 263 906 247 908 q 299 919 285 903 q 308 958 314 936 q 297 978 306 969 q 276 989 288 988 q 232 986 254 992 q 192 968 210 981 q 168 944 179 960 q 149 912 157 929 q 137 877 140 894 q 136 846 133 860 m 351 964 q 346 919 335 943 q 383 896 357 896 q 404 901 394 896 q 419 916 414 907 q 426 935 425 925 q 422 957 428 946 q 389 981 411 978 q 351 964 367 983 z "},"F":{"ha":693,"x_min":54,"x_max":678,"o":"m 282 -12 q 263 -13 276 -12 q 233 -15 249 -14 q 204 -16 218 -15 q 185 -17 190 -17 q 161 -14 176 -17 q 130 -7 146 -11 q 100 3 114 -3 q 81 15 86 8 q 69 38 71 25 q 65 65 67 51 q 62 135 64 86 q 58 248 60 185 q 56 382 57 311 q 55 516 56 453 q 54 628 54 579 q 54 699 54 678 q 63 810 57 754 q 90 917 68 865 q 112 952 99 936 q 144 976 125 968 q 173 987 158 983 q 203 992 188 990 q 265 994 219 993 q 364 994 311 994 q 463 994 417 994 q 526 993 510 993 q 575 992 550 993 q 621 979 600 990 q 657 940 644 965 q 674 884 669 914 q 674 822 678 854 q 663 764 671 790 q 653 739 658 751 q 636 717 647 726 q 593 692 618 699 q 544 686 568 686 q 488 692 517 686 q 432 700 460 699 q 407 697 419 700 q 385 688 394 694 q 369 657 372 676 q 365 623 367 646 q 372 590 364 600 q 398 580 379 583 q 428 576 417 576 q 486 578 457 575 q 546 578 515 581 q 576 573 561 576 q 601 558 590 569 q 617 540 611 551 q 625 518 622 529 q 631 479 631 499 q 629 440 632 460 q 622 390 626 415 q 604 343 618 364 q 567 315 590 324 q 522 304 544 306 q 491 305 511 303 q 449 309 471 307 q 408 310 428 311 q 381 304 389 310 q 367 271 369 296 q 364 232 365 246 q 365 153 363 192 q 368 74 368 114 q 368 42 369 58 q 356 14 367 25 q 322 -5 342 0 q 282 -12 301 -10 m 283 929 q 285 889 274 908 q 321 869 297 869 q 360 893 349 869 q 354 938 371 917 q 317 953 339 957 q 283 929 294 950 m 89 779 q 100 758 92 767 q 119 747 108 750 q 142 748 131 744 q 161 763 153 751 q 169 783 168 771 q 172 807 169 796 q 178 821 174 810 q 182 835 182 832 q 196 856 185 846 q 219 869 207 867 q 245 888 238 874 q 251 916 253 901 q 239 942 250 931 q 210 951 228 953 q 185 946 199 951 q 163 933 178 943 q 142 919 147 924 q 126 903 133 911 q 113 883 118 894 q 108 871 111 879 q 101 853 104 863 q 94 835 97 843 q 90 822 90 826 q 88 801 89 811 q 89 779 86 790 z "},"G":{"ha":846,"x_min":24,"x_max":817,"o":"m 535 -1 q 424 -6 481 -10 q 315 10 368 -1 q 222 49 267 21 q 144 114 178 76 q 67 247 94 172 q 32 399 40 322 q 32 574 24 486 q 74 742 40 661 q 134 858 97 803 q 224 953 171 914 q 316 998 265 983 q 418 1017 367 1013 q 489 1019 454 1019 q 558 1010 524 1018 q 650 970 607 999 q 724 901 693 942 q 769 813 754 861 q 779 714 785 764 q 758 667 775 688 q 716 632 740 646 q 663 610 692 618 q 607 603 633 603 q 567 606 588 601 q 533 624 546 610 q 517 656 521 638 q 506 689 513 674 q 475 717 497 708 q 433 721 453 725 q 405 706 418 717 q 382 683 392 696 q 355 627 363 658 q 344 565 347 596 q 342 460 339 513 q 360 357 346 407 q 382 313 365 332 q 420 284 399 294 q 466 274 442 274 q 514 286 490 274 q 543 310 533 296 q 552 333 547 315 q 558 357 557 350 q 560 367 558 360 q 560 376 561 374 q 551 383 558 381 q 540 388 544 386 q 498 397 519 393 q 458 411 476 400 q 440 431 447 418 q 429 456 432 443 q 429 492 426 474 q 443 524 432 510 q 467 546 453 538 q 497 558 482 554 q 540 567 518 565 q 583 568 561 568 q 677 564 629 571 q 765 532 725 557 q 801 488 789 517 q 814 429 813 458 q 810 286 817 358 q 772 151 804 214 q 720 83 753 113 q 649 33 688 53 q 593 11 622 19 q 535 -1 564 3 m 357 961 q 340 935 342 950 q 347 908 339 919 q 369 890 354 896 q 401 890 383 883 q 424 913 418 896 q 422 944 429 929 q 394 969 415 964 q 357 961 374 975 m 122 713 q 152 682 129 689 q 193 693 175 675 q 204 714 203 703 q 216 750 207 733 q 232 783 225 767 q 242 794 235 786 q 250 804 249 801 q 260 817 256 811 q 272 829 265 824 q 290 844 276 833 q 307 857 304 854 q 312 900 322 878 q 276 925 301 922 q 254 920 268 926 q 235 907 240 914 q 215 890 225 897 q 196 871 204 882 q 181 853 189 861 q 167 836 174 844 q 158 821 164 832 q 147 797 153 810 q 135 772 140 783 q 128 754 129 760 q 122 734 125 744 q 122 713 119 724 z "},"H":{"ha":922,"x_min":51,"x_max":869,"o":"m 829 26 q 786 -2 814 8 q 726 -17 758 -12 q 663 -20 694 -21 q 608 -15 631 -19 q 572 -4 590 -11 q 543 18 554 3 q 532 49 533 32 q 529 82 531 67 q 528 125 529 93 q 525 192 526 157 q 523 260 524 228 q 522 303 522 292 q 453 302 488 303 q 385 301 419 301 q 388 187 388 244 q 371 75 389 129 q 356 44 365 58 q 333 18 347 29 q 292 -1 314 4 q 246 -8 269 -6 q 156 -3 197 -12 q 124 6 140 0 q 96 21 108 11 q 68 65 75 40 q 60 117 63 82 q 58 196 58 151 q 59 289 58 240 q 61 382 60 338 q 64 462 63 426 q 65 515 65 497 q 58 692 65 604 q 56 868 51 781 q 58 906 56 888 q 71 942 61 925 q 90 964 78 954 q 117 981 103 974 q 176 1001 142 994 q 244 1006 210 1007 q 310 994 279 1004 q 363 965 342 985 q 378 943 372 956 q 389 918 385 931 q 403 846 399 886 q 406 689 411 767 q 403 532 400 611 q 469 537 436 536 q 536 536 503 538 q 536 587 536 549 q 536 668 536 625 q 537 749 536 711 q 538 800 538 788 q 538 840 538 814 q 542 895 539 867 q 549 948 544 924 q 564 983 554 972 q 594 1004 576 997 q 632 1014 613 1011 q 702 1020 665 1021 q 771 1009 739 1019 q 826 978 803 999 q 858 924 850 957 q 865 841 869 883 q 861 758 861 799 q 865 435 863 596 q 856 114 867 275 q 849 67 853 90 q 829 26 844 44 m 242 911 q 270 887 249 892 q 308 894 292 882 q 324 922 322 907 q 317 948 325 936 q 295 965 310 960 q 263 965 281 971 q 242 943 247 960 q 242 911 236 926 m 86 750 q 101 726 90 735 q 125 718 113 718 q 149 726 138 718 q 167 749 161 733 q 168 761 168 753 q 167 779 168 769 q 166 798 167 789 q 165 811 165 807 q 179 861 165 839 l 182 864 q 183 867 183 865 q 206 897 203 879 q 201 928 210 914 q 176 947 193 942 q 140 940 160 953 q 116 916 126 931 q 99 886 106 901 q 82 811 82 853 q 82 799 82 808 q 83 781 82 790 q 84 763 83 771 q 86 750 85 754 z "},"I":{"ha":461,"x_min":50,"x_max":414,"o":"m 378 11 q 340 -4 365 1 q 287 -12 315 -10 q 231 -14 258 -14 q 189 -12 204 -14 q 147 -5 168 -10 q 113 15 125 0 q 90 60 96 35 q 82 110 85 86 q 79 134 81 115 q 76 157 78 153 q 53 356 57 256 q 51 556 50 456 q 55 728 53 642 q 72 899 57 814 q 79 935 75 917 q 94 969 83 954 q 114 988 101 981 q 140 997 126 994 q 196 1006 168 1004 q 251 1007 224 1007 q 307 1005 279 1007 q 363 994 335 1003 q 404 963 390 988 q 411 939 410 951 q 414 914 413 926 q 412 881 414 906 q 407 830 410 857 q 401 778 404 803 q 399 746 399 754 q 386 508 388 626 q 392 271 385 390 q 394 223 392 256 q 399 153 397 190 q 401 83 401 117 q 396 36 400 50 q 389 22 393 29 q 378 11 385 15 m 265 954 q 256 931 257 943 q 259 908 254 919 q 274 890 264 897 q 297 883 283 883 q 333 904 321 883 q 336 946 346 925 q 303 969 325 967 q 265 954 281 972 m 89 807 q 119 776 96 783 q 160 788 142 769 q 172 820 172 800 q 178 858 172 840 q 181 868 179 861 q 186 878 183 875 q 206 885 196 883 q 225 893 217 886 q 240 912 236 901 q 241 933 243 922 q 231 953 239 944 q 211 967 224 963 q 179 963 200 969 q 149 953 158 957 q 132 941 143 950 q 118 928 121 932 q 99 888 107 908 q 92 844 92 867 q 89 826 92 835 q 89 807 86 817 z "},"J":{"ha":810,"x_min":-4,"x_max":767,"o":"m 503 -19 q 338 -37 424 -43 q 175 -1 251 -32 q 107 34 139 14 q 47 81 75 54 q 22 110 33 94 q 3 144 10 125 q 1 193 -4 168 q 17 238 6 218 q 90 318 42 285 q 123 336 106 329 q 158 338 140 343 q 208 308 186 331 q 254 271 231 286 q 303 255 278 256 q 351 265 329 254 q 392 295 374 275 q 418 342 410 315 q 439 471 436 404 q 438 581 442 526 q 427 692 433 636 q 417 802 421 747 q 415 911 413 857 q 422 951 417 931 q 443 982 428 971 q 478 995 454 990 q 530 1003 503 1000 q 582 1008 557 1006 q 621 1010 607 1010 q 669 1009 644 1011 q 714 992 694 1007 q 739 956 732 978 q 749 910 746 933 q 751 867 750 897 q 755 797 753 836 q 758 713 757 757 q 762 630 760 669 q 765 559 764 590 q 765 515 765 528 q 753 328 767 422 q 704 147 740 233 q 632 47 681 88 q 571 8 604 24 q 503 -19 538 -8 m 586 918 q 624 903 601 900 q 657 928 646 906 q 654 969 667 949 q 618 988 642 989 q 581 962 592 985 q 586 918 569 939 m 451 728 q 481 697 458 704 q 522 708 504 690 q 533 729 532 718 q 533 758 535 738 q 531 801 532 778 q 528 844 529 824 q 531 872 528 865 q 538 883 532 875 q 546 893 544 890 q 551 919 554 906 q 540 941 549 932 q 519 953 532 950 q 492 950 506 957 q 478 941 483 947 q 467 928 472 935 q 456 910 460 919 q 449 890 451 901 q 444 847 442 869 q 447 803 446 825 q 448 788 447 799 q 449 765 449 778 q 451 742 450 753 q 451 728 451 732 z "},"K":{"ha":919,"x_min":46,"x_max":901,"o":"m 356 -19 q 263 -24 310 -26 q 210 -19 236 -22 q 158 -10 183 -17 q 124 6 136 -4 q 103 36 111 17 q 83 99 89 67 q 71 164 76 132 q 71 172 68 168 q 69 176 71 175 q 68 179 68 176 q 66 190 67 182 q 65 200 65 197 q 48 427 50 313 q 53 656 46 542 q 63 770 57 714 q 79 883 68 826 q 90 938 83 911 q 111 988 96 964 q 129 1007 118 999 q 151 1021 140 1015 q 190 1032 169 1029 q 229 1036 210 1035 q 268 1034 243 1036 q 320 1027 293 1032 q 371 1015 347 1022 q 406 1000 394 1008 q 429 967 422 988 q 435 932 435 950 q 433 897 435 914 q 421 768 428 832 q 411 639 414 704 q 435 668 418 647 q 473 717 451 689 q 519 775 494 744 q 565 833 543 806 q 603 881 586 860 q 628 910 621 901 q 654 939 640 925 q 685 963 668 953 q 708 973 696 969 q 735 974 721 976 q 783 955 758 971 q 830 916 808 939 q 869 867 851 893 q 893 818 886 840 q 901 782 900 801 q 896 746 901 763 q 868 690 888 715 q 825 643 849 664 q 775 600 800 621 q 726 556 750 579 l 660 489 q 726 401 696 446 q 788 311 756 356 q 799 295 790 307 q 819 270 808 283 q 838 244 829 257 q 850 228 847 232 q 867 202 858 215 q 878 174 875 189 q 877 147 881 161 q 867 122 874 133 q 813 52 847 83 q 739 6 779 21 q 699 -1 719 -1 q 661 10 679 0 q 624 38 640 21 q 593 75 607 56 q 513 201 549 136 q 440 332 476 265 q 416 314 428 322 q 392 296 404 306 q 406 199 399 247 q 418 103 413 151 q 421 67 421 85 q 417 31 421 49 q 394 -4 413 10 q 376 -14 386 -11 q 356 -19 367 -17 m 269 931 q 292 915 279 918 q 317 917 306 913 q 336 931 328 921 q 343 957 344 942 q 328 990 343 978 q 297 1000 313 1003 q 272 987 282 997 q 259 961 261 976 q 269 931 257 946 m 92 732 q 107 708 96 715 q 131 700 118 700 q 156 708 144 700 q 172 733 168 717 q 176 758 175 739 q 178 783 178 778 q 185 823 182 803 q 200 861 189 843 q 205 872 203 867 q 211 881 207 878 q 238 917 233 893 q 222 956 242 940 q 178 960 201 972 q 139 926 156 947 q 133 913 135 919 q 126 899 131 906 q 113 872 118 886 q 106 842 108 857 q 101 819 104 835 q 94 787 97 804 q 90 754 92 769 q 92 732 89 739 z "},"L":{"ha":697,"x_min":50,"x_max":696,"o":"m 596 -7 q 453 -26 525 -25 q 310 -25 382 -28 q 247 -20 278 -24 q 188 -8 217 -17 q 146 9 165 -1 q 111 36 126 19 q 85 77 94 54 q 69 124 76 100 q 58 242 56 182 q 58 363 60 303 q 53 572 56 467 q 56 781 50 676 q 63 872 58 826 q 82 963 67 918 q 93 984 86 974 q 111 1001 100 994 q 151 1014 125 1010 q 208 1019 178 1018 q 267 1020 239 1021 q 310 1017 294 1019 q 340 1009 325 1014 q 365 996 354 1004 q 389 967 383 985 q 392 924 393 954 q 390 859 392 893 q 384 794 388 825 q 379 750 381 764 q 374 690 378 735 q 367 594 371 644 q 360 499 363 544 q 357 439 357 454 q 358 411 357 428 q 360 376 358 394 q 367 344 363 358 q 381 322 371 329 q 410 315 390 315 q 453 317 431 314 q 497 323 476 319 q 531 328 518 326 q 556 328 540 329 q 590 326 572 328 q 624 322 608 325 q 647 313 639 318 q 669 282 661 304 q 681 233 676 260 q 688 180 686 206 q 693 138 690 154 q 695 85 696 113 q 679 39 694 58 q 642 10 665 19 q 596 -7 619 0 m 256 953 q 273 914 253 928 q 317 911 293 900 q 340 947 339 922 q 319 983 340 971 q 279 986 300 996 q 256 953 258 976 m 83 765 q 108 737 89 744 q 147 740 128 729 q 166 771 163 750 q 172 811 169 792 q 174 826 172 815 q 179 847 176 836 q 185 866 182 857 q 192 879 189 875 q 201 890 193 882 q 211 900 210 897 q 221 933 224 917 q 207 960 218 950 q 179 971 196 971 q 147 957 163 971 q 135 942 144 954 q 124 928 126 931 q 114 908 119 921 q 103 879 108 894 q 95 850 99 864 q 90 829 92 836 q 89 817 90 825 q 86 798 88 808 q 84 778 85 788 q 83 765 83 769 z "},"M":{"ha":1119,"x_min":50,"x_max":1071,"o":"m 307 7 q 253 -1 285 3 q 188 -3 221 -4 q 127 6 156 -1 q 85 29 99 13 q 64 82 71 46 q 53 160 57 118 q 50 240 50 201 q 50 300 50 279 q 53 489 51 396 q 63 678 56 582 q 70 767 65 722 q 86 856 75 811 q 92 875 88 861 q 103 904 97 889 q 114 933 108 919 q 124 953 119 947 q 165 982 139 972 q 220 993 190 992 q 280 990 250 994 q 333 976 310 985 q 367 953 353 969 q 392 918 382 938 q 417 856 407 889 q 434 791 426 824 q 451 726 442 758 q 476 664 461 693 q 496 633 485 649 q 519 608 507 618 q 547 595 532 599 q 576 600 561 592 q 597 615 588 607 q 615 635 607 624 q 636 665 626 650 q 656 697 646 681 q 701 804 682 750 q 739 914 721 858 q 752 941 744 928 q 771 964 760 954 q 842 995 800 989 q 924 994 885 1001 q 955 986 939 992 q 983 969 971 981 q 1008 940 999 957 q 1025 904 1018 924 q 1049 813 1042 860 q 1061 717 1057 765 q 1069 577 1068 646 q 1068 438 1071 508 q 1067 292 1067 364 q 1061 146 1068 219 q 1056 102 1058 124 q 1046 60 1053 81 q 1022 25 1039 40 q 986 3 1006 10 q 956 -1 976 0 q 912 -1 935 -1 q 868 1 889 0 q 838 4 847 3 q 794 18 815 7 q 764 49 774 29 q 756 94 756 69 q 758 290 753 193 q 753 486 763 388 q 726 392 743 438 q 689 301 710 346 q 678 281 685 293 q 664 256 672 268 q 647 233 656 243 q 631 219 639 222 q 542 203 589 206 q 510 205 526 203 q 478 214 493 207 q 435 247 454 226 q 403 292 417 268 q 372 361 383 325 q 346 433 360 397 q 353 331 349 382 q 361 229 357 281 q 366 188 363 215 q 371 132 369 161 q 372 76 372 103 q 364 38 371 50 q 340 16 357 22 q 307 7 324 10 m 256 885 q 297 886 276 874 q 317 922 317 899 q 292 960 317 949 q 247 954 268 971 q 232 917 229 940 q 256 885 235 894 m 110 679 q 139 649 115 656 q 179 660 163 642 q 190 679 190 671 q 192 734 193 707 q 203 785 192 761 q 211 813 207 799 q 222 838 215 826 q 226 861 229 849 q 216 884 225 875 q 196 897 207 893 q 172 897 185 900 q 151 883 160 893 q 142 867 147 879 q 133 843 138 856 q 124 819 128 831 q 119 801 121 807 q 115 776 117 793 q 110 740 113 758 q 108 704 108 721 q 110 679 107 688 z "},"N":{"ha":938,"x_min":54,"x_max":896,"o":"m 308 10 q 238 -8 275 -3 q 167 -6 201 -14 q 78 74 101 10 q 67 128 71 92 q 60 212 63 165 q 56 309 57 258 q 54 406 54 360 q 55 491 54 453 q 56 549 56 529 q 57 661 56 606 q 63 774 58 717 q 65 808 64 790 q 68 842 65 825 q 69 857 68 846 q 71 881 69 868 q 73 904 72 893 q 74 919 74 915 q 101 961 81 943 q 144 986 121 979 q 177 992 154 989 q 226 997 200 994 q 275 999 251 999 q 308 1000 299 1000 q 347 997 328 1000 q 381 981 367 993 q 410 941 400 965 q 429 893 421 917 q 503 690 465 790 q 589 493 540 589 q 587 623 585 558 q 593 754 589 688 q 597 804 594 772 q 606 871 600 836 q 619 935 611 906 q 640 978 628 965 q 689 1001 660 997 q 790 1006 739 1013 q 830 997 810 1003 q 865 978 850 990 q 892 939 885 963 q 894 891 896 925 q 889 818 893 857 q 881 744 885 779 q 875 696 876 710 q 872 635 874 681 q 870 540 871 590 q 869 444 869 489 q 868 383 868 399 q 869 255 867 319 q 860 126 871 190 q 844 69 854 99 q 811 19 835 39 q 768 0 792 4 q 721 -7 744 -4 q 641 -6 682 -11 q 568 22 600 -1 q 546 49 558 29 q 520 91 533 68 q 497 135 507 114 q 481 168 486 157 q 418 312 447 239 q 356 456 389 385 q 361 322 358 389 q 363 189 364 256 q 362 156 363 178 q 359 110 361 133 q 353 65 357 86 q 343 35 349 44 q 328 19 338 25 q 308 10 319 13 m 236 910 q 254 884 242 892 q 281 878 267 876 q 306 891 294 881 q 319 919 317 901 q 310 949 322 938 q 279 963 297 960 q 244 947 260 965 q 236 910 229 929 m 103 664 q 118 640 107 647 q 143 632 129 632 q 169 640 157 632 q 185 664 181 647 q 185 690 186 671 q 183 715 183 708 q 183 744 182 726 q 185 782 183 763 q 192 819 188 801 q 203 844 196 836 q 213 869 213 856 q 206 892 213 882 q 187 908 199 903 q 161 911 175 914 q 135 895 146 908 q 118 864 125 882 q 108 827 111 846 q 103 793 104 808 q 100 771 101 789 q 99 749 99 753 q 99 732 99 744 q 99 706 99 719 q 101 681 100 693 q 103 664 101 668 z "},"O":{"ha":906,"x_min":21,"x_max":879,"o":"m 568 -7 q 392 -19 485 -32 q 222 35 299 -7 q 170 72 194 50 q 126 119 146 94 q 65 234 88 172 q 35 360 43 296 q 34 561 21 460 q 88 754 47 663 q 161 876 115 819 q 267 972 207 933 q 376 1019 319 1007 q 542 1019 460 1039 q 687 956 621 1001 q 797 844 753 911 q 860 702 842 781 q 878 546 879 624 q 851 338 876 442 q 768 146 825 233 q 681 53 733 93 q 568 -7 629 13 m 388 911 q 419 881 394 886 q 464 894 444 875 q 474 916 472 904 q 471 938 475 928 q 457 957 467 949 q 435 967 447 965 q 397 952 411 969 q 388 911 382 935 m 142 708 q 159 683 146 690 q 186 676 172 675 q 211 688 200 678 q 224 718 222 699 q 227 733 224 722 q 233 749 231 744 q 267 800 250 774 q 313 840 285 826 q 340 856 326 847 q 357 881 354 865 q 346 920 363 904 q 307 931 329 936 q 293 924 303 929 q 274 914 283 919 q 256 902 264 908 q 243 893 247 896 q 235 886 239 890 q 228 879 232 882 q 210 860 221 874 q 189 832 200 847 q 169 803 178 817 q 157 781 160 789 q 144 744 150 763 q 142 708 138 726 m 439 290 q 470 293 454 288 q 497 308 486 299 q 524 338 513 321 q 542 374 535 356 q 562 446 554 404 q 568 529 569 488 q 555 608 567 571 q 518 668 543 646 q 467 690 497 688 q 414 676 438 692 q 378 634 390 661 q 360 579 367 607 q 351 497 351 539 q 357 414 350 454 q 366 376 360 396 q 383 338 372 356 q 407 306 393 319 q 439 290 421 293 z "},"P":{"ha":806,"x_min":56,"x_max":797,"o":"m 232 -12 q 192 -13 215 -14 q 146 -9 169 -12 q 103 2 122 -6 q 74 22 83 10 q 62 56 65 32 q 58 106 58 79 q 57 158 57 133 q 57 196 57 183 q 56 274 56 221 q 56 396 56 328 q 58 539 57 464 q 60 682 58 614 q 65 803 63 750 q 72 881 68 856 q 85 935 78 908 q 113 982 93 963 q 131 996 119 990 q 153 1006 142 1001 q 207 1017 179 1015 q 263 1021 235 1019 q 388 1019 325 1024 q 510 999 450 1015 q 581 974 546 989 q 647 938 617 960 q 740 836 706 897 q 786 706 775 775 q 785 566 797 638 q 736 435 772 494 q 665 353 708 389 q 571 299 622 317 q 459 282 518 279 q 347 301 400 285 q 351 199 347 250 q 355 162 353 186 q 358 110 357 138 q 356 60 358 83 q 349 25 354 36 q 338 13 346 18 q 324 6 331 8 q 305 0 318 3 q 277 -6 292 -3 q 250 -10 263 -8 q 232 -12 238 -12 m 500 879 q 535 878 519 871 q 557 899 550 885 q 560 930 564 914 q 538 956 556 946 q 521 963 535 958 q 503 968 507 967 q 460 976 482 974 q 417 981 439 978 q 383 985 400 982 q 350 981 365 988 q 326 947 329 969 q 343 910 324 925 q 358 903 350 904 q 375 901 367 901 q 401 900 383 901 q 439 895 419 899 q 475 888 458 892 q 500 879 492 883 m 575 853 q 587 820 572 835 q 621 808 601 806 q 644 818 635 810 q 657 838 654 826 q 656 863 660 850 q 642 883 653 875 q 621 892 632 892 q 600 889 610 893 q 583 875 590 885 q 575 853 576 865 m 350 579 q 384 569 364 572 q 424 569 404 567 q 463 578 444 571 q 493 597 482 585 q 510 627 506 610 q 515 663 515 644 q 508 699 514 682 q 490 731 501 717 q 451 760 475 750 q 403 774 426 771 q 381 772 392 775 q 363 763 369 769 q 356 746 358 757 q 351 722 353 735 q 349 697 350 708 q 349 678 349 685 q 349 629 349 654 q 350 579 349 604 z "},"Q":{"ha":924,"x_min":21,"x_max":903,"o":"m 782 -111 q 751 -123 767 -118 q 719 -122 735 -128 q 696 -110 707 -119 q 676 -90 685 -101 q 645 -40 658 -67 q 619 14 632 -14 q 511 -19 567 -11 q 363 -15 438 -29 q 222 35 288 -1 q 170 72 194 50 q 126 119 146 94 q 65 234 88 172 q 35 360 43 296 q 34 561 21 460 q 88 754 47 663 q 161 876 115 819 q 267 972 207 933 q 335 1007 299 993 q 410 1026 371 1021 q 507 1026 458 1033 q 601 1001 556 1019 q 709 940 660 979 q 794 850 758 900 q 855 722 835 792 q 878 581 875 651 q 858 369 881 475 q 783 171 836 263 q 802 146 788 164 q 833 107 817 128 q 865 67 850 86 q 883 43 879 49 q 897 20 890 32 q 900 -3 903 8 q 888 -30 897 -18 q 868 -53 879 -42 q 827 -85 849 -71 q 782 -111 806 -99 m 372 911 q 403 894 383 893 q 438 910 424 894 q 448 943 453 924 q 426 974 443 963 q 403 978 415 979 q 381 969 390 976 q 364 943 365 960 q 372 911 363 926 m 136 732 q 143 710 136 719 q 160 694 150 700 q 181 690 169 689 q 203 699 193 690 q 216 719 213 707 q 225 742 219 731 q 247 778 235 761 q 272 810 258 794 l 303 840 q 313 846 306 842 q 322 853 319 850 q 337 877 335 863 q 333 903 339 892 q 314 922 326 915 q 285 925 301 929 q 265 915 278 924 q 247 901 251 906 l 225 879 q 186 836 203 860 q 156 788 169 813 q 144 760 151 781 q 136 732 136 740 m 439 290 q 470 293 454 288 q 497 308 486 299 q 524 338 513 321 q 542 374 535 356 q 562 446 554 404 q 568 529 569 488 q 555 608 567 571 q 518 668 543 646 q 467 690 497 688 q 414 676 438 692 q 378 634 390 661 q 360 579 367 607 q 351 497 351 539 q 357 414 350 454 q 366 376 360 396 q 383 338 372 356 q 407 306 393 319 q 439 290 421 293 z "},"R":{"ha":890,"x_min":53,"x_max":868,"o":"m 233 -24 q 183 -24 208 -25 q 133 -15 157 -24 q 79 29 100 -3 q 63 71 68 49 q 54 115 57 93 q 53 153 54 126 q 53 213 53 179 q 53 284 53 247 q 54 355 54 321 q 55 415 54 389 q 56 451 56 440 q 68 774 58 614 q 74 846 71 810 q 88 917 76 882 q 105 956 94 936 q 133 989 115 976 q 169 1005 149 1000 q 210 1011 190 1010 q 271 1010 240 1014 q 332 1006 301 1006 q 456 1008 394 1004 q 579 1001 518 1011 q 672 976 626 994 q 754 928 718 958 q 813 861 788 900 q 850 779 838 822 q 863 656 868 718 q 832 541 858 594 q 760 447 806 488 q 653 388 714 406 q 645 379 646 385 q 647 367 644 374 q 655 347 650 356 q 667 331 660 339 q 717 269 689 297 q 776 213 746 240 q 803 188 790 200 q 826 160 817 175 q 838 135 833 149 q 839 108 842 121 q 810 57 835 79 q 765 27 793 42 q 707 3 738 13 q 647 -9 676 -7 q 594 -3 617 -11 q 531 39 558 10 q 478 97 503 68 q 419 192 442 140 q 374 296 396 244 q 376 208 375 251 q 375 119 376 164 q 371 58 375 88 q 361 24 368 40 q 340 -3 354 8 q 319 -12 333 -8 q 289 -18 306 -15 q 257 -22 272 -21 q 233 -24 242 -24 m 575 892 q 600 879 589 888 q 626 871 611 871 q 649 878 639 871 q 663 894 658 885 q 667 916 668 904 q 658 938 667 928 q 644 949 654 943 q 621 961 633 956 q 597 971 608 967 q 579 976 586 975 q 533 982 556 979 q 489 982 511 985 q 451 980 471 979 q 418 969 432 981 q 403 947 406 960 q 406 922 400 933 q 423 902 411 910 q 451 897 435 894 q 470 897 461 899 q 489 897 479 896 q 508 899 493 899 q 526 900 522 900 q 551 897 532 900 q 575 892 569 894 m 668 865 q 673 820 657 842 q 715 804 689 799 q 747 833 739 811 q 740 874 756 854 q 702 890 725 893 q 668 865 679 886 m 367 578 q 409 564 385 568 q 457 563 433 560 q 503 574 481 565 q 539 599 525 583 q 561 659 561 622 q 540 721 561 696 q 494 753 522 743 q 438 763 465 764 q 408 759 422 763 q 385 746 394 756 q 371 713 375 735 q 366 665 367 690 q 366 616 365 640 q 367 578 367 592 z "},"S":{"ha":793,"x_min":26,"x_max":760,"o":"m 543 -6 q 403 -27 476 -26 q 261 -10 329 -28 q 147 44 200 6 q 61 136 93 83 q 33 217 39 172 q 46 300 26 263 q 76 335 56 321 q 117 360 96 349 q 172 378 143 371 q 229 379 201 385 q 288 347 263 375 q 312 313 301 332 q 336 279 322 294 q 358 259 346 268 q 386 247 371 250 q 435 257 414 242 q 454 300 457 272 q 442 328 451 315 q 421 351 432 340 q 344 399 386 381 q 261 436 301 417 q 172 490 215 460 q 97 561 129 519 q 43 707 49 626 q 74 857 38 788 q 131 931 96 897 q 207 988 167 964 q 297 1025 250 1011 q 393 1043 344 1039 q 510 1036 451 1047 q 618 994 569 1025 q 671 951 646 976 q 711 896 696 926 q 731 849 721 876 q 746 794 740 822 q 749 738 751 765 q 735 694 747 711 q 699 664 721 675 q 653 647 676 653 q 603 642 629 642 q 554 650 578 643 q 513 682 529 658 q 488 724 499 701 q 458 757 478 746 q 427 767 443 765 q 397 762 411 768 q 375 744 383 756 q 369 715 367 732 q 380 690 372 701 q 399 669 388 679 q 433 645 414 656 q 469 624 451 635 q 586 564 526 592 q 689 488 646 536 q 717 449 706 469 q 738 404 729 428 q 756 312 753 360 q 753 217 760 264 q 733 151 747 183 q 697 93 719 119 q 628 33 668 57 q 543 -6 588 10 m 343 969 q 353 924 333 942 q 400 917 372 907 q 424 943 419 924 q 417 979 428 963 q 399 993 410 989 q 378 996 389 997 q 357 988 367 994 q 343 969 347 981 m 121 858 q 111 834 113 847 q 114 810 110 821 q 128 791 118 799 q 151 783 138 783 q 174 790 163 783 q 189 807 185 796 q 223 851 201 832 q 269 883 244 871 q 281 888 275 886 q 294 892 288 889 q 316 915 311 900 q 316 942 321 929 q 298 964 311 956 q 267 969 285 972 q 249 965 263 969 q 231 957 235 960 q 202 940 217 949 q 176 921 188 932 q 147 891 161 907 q 121 858 133 875 z "},"T":{"ha":768,"x_min":0,"x_max":769,"o":"m 435 -11 q 324 -12 382 -21 q 279 -4 301 -10 q 238 15 257 1 q 209 50 219 29 q 194 93 199 71 q 190 154 190 124 q 189 215 189 185 q 197 463 192 340 q 211 711 203 586 q 162 706 186 708 q 114 703 138 703 q 78 708 96 704 q 44 724 60 713 q 25 745 33 732 q 11 774 17 758 q 1 829 3 799 q 5 890 0 860 q 23 947 10 921 q 58 986 36 972 q 103 1006 78 1001 q 153 1013 128 1010 q 208 1012 167 1013 q 298 1009 250 1011 q 388 1005 346 1007 q 443 1003 429 1003 q 530 1003 488 1001 q 615 1006 572 1004 q 663 1003 639 1006 q 708 989 688 1000 q 735 966 724 981 q 753 936 746 951 q 767 885 764 911 q 768 831 769 858 q 765 806 768 824 q 760 781 763 788 q 743 743 758 764 q 713 715 728 722 q 681 703 697 707 q 646 699 664 700 q 597 699 622 697 q 549 704 572 701 q 555 552 551 628 q 563 400 558 476 q 569 307 565 353 q 575 214 572 261 q 574 151 576 182 q 563 90 571 121 q 544 52 556 71 q 515 21 532 33 q 478 -1 499 7 q 435 -11 457 -8 m 36 836 q 47 815 39 824 q 67 805 56 807 q 89 806 78 803 q 108 819 100 808 q 117 839 115 828 q 118 861 118 850 q 120 869 118 865 q 125 878 122 874 q 126 881 126 879 q 128 883 126 882 q 172 893 151 893 q 201 903 190 893 q 215 928 213 914 q 210 955 217 942 q 185 975 203 968 q 153 975 175 978 q 121 969 131 972 q 82 952 101 963 q 53 922 63 942 q 38 881 44 903 q 36 836 31 858 m 263 890 q 297 890 282 883 q 317 910 311 897 q 320 940 324 924 q 299 967 317 956 q 276 972 288 974 q 255 963 264 971 q 241 944 246 956 q 239 919 236 932 q 263 890 244 897 z "},"U":{"ha":893,"x_min":32,"x_max":860,"o":"m 578 -7 q 441 -24 511 -26 q 306 0 371 -21 q 247 26 275 11 q 194 60 218 40 q 139 122 163 88 q 99 194 115 157 q 60 319 72 254 q 40 449 47 383 q 35 577 32 513 q 49 706 39 642 q 59 769 51 728 q 77 852 67 810 q 101 932 88 894 q 132 985 115 969 q 159 1003 143 996 q 190 1015 175 1011 q 234 1017 207 1018 q 288 1013 261 1017 q 340 1000 315 1008 q 378 979 365 992 q 399 947 393 967 q 408 908 406 928 q 408 858 411 883 q 401 807 406 832 q 386 724 394 765 q 371 642 378 683 q 359 560 364 601 q 356 476 354 518 q 367 417 357 447 q 396 364 376 388 q 416 347 404 354 q 442 336 428 339 q 481 339 460 332 q 526 375 508 347 q 544 415 539 393 q 550 457 550 436 q 546 540 550 499 q 536 624 542 582 q 522 731 529 678 q 504 839 514 785 q 499 887 501 863 q 504 935 497 911 q 549 990 514 971 q 597 1005 571 1001 q 647 1011 622 1008 q 695 1013 671 1014 q 739 997 719 1011 q 769 963 758 985 q 786 918 779 940 q 840 703 822 814 q 858 481 858 593 q 842 326 860 403 q 789 178 825 249 q 743 106 769 140 q 683 44 717 71 q 578 -7 638 11 m 264 946 q 263 917 258 931 q 278 897 268 904 q 303 890 289 890 q 329 899 317 889 q 344 922 342 908 q 341 947 347 936 q 323 966 335 958 q 294 972 311 974 q 275 963 283 971 q 264 946 267 956 m 99 793 q 113 760 100 771 q 140 751 125 750 q 169 763 156 751 q 182 797 182 775 q 188 826 182 804 q 196 854 193 847 q 203 870 197 860 q 215 883 210 881 q 218 885 217 883 q 220 885 219 885 q 222 886 221 886 q 242 906 236 893 q 244 933 247 919 q 231 956 242 946 q 204 965 221 965 q 175 957 189 965 q 149 936 161 949 q 128 908 138 924 q 115 879 119 893 q 111 862 114 874 q 105 836 108 850 q 100 810 101 822 q 99 793 99 799 z "},"V":{"ha":860,"x_min":8,"x_max":851,"o":"m 556 25 q 490 -9 526 1 q 414 -17 453 -19 q 338 1 375 -14 q 275 42 301 15 q 235 95 251 65 q 207 156 219 125 q 160 297 181 225 q 121 442 139 369 q 85 587 103 514 q 47 732 68 660 q 22 813 36 772 q 10 897 8 854 q 38 958 11 935 q 82 983 54 972 q 141 999 110 994 q 203 1004 172 1004 q 254 997 233 1004 q 297 972 278 989 q 326 933 315 954 q 360 849 349 893 q 376 760 371 804 q 391 640 383 699 q 410 521 399 581 q 417 487 413 506 q 428 454 422 468 q 440 436 433 440 q 456 444 447 432 q 478 506 467 461 q 498 601 489 550 q 513 697 507 651 q 524 764 519 743 q 535 822 529 793 q 551 879 542 851 q 559 904 554 889 q 571 935 564 919 q 586 965 578 951 q 603 982 594 978 q 629 991 615 989 q 658 994 643 993 q 731 994 694 997 q 771 988 750 992 q 810 974 792 985 q 846 915 839 951 q 849 863 851 889 q 840 813 846 838 q 815 709 829 760 q 786 607 801 658 q 699 332 744 469 q 665 230 682 281 q 626 131 647 179 q 598 74 615 101 q 556 25 581 46 m 206 969 q 178 950 185 965 q 174 919 171 935 q 191 894 178 904 q 225 889 204 885 q 251 908 244 893 q 255 939 258 924 q 239 964 251 954 q 206 969 226 974 m 74 718 q 94 703 82 706 q 119 704 107 700 q 140 718 132 708 q 149 743 149 728 q 143 766 149 749 q 136 789 138 783 q 129 824 133 801 q 133 857 125 847 q 140 865 136 861 q 147 875 144 869 q 147 911 154 889 q 125 932 142 926 q 92 932 108 938 q 77 922 85 929 q 63 904 69 914 q 53 884 57 894 q 47 865 49 874 q 44 843 44 860 q 44 819 44 826 q 47 798 44 813 q 54 767 50 783 q 64 738 58 751 q 74 718 69 724 z "},"W":{"ha":1164,"x_min":36,"x_max":1129,"o":"m 1083 101 q 1029 38 1063 63 q 956 2 996 13 q 874 -2 917 -8 q 794 28 832 4 q 746 66 768 44 q 704 111 724 88 q 649 197 672 151 q 608 290 626 242 q 599 312 606 299 q 582 326 592 325 q 565 315 571 328 q 556 292 558 303 q 515 197 538 243 q 461 110 493 150 q 414 60 440 83 q 357 21 388 36 q 280 -2 319 1 q 203 5 240 -6 q 134 40 165 15 q 83 101 103 64 q 49 195 60 146 q 38 293 39 244 q 41 475 36 385 q 63 654 46 565 q 94 784 74 721 q 147 906 115 847 q 178 947 160 928 q 221 975 197 965 q 275 985 246 985 q 333 979 304 986 q 387 958 363 972 q 426 921 411 943 q 442 878 439 901 q 444 831 446 854 q 433 759 442 794 q 413 688 424 724 q 382 580 397 633 q 360 471 367 526 q 356 442 357 457 q 358 413 356 426 q 367 392 360 400 q 386 388 374 385 q 402 397 394 389 q 416 415 410 404 q 428 435 422 425 q 438 453 433 446 q 449 483 440 460 q 466 531 457 506 q 483 579 475 557 q 496 608 492 601 q 517 641 504 626 q 547 665 531 656 q 580 675 563 674 q 615 668 597 676 q 651 637 636 657 q 675 594 665 617 q 704 514 690 554 q 738 435 718 474 q 755 406 743 424 q 779 385 767 388 q 793 388 788 383 q 802 401 799 393 q 806 418 806 408 q 807 436 807 428 q 800 504 807 471 q 785 571 793 538 q 772 621 782 585 q 751 699 763 657 q 731 776 740 740 q 721 826 722 813 q 722 867 719 846 q 733 908 724 889 q 751 933 740 922 q 774 953 761 944 q 826 976 796 968 q 885 983 856 985 q 943 972 915 982 q 990 942 971 963 q 1019 903 1007 925 q 1039 858 1031 882 q 1105 605 1083 735 q 1129 344 1126 475 q 1120 219 1129 282 q 1083 101 1111 157 m 131 783 q 131 758 126 769 q 145 740 136 747 q 167 731 154 732 q 192 738 179 731 q 208 757 203 744 q 217 783 214 769 q 231 807 219 790 q 249 831 242 824 q 257 837 251 835 q 267 842 263 839 q 286 859 281 847 q 290 883 292 871 q 281 906 289 896 q 258 919 272 917 q 233 918 246 922 q 207 905 219 914 q 183 884 194 896 q 165 863 172 872 q 153 842 163 858 q 142 822 144 826 q 136 803 140 818 q 131 783 132 788 m 343 907 q 320 881 324 897 q 324 851 317 865 q 345 831 331 838 q 379 832 360 824 q 401 858 397 842 q 399 888 406 874 q 376 908 392 901 q 343 907 361 915 z "},"X":{"ha":854,"x_min":22,"x_max":829,"o":"m 656 -19 q 606 -17 632 -24 q 563 6 581 -11 q 545 29 556 11 q 524 69 535 47 q 503 109 513 90 q 489 136 493 128 q 458 188 474 163 q 426 239 443 214 q 392 186 408 213 q 361 132 376 160 q 347 106 357 124 q 326 67 338 88 q 304 28 315 46 q 286 6 293 11 q 245 -16 269 -10 q 199 -18 221 -22 q 142 -1 169 -12 q 92 28 115 11 q 56 62 72 43 q 32 104 39 81 q 31 168 22 135 q 56 232 40 201 q 89 292 71 263 q 158 402 121 349 q 231 508 194 456 q 154 608 192 558 q 81 710 117 657 q 49 763 64 735 q 29 821 33 790 q 51 921 22 876 q 92 962 67 944 q 145 989 117 979 q 203 999 174 999 q 258 986 233 999 q 278 974 269 981 q 297 960 288 967 q 367 886 335 926 q 428 806 399 846 q 476 869 451 838 q 529 928 501 900 q 563 961 546 946 q 603 986 581 976 q 660 996 629 999 q 726 982 694 994 q 781 947 757 969 q 817 895 804 925 q 828 831 829 865 q 810 766 826 797 q 775 707 794 735 q 701 606 739 656 q 624 507 663 556 q 654 462 635 490 q 696 399 674 433 q 742 326 718 364 q 784 253 765 289 q 815 188 803 218 q 826 136 826 157 q 810 81 826 107 q 769 35 794 56 q 715 0 744 14 q 656 -19 685 -14 m 164 924 q 181 891 165 904 q 215 883 196 878 q 241 900 233 888 q 247 927 249 913 q 235 953 246 942 q 207 967 225 964 q 176 956 190 969 q 164 924 163 942 m 171 650 q 199 640 185 639 q 224 652 214 642 q 238 678 235 663 q 231 708 240 693 q 222 716 228 710 q 215 725 217 722 q 207 738 213 729 q 195 758 201 747 q 183 779 189 769 q 176 793 178 789 q 173 816 172 804 q 171 839 174 828 q 156 863 167 854 q 132 871 144 871 q 108 863 119 871 q 90 840 96 856 q 88 815 86 831 q 93 783 89 800 q 103 751 97 767 q 117 728 110 736 q 141 687 131 708 q 171 650 151 665 z "},"Y":{"ha":915,"x_min":0,"x_max":921,"o":"m 532 -18 q 453 -26 493 -28 q 375 -14 413 -24 q 323 9 347 -7 q 288 50 299 25 q 274 108 275 78 q 274 167 272 138 q 287 297 276 233 q 303 428 297 361 q 268 460 285 443 q 235 493 251 476 q 160 572 197 532 q 88 651 124 611 q 47 704 65 676 q 15 763 28 732 q 2 822 4 790 q 11 882 0 854 q 63 956 28 922 q 142 1003 99 990 q 183 1008 161 1008 q 224 1001 204 1008 q 260 976 244 993 q 289 942 276 960 q 375 809 335 876 q 456 674 415 742 q 456 670 456 672 q 458 669 457 668 q 492 727 467 686 q 545 815 517 768 q 600 901 574 861 q 638 956 626 942 q 667 985 650 971 q 703 1004 683 999 q 765 1004 732 1011 q 824 979 797 997 q 867 942 847 964 q 899 896 886 921 q 913 804 921 851 q 889 737 906 769 q 850 676 872 704 q 792 609 822 642 q 731 544 763 576 q 669 481 700 513 q 604 421 638 450 q 625 211 618 318 q 627 153 628 182 q 624 96 626 125 q 615 56 621 76 q 599 21 610 36 q 569 -4 588 6 q 532 -18 551 -14 m 156 968 q 135 948 140 961 q 133 922 131 935 q 147 899 136 908 q 174 889 157 889 q 210 908 197 889 q 216 935 218 922 q 206 958 214 949 q 183 972 197 968 q 156 968 169 975 m 111 668 q 146 651 128 651 q 172 660 161 651 q 185 681 182 668 q 185 706 189 693 q 168 728 181 719 q 150 749 163 732 q 133 772 138 767 q 124 801 126 782 q 128 831 122 819 q 131 862 136 847 q 113 884 125 876 q 86 890 101 892 q 58 875 71 889 q 47 848 51 868 q 42 818 42 828 q 45 778 42 799 q 56 740 49 758 q 65 724 57 735 q 81 703 72 714 q 99 682 90 692 q 111 668 107 672 z "},"Z":{"ha":778,"x_min":24,"x_max":754,"o":"m 617 -17 q 511 -20 564 -22 q 406 -19 458 -18 q 291 -20 347 -19 q 178 -10 235 -21 q 129 5 154 -4 q 88 33 104 14 q 60 86 68 54 q 54 154 53 118 q 65 226 56 190 q 86 286 74 261 q 140 378 110 335 q 204 461 169 421 q 256 522 229 492 q 311 581 282 553 q 361 631 336 606 q 407 685 386 657 q 327 676 367 681 q 247 668 288 672 q 183 664 215 665 q 119 665 151 663 q 86 673 103 667 q 58 692 69 679 q 41 717 47 703 q 32 747 35 732 q 25 798 26 772 q 28 849 24 824 q 37 890 31 869 q 56 928 43 911 q 137 978 81 961 q 258 1001 193 994 q 387 1008 324 1008 q 492 1006 450 1007 q 533 1001 513 1004 q 574 996 554 999 q 620 985 597 992 q 663 967 643 978 q 710 918 693 947 q 729 864 724 893 q 733 807 735 835 q 710 703 729 754 q 664 606 690 653 q 590 488 629 544 q 507 374 550 431 q 491 354 503 369 q 465 321 479 339 q 439 288 451 303 q 422 267 426 272 q 516 276 469 272 q 610 278 563 279 q 666 272 638 278 q 714 247 694 267 q 740 209 731 233 q 751 158 749 185 q 752 104 754 131 q 742 57 750 78 q 724 27 735 42 q 697 4 713 13 q 658 -10 679 -7 q 617 -17 638 -14 m 293 878 q 319 873 307 871 q 340 883 332 875 q 352 905 349 892 q 350 932 356 918 q 331 952 346 946 q 303 956 317 958 q 280 942 288 953 q 271 919 272 932 q 275 895 269 907 q 293 878 281 883 m 76 760 q 92 740 81 746 q 117 736 104 735 q 140 745 129 738 q 156 768 151 753 q 156 777 156 769 q 154 794 156 785 q 153 810 153 803 q 153 821 153 818 q 158 835 154 824 q 164 849 161 846 q 181 859 167 856 q 203 865 196 863 q 228 883 221 871 q 235 910 236 896 q 224 934 235 924 q 196 947 214 944 q 177 946 189 949 q 153 938 165 943 q 130 927 140 933 q 114 917 119 921 q 79 866 90 897 q 69 804 68 835 q 72 782 71 793 q 76 760 72 771 z "},"[":{"ha":613,"x_min":57,"x_max":585,"o":"m 414 -58 q 292 -59 353 -58 q 169 -57 232 -60 q 126 -51 147 -56 q 89 -31 104 -46 q 71 6 74 -15 q 65 46 68 26 q 64 104 64 63 q 65 200 64 146 q 67 315 65 254 q 69 429 68 375 q 70 525 69 483 q 69 583 71 567 q 61 767 65 675 q 64 953 57 860 q 64 986 65 969 q 64 1019 63 1003 q 68 1041 65 1031 q 78 1058 71 1051 q 103 1074 89 1069 q 132 1081 117 1078 q 253 1088 193 1088 q 375 1089 314 1089 q 410 1089 388 1089 q 456 1087 432 1089 q 501 1081 479 1085 q 532 1069 522 1076 q 558 1030 550 1056 q 566 974 565 1004 q 563 915 567 944 q 553 863 558 885 q 546 842 550 851 q 535 826 542 833 q 510 816 524 818 q 485 814 497 814 q 433 821 458 817 q 383 815 407 825 q 365 797 372 810 q 356 772 358 785 q 354 751 354 767 q 354 718 354 736 q 355 685 354 700 q 356 664 356 669 q 356 622 356 651 q 358 553 357 592 q 360 474 358 515 q 363 394 361 432 q 366 326 364 356 q 369 283 368 296 q 374 257 371 274 q 386 236 378 240 q 414 233 393 232 q 443 235 435 233 q 494 234 468 236 q 540 215 521 232 q 572 165 564 196 q 582 106 579 135 q 584 76 583 94 q 583 38 585 58 q 579 1 582 18 q 571 -25 576 -17 q 543 -44 563 -37 q 500 -54 524 -51 q 453 -58 476 -57 q 414 -58 429 -58 m 258 1028 q 272 986 253 1001 q 317 981 292 971 q 340 1007 336 988 q 333 1043 344 1026 q 315 1058 326 1054 q 292 1060 303 1063 q 271 1049 281 1057 q 258 1028 261 1040 m 83 853 q 94 823 83 833 q 119 811 106 813 q 147 817 133 810 q 165 843 161 825 q 167 869 167 849 q 168 894 167 889 q 169 908 168 899 q 171 929 169 918 q 174 949 172 940 q 176 963 175 958 q 181 972 179 969 q 192 972 183 974 q 219 980 208 971 q 233 1002 229 989 q 231 1029 236 1015 q 213 1051 226 1043 q 187 1056 204 1057 q 160 1051 169 1054 q 143 1046 151 1049 q 128 1036 135 1043 q 110 1017 118 1026 q 99 994 103 1007 q 85 925 88 961 q 83 853 83 889 z "},"\\":{"ha":656,"x_min":8,"x_max":626,"o":"m 606 15 q 569 -11 593 0 q 516 -30 544 -22 q 460 -40 488 -37 q 413 -40 432 -43 q 386 -33 399 -37 q 363 -21 374 -29 q 315 43 331 3 q 294 97 308 58 q 263 183 281 135 q 226 287 246 232 q 190 391 207 342 q 159 478 172 440 q 140 533 146 517 q 82 691 113 613 q 28 851 51 769 q 14 910 19 879 q 18 969 8 942 q 44 1011 25 993 q 86 1040 64 1029 q 144 1065 114 1056 q 206 1078 174 1074 q 256 1083 231 1082 q 306 1078 282 1085 q 351 1051 331 1071 q 383 1008 372 1032 q 417 926 403 968 q 444 843 431 885 q 499 669 472 756 q 549 496 525 583 q 574 399 561 447 q 597 300 588 350 q 610 235 603 275 q 622 152 618 194 q 624 72 626 110 q 606 15 622 35 m 272 943 q 298 933 285 932 q 322 941 311 933 q 337 963 332 949 q 336 992 342 976 q 324 1008 333 997 q 311 1022 315 1019 q 262 1047 290 1040 q 206 1051 233 1054 q 183 1047 197 1050 q 153 1038 168 1043 q 126 1027 139 1033 q 107 1014 113 1021 q 97 987 96 1001 q 108 962 99 972 q 131 947 117 951 q 160 951 144 943 q 194 964 169 957 q 231 969 219 971 q 244 966 238 969 q 257 958 250 963 q 265 951 260 957 q 272 943 269 944 m 329 918 q 311 897 315 910 q 310 871 307 883 q 323 849 313 858 q 350 840 333 840 q 376 849 367 840 q 390 871 386 858 q 388 897 393 883 q 369 919 383 911 q 349 924 361 925 q 329 918 338 924 z "},"]":{"ha":613,"x_min":29,"x_max":557,"o":"m 482 -50 q 360 -59 421 -58 q 238 -58 300 -60 q 203 -58 225 -58 q 157 -56 181 -58 q 113 -51 133 -54 q 82 -40 92 -47 q 56 -1 64 -26 q 47 56 49 25 q 50 116 46 86 q 60 168 54 146 q 67 188 63 178 q 79 204 71 197 q 102 215 89 213 q 129 215 115 217 q 180 210 154 214 q 229 215 206 206 q 249 233 242 219 q 258 258 256 246 q 258 279 258 264 q 258 313 258 294 q 258 346 258 331 q 258 367 258 361 q 258 409 258 379 q 256 477 257 439 q 253 557 254 515 q 250 637 251 599 q 247 705 249 675 q 243 747 244 735 q 238 772 242 756 q 228 794 235 789 q 200 797 221 799 q 171 796 179 796 q 119 795 146 793 q 72 814 92 797 q 42 865 50 833 q 31 925 33 896 q 29 953 29 935 q 30 991 29 971 q 33 1029 31 1011 q 42 1056 36 1047 q 69 1075 50 1068 q 113 1085 89 1082 q 160 1088 136 1088 q 199 1088 183 1088 q 322 1090 261 1089 q 443 1088 382 1090 q 488 1081 465 1086 q 525 1060 510 1075 q 542 1025 539 1046 q 547 985 546 1004 q 549 926 549 968 q 548 831 549 885 q 546 716 547 776 q 544 601 544 656 q 542 506 543 547 q 543 447 542 464 q 553 262 549 354 q 550 78 557 169 q 550 44 549 61 q 549 10 551 26 q 544 -11 547 -1 q 535 -29 542 -21 q 510 -44 525 -40 q 482 -50 496 -47 m 260 985 q 303 985 281 972 q 321 1006 317 993 q 322 1032 325 1019 q 308 1053 318 1044 q 282 1063 297 1063 q 255 1053 265 1063 q 241 1032 244 1044 q 242 1006 238 1019 q 260 985 246 993 m 68 878 q 88 850 71 858 q 125 849 106 842 q 137 856 132 851 q 146 867 142 861 q 149 883 149 871 q 149 908 150 894 q 149 933 149 921 q 149 950 149 944 q 150 958 149 954 q 153 965 151 961 q 155 969 154 967 q 158 974 156 972 q 174 978 165 976 q 190 983 183 979 q 206 1005 203 992 q 204 1031 208 1018 q 189 1051 200 1043 q 164 1058 178 1060 q 132 1053 149 1057 q 103 1038 115 1049 q 73 988 81 1018 q 65 931 65 958 q 65 904 65 917 q 68 878 65 892 z "},"^":{"ha":678,"x_min":28,"x_max":654,"o":"m 224 533 q 188 509 208 514 q 144 510 167 504 q 98 528 121 515 q 57 558 75 542 q 35 593 42 571 q 28 639 28 615 q 38 683 28 663 q 80 767 56 728 q 132 846 104 807 q 169 895 146 867 q 221 950 193 924 q 277 994 249 976 q 331 1011 306 1013 q 369 999 350 1008 q 406 979 389 990 q 449 943 429 963 q 486 901 468 924 q 507 875 492 894 q 540 833 522 856 q 574 790 558 810 q 594 764 589 771 q 621 725 608 744 q 643 683 633 706 q 652 648 650 667 q 649 613 654 629 q 623 565 642 586 q 581 532 604 544 q 540 516 561 521 q 499 518 518 511 q 453 551 479 525 q 401 610 426 578 q 352 674 375 642 q 318 722 329 706 q 301 683 314 710 q 274 625 289 656 q 246 569 260 594 q 224 533 232 543 m 474 735 q 504 725 489 722 q 529 739 519 728 q 540 766 539 750 q 529 797 542 782 q 523 805 528 799 q 513 818 518 811 q 503 831 508 825 q 497 839 499 838 q 487 851 494 843 q 471 869 479 860 q 455 888 463 879 q 443 900 447 897 q 427 909 436 906 q 408 913 418 913 q 381 903 392 913 q 367 880 371 893 q 369 853 364 867 q 390 833 375 840 q 397 827 394 831 q 403 819 400 824 q 418 803 406 817 q 433 788 431 790 q 440 777 435 785 q 452 761 446 769 q 465 745 458 753 q 474 735 471 738 m 524 686 q 524 653 517 668 q 544 633 532 639 q 572 629 557 626 q 597 649 588 632 q 604 676 606 663 q 594 700 603 690 q 572 713 586 710 q 544 710 558 717 q 524 686 528 703 z "},"_":{"ha":671,"x_min":-75,"x_max":722,"o":"m 290 -244 q 220 -247 265 -246 q 126 -245 175 -247 q 33 -236 76 -243 q -31 -215 -10 -229 q -65 -167 -56 -199 q -74 -104 -75 -135 q -60 -49 -74 -72 q -8 -6 -43 -19 q 46 8 18 4 q 101 14 74 11 q 280 22 192 21 q 458 21 368 24 q 503 19 472 21 q 566 15 533 18 q 628 8 599 13 q 671 -4 658 3 q 708 -56 699 -22 q 719 -107 715 -81 q 715 -158 722 -133 q 704 -187 713 -174 q 683 -210 696 -201 q 656 -224 671 -219 q 626 -231 642 -228 q 598 -234 611 -232 q 571 -237 585 -236 q 517 -240 558 -239 q 431 -241 476 -240 q 344 -242 385 -242 q 290 -244 303 -243 m 229 -28 q 222 -53 218 -40 q 238 -73 226 -65 q 266 -81 250 -81 q 297 -74 282 -82 q 314 -53 310 -67 q 310 -29 318 -40 q 269 -10 296 -11 q 229 -28 243 -10 m 0 -83 q 36 -93 14 -96 q 56 -90 40 -93 q 75 -86 71 -86 q 90 -85 79 -86 q 112 -84 100 -85 q 134 -83 124 -83 q 149 -82 144 -82 q 181 -57 172 -76 q 169 -22 189 -37 q 144 -12 158 -14 q 114 -12 129 -11 q 90 -14 106 -12 q 58 -17 75 -15 q 25 -23 40 -19 q 3 -31 10 -26 q -13 -56 -12 -40 q 0 -83 -14 -72 z "},"a":{"ha":851,"x_min":25,"x_max":824,"o":"m 329 -4 q 290 -10 317 -8 q 232 -13 263 -12 q 174 -13 201 -14 q 133 -11 146 -12 q 89 -4 111 -8 q 49 15 67 0 q 31 42 36 26 q 25 74 25 58 q 36 274 26 175 q 61 474 46 374 q 98 653 76 564 q 156 825 119 742 q 197 906 174 865 q 254 974 219 946 q 310 1006 279 994 q 374 1025 342 1018 q 522 1031 446 1042 q 572 1019 547 1028 q 618 996 597 1011 q 663 948 644 976 q 696 889 682 919 q 769 658 744 778 q 806 418 793 539 q 808 376 806 407 q 814 308 811 344 q 819 240 817 272 q 822 199 822 208 q 823 162 822 185 q 822 115 824 139 q 815 68 819 90 q 803 36 811 46 q 765 12 788 19 q 721 0 743 4 q 681 -6 707 -3 q 628 -9 656 -8 q 577 -8 601 -10 q 540 1 553 -6 q 529 9 535 4 q 521 21 524 14 q 508 69 511 44 q 500 119 504 94 q 497 136 499 125 q 494 158 496 147 q 488 177 492 168 q 478 190 483 186 q 436 197 463 200 q 401 195 418 197 q 365 192 383 193 q 364 140 363 171 q 365 80 365 110 q 356 26 364 50 q 329 -4 349 3 m 403 963 q 414 923 397 939 q 454 913 431 907 q 484 940 476 918 q 476 981 492 961 q 456 994 468 990 q 433 994 444 997 q 414 983 422 992 q 403 963 406 975 m 179 747 q 206 716 185 724 q 246 724 226 708 q 256 738 253 729 q 264 756 260 747 q 293 816 279 785 q 331 871 307 847 q 338 875 332 872 q 358 897 354 883 q 358 925 363 911 q 342 947 354 939 q 311 954 329 956 q 288 944 300 953 q 265 923 276 935 q 244 898 253 911 q 229 875 235 885 q 221 858 226 871 q 208 831 215 846 q 195 804 201 817 q 186 788 189 792 q 178 767 181 778 q 179 747 176 757 m 349 432 q 374 433 356 433 q 415 433 393 433 q 456 433 438 433 q 482 432 475 432 q 483 478 483 456 q 481 525 483 501 q 475 585 478 554 q 464 643 472 615 q 444 686 457 667 q 410 694 431 706 q 390 674 399 689 q 374 640 381 658 q 363 603 368 621 q 357 572 358 585 q 348 503 350 538 q 349 432 346 468 z "},"b":{"ha":892,"x_min":46,"x_max":861,"o":"m 597 -1 q 449 -21 524 -17 q 299 -21 374 -25 q 278 -19 293 -21 q 244 -17 263 -18 q 211 -15 226 -17 q 190 -14 196 -14 q 136 -12 164 -14 q 90 10 108 -10 q 75 37 81 18 q 72 67 69 56 q 72 78 72 71 q 70 94 71 86 q 68 110 69 103 q 67 122 67 118 q 49 433 51 278 q 50 743 46 588 q 53 823 51 783 q 61 901 54 863 q 71 940 64 921 q 90 975 78 960 q 128 1002 106 993 q 174 1014 150 1011 q 230 1019 201 1017 q 286 1019 258 1022 q 319 1015 303 1018 q 350 1000 336 1011 q 367 979 361 992 q 376 953 372 967 q 476 1000 425 986 q 581 1012 526 1013 q 685 992 636 1011 q 765 940 729 974 q 824 867 801 907 q 856 763 850 817 q 847 660 861 710 q 800 567 833 610 q 717 499 767 525 q 763 473 740 488 q 803 439 786 458 q 854 324 843 388 q 858 260 861 292 q 846 197 856 228 q 814 130 835 161 q 765 74 793 99 q 688 25 732 42 q 597 -1 643 8 m 435 940 q 428 910 425 925 q 440 887 431 896 q 465 875 450 878 q 494 882 479 872 q 511 890 500 886 q 535 895 522 893 q 559 899 547 897 q 578 899 571 900 q 598 894 582 899 q 618 890 614 890 q 655 912 643 890 q 653 954 667 933 q 646 964 650 960 q 636 969 642 968 q 587 981 613 978 q 536 979 561 985 q 522 978 533 979 q 507 975 510 976 q 490 969 499 972 q 472 964 482 965 q 435 940 449 961 m 672 867 q 696 829 672 840 q 740 833 719 818 q 756 872 758 849 q 732 906 753 894 q 692 903 711 915 q 672 867 672 890 m 381 624 q 406 610 390 614 q 438 607 421 607 q 471 611 454 607 q 500 621 488 615 q 538 656 526 633 q 548 703 550 679 q 530 747 546 728 q 485 771 514 767 q 465 772 478 772 q 440 771 453 772 q 416 767 428 769 q 399 761 404 765 q 384 738 389 754 q 377 701 379 721 q 374 662 375 681 q 374 631 374 643 q 381 624 374 626 m 369 254 q 413 247 389 244 q 457 254 436 249 q 492 267 475 260 q 521 289 510 274 q 532 341 536 310 q 510 392 528 372 q 472 415 494 408 q 428 424 450 422 q 400 424 414 425 q 375 413 386 422 q 367 388 368 406 q 367 360 367 369 q 367 308 367 333 q 369 254 368 282 z "},"c":{"ha":792,"x_min":25,"x_max":760,"o":"m 451 -22 q 327 -11 389 -26 q 213 36 265 4 q 127 108 164 64 q 68 201 90 151 q 40 300 47 249 q 29 403 32 351 q 31 540 25 471 q 54 676 36 610 q 98 801 71 740 q 169 911 125 863 q 243 972 201 947 q 331 1011 285 997 q 444 1025 385 1026 q 557 1007 503 1024 q 649 959 606 992 q 719 882 693 926 q 739 837 732 861 q 750 789 746 813 q 756 738 754 764 q 757 686 758 713 q 755 649 757 667 q 746 614 753 631 q 714 583 738 593 q 668 568 690 572 q 636 564 657 565 q 592 563 615 563 q 547 563 568 563 q 517 568 526 564 q 496 582 501 574 q 488 603 492 588 q 481 635 483 618 q 476 669 478 653 q 472 693 474 685 q 469 706 471 700 q 464 719 468 713 q 433 730 453 735 q 399 711 414 725 q 372 674 381 694 q 337 526 342 604 q 347 375 332 449 q 354 349 349 364 q 367 318 360 333 q 384 291 375 303 q 403 275 393 279 q 435 278 418 268 q 463 303 453 289 q 476 327 471 314 q 486 353 481 340 q 499 376 492 365 q 517 396 506 388 q 556 410 529 406 q 611 415 582 414 q 668 414 640 415 q 713 410 696 413 q 724 408 718 408 q 733 404 729 407 q 752 375 746 394 q 759 333 758 356 q 758 288 760 310 q 753 249 756 265 q 738 185 747 217 q 710 125 728 153 q 672 75 694 97 q 624 35 650 53 q 541 -5 586 10 q 451 -22 496 -19 m 374 933 q 392 899 374 910 q 433 896 411 888 q 457 924 453 903 q 449 961 461 944 q 426 975 439 972 q 402 974 414 978 q 382 959 390 969 q 374 933 374 949 m 172 825 q 203 794 179 800 q 244 807 226 789 q 253 822 251 814 q 260 836 254 829 q 290 863 274 851 q 325 879 306 874 q 347 893 339 883 q 357 915 356 903 q 353 938 358 926 q 336 957 349 949 q 319 963 329 963 q 300 960 310 963 q 273 949 289 957 q 241 929 257 940 q 211 906 225 918 q 192 885 197 894 q 176 856 183 871 q 172 825 169 840 z "},"d":{"ha":903,"x_min":44,"x_max":881,"o":"m 528 8 q 387 -20 458 -12 q 244 -21 315 -28 q 192 -16 218 -18 q 143 -6 167 -14 q 92 36 108 8 q 79 74 85 51 q 64 180 68 126 q 57 286 60 233 q 47 507 50 397 q 47 726 44 617 q 49 778 47 744 q 53 848 50 811 q 63 917 57 885 q 79 963 68 949 q 109 988 90 978 q 147 1001 128 997 q 190 1006 164 1004 q 243 1007 215 1008 q 296 1001 271 1006 q 333 986 321 996 q 351 963 344 976 q 361 933 358 949 q 371 939 364 935 q 385 948 378 943 q 399 956 393 953 q 408 961 406 960 q 496 993 449 983 q 589 996 543 1003 q 656 978 624 992 q 715 943 688 964 q 790 867 758 911 q 842 772 822 822 q 870 669 861 722 q 879 563 879 615 q 869 430 881 496 q 836 301 857 364 q 753 156 810 222 q 650 67 708 104 q 528 8 592 29 m 411 926 q 395 906 399 918 q 396 881 392 893 q 410 859 400 868 q 436 851 421 850 q 457 857 447 851 q 478 865 467 863 q 519 874 497 872 q 561 871 542 876 q 592 860 576 867 q 624 858 608 853 q 644 873 638 863 q 651 895 651 883 q 645 918 651 907 q 626 936 639 929 q 517 956 578 958 q 411 926 457 954 m 658 818 q 687 787 664 794 q 726 794 710 779 q 742 832 744 810 q 719 865 740 854 q 695 869 707 871 q 674 860 683 867 q 660 842 665 853 q 658 818 656 831 m 401 336 q 453 344 429 332 q 497 376 478 356 q 530 425 517 397 q 550 481 543 453 q 560 551 558 515 q 551 622 561 588 q 536 664 544 643 q 513 700 528 685 q 479 713 500 711 q 442 707 458 714 q 383 663 406 693 q 360 596 361 632 q 360 551 360 585 q 361 480 360 518 q 364 408 363 442 q 365 364 365 375 q 371 354 365 360 q 379 346 376 349 q 401 336 386 339 z "},"e":{"ha":801,"x_min":33,"x_max":776,"o":"m 351 -7 q 296 -5 324 -7 q 240 4 268 -3 q 133 60 179 18 q 68 160 88 101 q 40 289 47 222 q 35 422 33 356 q 42 549 38 486 q 53 674 46 611 q 69 779 60 726 q 94 882 79 832 q 116 938 104 910 q 149 986 128 967 q 190 1010 167 1001 q 238 1021 214 1018 q 307 1022 272 1024 q 376 1017 342 1021 q 436 1010 407 1014 q 494 1004 465 1006 q 557 1006 526 1003 q 619 1008 588 1008 q 670 1008 644 1010 q 718 994 696 1006 q 769 936 757 976 q 776 885 776 911 q 769 832 775 858 q 753 776 764 804 q 719 731 743 747 q 669 713 697 715 q 617 713 642 710 q 554 721 585 715 q 492 729 524 726 q 451 730 478 731 q 415 721 425 729 q 410 715 413 718 q 406 708 408 711 q 395 672 399 694 q 400 638 392 649 q 420 624 406 628 q 451 618 435 619 q 485 617 468 617 q 513 619 501 618 q 571 624 542 622 q 629 624 600 626 q 660 619 644 622 q 688 606 676 615 q 702 583 697 597 q 708 550 707 568 q 708 515 710 532 q 703 485 706 497 q 688 448 699 465 q 661 421 678 431 q 593 403 631 403 q 521 410 556 404 q 474 420 497 413 q 425 431 450 428 q 406 431 415 432 q 389 425 396 431 q 371 388 374 414 q 372 342 368 361 q 386 311 375 322 q 402 303 393 306 q 419 300 411 301 q 544 299 479 290 q 594 306 569 301 q 643 313 618 311 q 674 310 658 313 q 704 300 690 307 q 739 254 729 285 q 748 208 746 232 q 750 161 750 185 q 747 119 750 143 q 738 74 744 96 q 719 33 731 51 q 690 8 708 15 q 662 1 676 3 q 632 0 647 0 q 574 0 603 -1 q 515 3 544 1 q 433 0 475 4 q 351 -7 392 -4 m 131 846 q 149 819 135 826 q 177 815 163 813 q 203 828 192 817 q 214 858 214 839 q 221 882 214 868 q 236 901 228 896 q 247 905 239 903 q 257 906 254 907 q 294 919 279 903 q 303 958 308 936 q 287 983 300 974 q 258 990 274 992 q 220 984 239 989 q 186 968 201 979 q 163 944 174 960 q 143 912 151 929 q 131 877 135 894 q 131 846 128 860 m 353 972 q 338 951 340 964 q 338 925 335 938 q 352 904 342 913 q 378 896 363 896 q 403 903 393 896 q 418 923 414 911 q 419 947 422 935 q 406 971 417 960 q 380 980 396 981 q 353 972 364 979 z "},"f":{"ha":686,"x_min":49,"x_max":671,"o":"m 286 -11 q 263 -13 279 -12 q 229 -15 247 -14 q 194 -17 211 -17 q 171 -15 178 -17 q 149 -12 163 -15 q 120 -6 135 -10 q 93 4 106 -1 q 75 15 81 10 q 63 38 65 25 q 60 65 61 51 q 56 134 57 86 q 53 244 54 182 q 51 375 51 307 q 49 506 50 443 q 49 616 49 568 q 49 685 49 664 q 53 764 50 725 q 63 843 56 803 q 80 907 69 875 q 114 961 90 939 q 158 984 133 978 q 208 993 183 990 q 271 995 225 994 q 369 995 317 996 q 468 994 422 994 q 531 993 514 993 q 574 992 553 993 q 615 979 596 990 q 643 953 632 969 q 661 917 654 936 q 669 870 667 897 q 667 815 671 843 q 656 760 664 786 q 635 721 647 735 q 592 693 619 703 q 549 686 571 686 q 504 689 526 686 q 468 695 486 692 q 431 700 450 699 q 408 699 419 700 q 386 692 396 699 q 367 667 371 683 q 363 650 364 660 q 360 629 361 640 q 360 608 360 618 q 365 593 361 599 q 388 581 371 585 q 414 576 404 578 q 479 577 446 574 q 546 578 513 581 q 569 573 557 576 q 592 563 582 569 q 617 526 610 550 q 624 485 622 510 q 624 433 626 460 q 615 382 621 407 q 599 343 608 357 q 555 312 583 321 q 500 303 526 303 q 470 306 489 303 q 432 311 451 310 q 396 311 413 313 q 372 301 379 310 q 360 250 361 289 q 360 167 358 211 q 364 84 363 124 q 360 28 365 44 q 338 4 354 14 q 313 -6 326 -3 q 286 -11 300 -8 m 297 949 q 277 928 282 942 q 275 902 272 915 q 288 879 278 889 q 315 869 299 869 q 351 889 339 869 q 358 917 360 903 q 347 940 356 931 q 325 952 339 949 q 297 949 311 956 m 83 779 q 99 755 88 763 q 124 747 110 747 q 149 755 138 747 q 164 779 160 763 q 166 793 165 782 q 167 807 167 804 q 172 821 168 810 q 176 835 176 832 q 191 856 181 846 q 214 869 201 867 q 240 888 232 874 q 246 916 247 901 q 233 942 244 931 q 204 951 222 953 q 173 942 189 950 q 142 924 157 935 q 117 899 128 913 q 101 871 106 885 q 93 847 99 865 q 86 825 88 829 q 82 801 83 818 q 83 779 81 785 z "},"g":{"ha":839,"x_min":24,"x_max":814,"o":"m 590 11 q 451 -6 522 -8 q 310 11 379 -4 q 220 48 263 22 q 146 110 178 74 q 68 240 96 167 q 31 389 40 314 q 24 497 24 442 q 33 606 25 551 q 68 735 44 672 q 128 853 92 797 q 181 918 151 888 q 246 969 210 949 q 331 1003 286 992 q 419 1017 375 1014 q 491 1019 456 1019 q 561 1008 526 1018 q 635 978 600 999 q 697 928 669 957 q 745 863 725 899 q 774 789 765 828 q 778 738 778 764 q 768 688 779 711 q 737 649 757 665 q 693 622 717 633 q 639 606 668 611 q 582 603 610 600 q 549 612 565 606 q 524 632 532 618 q 510 668 514 649 q 494 703 507 688 q 463 721 483 717 q 424 719 442 725 q 397 703 408 714 q 375 679 385 692 q 350 620 357 651 q 340 557 343 589 q 356 358 332 457 q 370 326 361 342 q 393 300 379 311 q 470 274 426 272 q 540 310 514 276 q 546 320 543 313 q 551 336 549 328 q 555 351 553 344 q 557 363 557 358 q 558 369 557 365 q 558 376 558 374 q 549 383 556 381 q 539 386 543 385 q 505 394 522 392 q 471 404 488 397 q 442 426 453 411 q 426 458 431 440 q 426 494 422 475 q 443 528 431 513 q 466 547 453 539 q 493 558 479 554 q 535 565 514 564 q 576 568 556 567 q 673 565 624 571 q 763 532 722 558 q 798 488 786 517 q 811 429 810 458 q 811 322 814 376 q 793 215 808 267 q 772 156 785 185 q 739 104 758 128 q 672 47 711 71 q 590 11 633 24 m 343 947 q 344 909 333 928 q 378 888 356 890 q 403 892 392 885 q 419 909 414 899 q 423 932 424 919 q 414 956 422 944 q 376 971 399 974 q 343 947 354 968 m 121 713 q 149 682 126 689 q 190 693 172 675 q 201 714 201 704 q 213 750 204 733 q 229 783 222 767 q 238 793 232 786 q 247 803 244 800 q 265 825 256 814 q 285 843 274 836 q 299 853 292 847 q 310 865 306 858 q 313 890 315 878 q 303 911 311 903 q 282 923 294 919 q 256 922 269 926 q 241 913 250 919 q 222 899 232 907 q 205 883 213 890 q 193 871 197 875 q 178 853 186 861 q 164 836 171 844 q 156 821 161 832 q 144 797 150 810 q 132 772 138 783 q 125 754 126 760 q 120 734 122 744 q 121 713 118 724 z "},"h":{"ha":910,"x_min":47,"x_max":860,"o":"m 822 24 q 774 -6 804 4 q 708 -19 743 -15 q 640 -19 674 -22 q 581 -8 606 -17 q 555 3 567 -4 q 536 22 543 10 q 526 53 528 36 q 524 86 525 71 q 522 128 524 97 q 519 195 521 160 q 518 261 518 231 q 518 303 518 292 q 448 302 482 303 q 379 301 414 301 q 383 185 382 243 q 365 74 383 128 q 292 1 349 19 q 196 -8 247 -12 q 143 -2 169 -7 q 96 18 117 3 q 72 45 81 29 q 60 79 63 61 q 54 132 56 106 q 53 186 53 158 q 54 343 51 265 q 60 500 57 421 q 58 594 61 547 q 53 688 56 640 q 49 781 50 735 q 50 874 47 828 q 54 909 51 892 q 67 942 57 926 q 88 967 75 957 q 115 983 100 976 q 171 1001 142 996 q 229 1006 200 1006 q 276 1002 253 1006 q 319 989 299 999 q 347 974 335 982 q 368 953 360 965 q 388 906 382 931 q 397 854 394 881 q 401 694 407 775 q 397 532 394 614 q 464 537 431 536 q 532 536 497 538 q 531 584 531 549 q 531 660 531 619 q 531 735 531 700 q 532 783 532 771 q 533 825 532 797 q 537 883 535 853 q 543 939 539 913 q 554 976 547 965 q 583 999 563 990 q 626 1013 603 1008 q 672 1019 649 1018 q 713 1019 696 1021 q 776 1006 744 1017 q 829 972 808 996 q 854 922 849 951 q 858 864 860 892 q 857 801 858 832 q 856 739 856 771 q 858 566 858 651 q 858 393 858 481 q 856 251 857 322 q 850 110 854 181 q 842 63 847 86 q 822 24 838 40 m 249 894 q 269 885 258 886 q 291 888 281 883 q 309 901 301 892 q 318 922 317 910 q 304 959 321 944 q 265 968 288 974 q 244 956 253 965 q 233 936 236 947 q 234 914 231 925 q 249 894 238 903 m 81 750 q 99 726 83 735 q 129 719 114 717 q 156 738 147 722 q 163 772 165 753 q 162 785 163 776 q 161 805 161 794 q 162 825 161 815 q 164 839 163 835 q 170 854 165 844 q 178 867 175 864 q 201 897 197 879 q 196 928 204 914 q 172 947 188 942 q 136 940 156 953 q 110 916 121 931 q 93 886 100 901 q 76 811 76 853 q 76 799 76 808 q 77 781 76 790 q 78 763 78 771 q 81 750 79 754 z "},"i":{"ha":449,"x_min":44,"x_max":410,"o":"m 267 -12 q 183 -12 225 -15 q 153 -8 168 -11 q 124 1 138 -6 q 93 38 104 14 q 83 73 86 54 q 76 110 79 92 q 74 134 75 115 q 71 157 72 153 q 48 356 51 256 q 46 557 44 457 q 47 643 46 585 q 53 765 49 701 q 65 883 57 828 q 86 964 72 939 q 124 993 97 986 q 172 1003 147 1001 q 222 1007 197 1006 q 275 1006 249 1007 q 326 1001 301 1006 q 358 994 342 999 q 385 981 374 990 q 401 957 396 971 q 407 929 407 943 q 403 838 410 883 q 393 746 397 792 q 381 491 382 618 q 389 235 381 364 q 393 188 390 218 q 397 124 396 157 q 394 63 397 92 q 382 19 392 33 q 347 -3 371 4 q 308 -10 328 -8 q 267 -12 288 -12 m 251 917 q 268 890 256 897 q 295 884 281 882 q 321 897 310 886 q 335 926 332 907 q 324 956 338 944 q 294 969 311 967 q 260 954 274 972 q 251 917 246 936 m 83 817 q 91 793 83 803 q 109 778 99 783 q 131 775 119 774 q 153 786 143 776 q 165 808 164 797 q 167 824 165 814 q 169 844 168 833 q 174 863 171 854 q 181 876 176 872 q 192 881 183 879 q 203 885 200 883 q 228 903 221 890 q 235 929 236 915 q 224 954 235 943 q 196 968 214 965 q 169 963 189 969 q 143 953 150 956 q 126 941 138 950 q 113 928 115 932 q 99 899 104 914 q 88 868 93 883 q 85 842 86 861 q 83 817 83 824 z "},"j":{"ha":813,"x_min":3,"x_max":774,"o":"m 510 -19 q 344 -37 431 -43 q 182 -1 258 -32 q 114 34 146 14 q 54 81 82 54 q 28 110 40 94 q 10 144 17 125 q 8 193 3 168 q 24 238 13 218 q 97 318 49 285 q 130 336 113 329 q 165 338 147 343 q 215 308 193 331 q 261 271 238 286 q 310 255 285 256 q 358 265 336 254 q 399 295 381 275 q 425 342 417 315 q 446 471 443 404 q 444 581 449 526 q 434 692 440 636 q 424 802 428 747 q 422 911 419 857 q 429 951 424 931 q 450 982 435 971 q 485 995 461 990 q 537 1003 510 1000 q 589 1008 564 1006 q 628 1010 614 1010 q 676 1009 651 1011 q 721 992 701 1007 q 746 956 739 978 q 756 910 753 933 q 758 867 757 897 q 762 797 760 836 q 765 713 764 757 q 769 630 767 669 q 772 559 771 590 q 772 515 772 528 q 760 328 774 422 q 711 147 747 233 q 639 47 688 88 q 578 8 611 24 q 510 -19 544 -8 m 583 946 q 602 909 582 922 q 643 907 622 896 q 667 940 664 917 q 651 978 671 963 q 630 987 642 986 q 608 983 618 988 q 590 968 597 978 q 583 946 583 958 m 458 728 q 488 697 465 704 q 529 708 511 690 q 540 729 539 718 q 540 758 542 738 q 538 801 539 778 q 535 844 536 824 q 538 872 535 865 q 545 883 539 875 q 553 893 551 890 q 558 919 561 906 q 547 941 556 932 q 526 953 539 950 q 499 950 513 957 q 485 941 490 947 q 474 928 479 935 q 463 910 467 919 q 456 890 458 901 q 451 847 449 869 q 454 803 453 825 q 455 788 454 799 q 456 765 456 778 q 458 742 457 753 q 458 728 458 732 z "},"k":{"ha":914,"x_min":40,"x_max":900,"o":"m 336 -21 q 244 -24 290 -26 q 153 -10 197 -22 q 119 6 132 -4 q 99 36 107 17 q 78 99 85 67 q 65 164 72 132 l 65 172 q 65 176 67 175 q 64 179 64 176 q 42 421 44 300 q 49 663 40 542 q 59 783 53 724 q 78 900 65 842 q 88 946 82 924 q 107 988 94 968 q 132 1013 117 1003 q 164 1028 147 1022 q 249 1035 206 1039 q 335 1024 293 1032 q 380 1012 357 1019 q 415 986 403 1004 q 430 943 429 967 q 428 897 431 919 q 417 768 424 832 q 406 639 410 704 q 429 668 413 647 q 467 716 446 689 q 513 773 489 743 q 558 830 536 803 q 596 878 579 857 q 619 907 613 899 q 651 940 635 924 q 686 965 667 956 q 729 974 707 978 q 780 954 754 971 q 828 914 806 938 q 868 863 851 890 q 892 811 885 835 q 892 746 900 778 q 866 695 883 718 q 829 653 849 672 q 776 604 804 628 q 722 556 749 581 l 656 489 q 722 401 692 446 q 783 311 751 356 q 795 295 786 307 q 815 270 804 283 q 834 244 825 257 q 846 228 843 232 q 866 197 857 213 q 874 163 875 181 q 867 131 874 146 q 850 101 860 115 q 807 50 832 74 q 754 13 782 26 q 697 -1 726 -1 q 640 19 667 0 q 613 45 625 31 q 589 75 600 60 q 508 201 544 136 q 436 332 472 265 q 412 314 424 322 q 388 296 400 306 q 394 244 389 281 q 406 165 400 207 q 414 87 411 124 q 414 35 417 50 q 390 -4 410 8 q 365 -16 379 -12 q 336 -21 350 -19 m 264 931 q 289 916 275 918 q 315 919 303 914 q 335 938 328 925 q 338 967 342 950 q 327 986 335 978 q 308 997 319 994 q 281 997 293 1003 q 261 981 268 992 q 254 957 254 971 q 264 931 254 943 m 86 732 q 116 701 93 708 q 157 713 139 694 q 164 723 160 715 q 168 733 168 731 q 169 747 168 738 q 172 767 171 757 q 175 788 174 778 q 176 800 176 797 q 181 822 179 811 q 188 844 183 833 q 197 863 189 851 q 201 873 200 868 q 207 881 203 878 q 233 917 229 893 q 218 956 238 940 q 174 960 197 972 q 135 926 151 947 q 128 913 131 919 q 121 899 125 906 q 109 872 114 886 q 101 842 104 857 q 97 819 100 835 q 90 787 93 804 q 86 754 88 769 q 86 732 85 739 z "},"l":{"ha":700,"x_min":46,"x_max":690,"o":"m 457 -25 q 299 -25 378 -29 q 226 -18 263 -22 q 158 0 190 -14 q 124 20 140 8 q 97 47 108 32 q 72 94 81 68 q 60 147 64 121 q 52 254 50 200 q 53 363 54 308 q 48 523 50 443 q 47 683 46 603 q 51 783 49 733 q 60 883 53 833 q 67 930 63 907 q 82 975 71 953 q 108 1003 92 994 q 141 1015 124 1011 q 176 1019 158 1018 q 229 1022 199 1021 q 290 1018 260 1022 q 344 1004 319 1014 q 379 975 368 994 q 386 940 385 964 q 387 889 388 915 q 383 838 386 863 q 379 801 381 814 q 374 749 378 783 q 367 670 371 714 q 360 578 364 626 q 355 488 357 531 q 353 410 353 444 q 357 358 353 375 q 363 339 360 349 q 375 322 367 329 q 395 315 383 315 q 418 315 407 315 q 501 324 460 317 q 582 328 542 331 q 613 324 597 326 q 643 313 629 322 q 658 292 651 307 q 668 261 664 278 q 675 228 672 244 q 679 201 678 211 q 682 181 681 196 q 685 151 683 167 q 689 120 688 135 q 690 100 690 106 q 685 64 690 82 q 669 33 681 46 q 644 14 658 21 q 615 1 631 7 q 538 -17 578 -12 q 457 -25 497 -22 m 282 989 q 254 969 261 985 q 251 939 247 954 q 269 914 256 924 q 303 908 282 904 q 331 928 324 913 q 333 958 338 943 q 316 983 329 974 q 282 989 303 993 m 79 765 q 103 737 83 744 q 142 740 122 729 q 160 771 157 750 q 167 811 164 792 q 172 840 167 818 q 181 868 178 861 q 199 893 186 883 q 214 918 211 903 q 201 960 219 943 q 157 968 182 976 q 147 961 153 967 q 136 949 142 956 q 125 937 131 943 q 118 928 119 931 q 108 908 114 921 q 98 879 103 894 q 90 850 93 864 q 85 829 86 836 q 83 817 85 825 q 81 798 82 808 q 78 778 79 788 q 79 765 78 769 z "},"m":{"ha":1107,"x_min":43,"x_max":1064,"o":"m 299 7 q 245 -1 276 3 q 181 -3 214 -4 q 121 6 149 -1 q 79 29 93 13 q 67 51 71 39 q 60 75 63 64 q 50 132 53 103 q 46 190 47 161 q 44 283 43 236 q 46 375 44 329 q 49 526 47 451 q 57 678 50 601 q 65 767 60 722 q 81 856 69 811 q 88 883 83 869 q 99 911 92 897 q 108 932 101 915 q 118 953 115 949 q 158 982 132 972 q 215 993 185 992 q 274 990 244 994 q 328 976 304 985 q 368 947 353 968 q 398 897 388 924 q 415 842 408 869 q 430 788 424 815 q 444 735 436 761 q 462 683 451 708 q 488 635 472 657 q 512 609 499 621 q 542 594 525 597 q 571 601 556 592 q 599 624 586 610 q 624 654 613 638 q 642 683 635 671 q 691 791 671 736 q 731 903 711 846 q 744 936 736 919 q 765 964 751 953 q 810 988 783 979 q 865 998 836 996 q 921 994 893 1000 q 968 976 949 989 q 1001 942 988 964 q 1021 899 1014 921 q 1045 802 1038 851 q 1057 704 1053 753 q 1063 569 1063 636 q 1063 435 1064 501 q 1061 308 1061 371 q 1058 183 1061 246 q 1053 120 1056 151 q 1040 60 1051 89 q 1010 20 1032 38 q 965 0 989 3 q 947 -1 961 -1 q 919 -1 933 -1 q 890 -1 904 -1 q 872 0 876 0 q 821 6 847 1 q 775 26 794 10 q 756 58 761 39 q 750 96 750 76 q 752 291 747 193 q 747 486 757 389 q 731 422 742 454 q 714 374 725 404 q 690 313 703 344 q 660 256 676 282 q 628 221 644 229 q 615 216 624 218 q 595 211 606 214 q 574 206 585 208 q 560 204 564 204 q 524 203 542 203 q 489 207 507 203 q 454 224 469 213 q 426 250 439 236 q 376 338 393 289 q 340 433 358 386 q 343 394 340 422 q 349 331 346 367 q 354 256 351 296 q 360 181 357 217 q 364 118 363 146 q 365 79 365 90 q 365 63 365 71 q 363 47 365 54 q 344 22 358 31 q 322 13 333 15 q 299 7 310 10 m 240 890 q 271 880 253 878 q 301 894 289 882 q 310 924 313 907 q 296 954 308 942 q 266 964 283 967 q 236 949 249 961 q 226 920 224 938 q 240 890 229 903 m 104 679 q 133 649 110 656 q 174 660 156 642 q 185 679 185 671 q 187 734 188 707 q 196 785 186 761 q 206 813 201 799 q 217 838 210 826 q 221 861 224 849 q 210 884 219 875 q 190 897 201 893 q 167 897 179 900 q 144 883 154 893 q 135 867 140 879 q 126 843 131 856 q 119 819 122 831 q 114 801 115 807 q 109 776 111 793 q 105 740 107 758 q 102 704 103 721 q 104 679 101 688 z "},"n":{"ha":925,"x_min":47,"x_max":889,"o":"m 271 1 q 215 -9 243 -6 q 160 -6 188 -12 q 94 31 119 3 q 72 67 81 46 q 61 108 64 88 q 57 146 58 128 q 54 183 56 164 q 48 358 49 271 q 47 532 47 444 q 50 651 49 592 q 56 769 51 710 q 56 785 56 774 q 58 810 57 797 q 61 835 60 824 q 63 851 63 847 q 63 866 63 856 q 65 888 64 876 q 66 909 65 899 q 68 924 67 919 q 93 960 75 944 q 131 983 111 975 q 165 991 140 988 q 218 997 190 994 q 271 999 246 999 q 307 1000 296 1000 q 344 996 325 1000 q 376 979 363 992 q 404 940 394 964 q 422 893 414 917 q 496 690 458 790 q 582 493 533 589 q 580 602 579 547 q 583 711 581 657 q 588 769 585 732 q 595 848 590 807 q 609 924 600 889 q 632 975 618 960 q 670 999 647 993 q 717 1007 693 1004 q 772 1007 744 1010 q 824 996 799 1004 q 856 979 840 989 q 879 954 871 969 q 888 907 888 939 q 885 840 889 875 q 877 771 882 804 q 871 721 872 738 q 868 680 869 708 q 865 615 867 651 q 863 538 864 579 q 862 460 863 497 q 860 395 861 424 q 860 354 860 367 q 862 265 861 310 q 858 174 863 219 q 851 117 856 146 q 835 63 846 89 q 814 31 826 46 q 783 8 801 15 q 739 -4 763 -1 q 692 -10 715 -7 q 626 -6 660 -11 q 565 19 593 0 q 542 42 551 28 q 525 69 533 56 q 432 260 469 161 q 349 456 394 360 q 353 333 351 393 q 356 211 356 274 q 356 167 356 194 q 353 113 356 140 q 346 60 351 85 q 329 25 340 36 q 302 10 318 14 q 271 1 286 6 m 229 910 q 247 884 235 892 q 274 878 260 876 q 299 890 288 879 q 313 919 310 900 q 303 949 315 938 q 272 963 290 960 q 238 947 253 965 q 229 910 222 929 m 94 675 q 106 645 94 656 q 131 633 117 635 q 159 638 146 631 q 176 664 172 646 q 178 690 179 671 q 176 715 176 708 q 176 744 175 726 q 178 782 176 763 q 185 819 181 801 q 196 844 189 836 q 205 874 207 858 q 192 899 203 889 q 166 912 182 910 q 136 903 150 914 q 122 885 126 896 q 113 864 117 875 q 96 793 99 831 q 92 722 92 757 q 94 699 93 711 q 94 675 94 686 z "},"o":{"ha":900,"x_min":19,"x_max":876,"o":"m 533 -15 q 372 -17 454 -31 q 219 35 290 -3 q 160 81 188 54 q 111 139 132 107 q 61 238 81 185 q 33 346 42 290 q 26 522 19 433 q 61 694 33 611 q 106 797 79 747 q 169 890 133 847 q 243 958 201 928 q 332 1007 285 989 q 439 1028 383 1026 q 547 1018 494 1031 q 696 949 628 999 q 806 828 764 899 q 858 699 842 768 q 875 561 874 631 q 850 344 876 453 q 764 143 824 235 q 664 42 725 85 q 533 -15 603 0 m 411 882 q 436 881 424 878 q 457 892 449 883 q 469 912 465 900 q 468 936 472 924 q 445 963 461 957 q 415 965 429 969 q 390 947 400 961 q 385 911 381 932 q 394 893 388 901 q 411 882 401 885 m 139 708 q 156 683 143 690 q 183 676 169 675 q 208 688 197 678 q 221 718 219 699 q 231 748 222 733 q 250 776 240 763 q 262 796 257 786 q 275 813 267 806 q 281 818 278 815 q 288 824 285 821 q 313 841 299 835 q 339 857 326 847 q 356 883 354 868 q 349 911 357 899 q 327 930 342 924 q 296 928 313 936 q 213 868 249 907 q 201 853 208 864 q 184 828 193 842 q 167 803 175 815 q 157 786 160 792 q 148 765 154 782 q 139 740 142 747 q 137 725 138 733 q 139 708 136 717 m 425 293 q 469 294 449 286 q 511 326 494 303 q 539 374 528 350 q 558 444 551 403 q 565 526 565 485 q 553 605 564 568 q 519 664 542 642 q 471 688 499 683 q 419 681 443 693 q 388 653 400 671 q 368 615 375 635 q 353 556 357 588 q 349 494 350 525 q 352 438 349 469 q 364 376 356 406 q 387 324 372 347 q 425 293 401 301 z "},"p":{"ha":800,"x_min":49,"x_max":785,"o":"m 308 3 q 233 -12 272 -8 q 158 -11 193 -15 q 133 -7 147 -10 q 103 1 118 -4 q 78 13 89 6 q 63 31 67 21 q 56 66 58 40 q 51 120 53 92 q 50 174 50 149 q 50 211 50 200 q 49 283 49 233 q 49 397 49 333 q 51 531 50 461 q 53 665 51 601 q 56 779 54 729 q 61 851 58 829 q 69 900 64 875 q 83 949 74 925 q 99 974 90 961 q 119 993 107 986 q 185 1016 150 1013 q 257 1021 221 1019 q 402 1018 329 1025 q 544 986 475 1011 q 674 911 618 960 q 713 867 696 892 q 744 815 731 843 q 785 640 785 735 q 746 465 785 546 q 674 367 719 411 q 572 301 629 322 q 457 283 518 281 q 340 301 396 285 q 342 242 340 271 q 346 182 343 213 q 349 147 347 169 q 351 101 350 125 q 349 56 351 78 q 342 24 347 33 q 327 10 336 15 q 308 3 318 6 m 493 879 q 528 878 513 871 q 550 899 543 885 q 553 930 557 914 q 531 956 549 946 q 514 963 528 958 q 496 968 500 967 q 453 976 475 974 q 410 981 432 978 q 376 985 393 982 q 343 981 358 988 q 323 960 328 974 q 322 933 318 946 q 336 910 325 919 q 364 901 347 900 q 392 900 374 901 q 430 895 410 899 q 467 888 450 892 q 493 879 485 883 m 568 842 q 595 810 574 818 q 636 817 617 801 q 651 855 654 832 q 628 889 649 878 q 583 884 604 900 q 568 842 563 868 m 343 579 q 379 569 358 572 q 420 569 400 567 q 458 578 440 571 q 488 599 476 586 q 508 665 511 625 q 482 732 506 706 q 443 760 467 750 q 396 774 419 771 q 376 774 386 775 q 358 765 365 772 q 351 752 353 760 q 347 736 349 744 q 341 658 340 697 q 343 579 342 619 z "},"q":{"ha":918,"x_min":19,"x_max":900,"o":"m 792 -104 q 760 -119 776 -111 q 728 -125 744 -126 q 698 -113 713 -124 q 674 -90 683 -103 q 642 -40 656 -67 q 617 14 629 -14 q 507 -19 565 -11 q 392 -19 449 -26 q 303 -1 347 -14 q 219 35 260 13 q 160 81 188 54 q 111 139 132 107 q 61 238 81 185 q 33 346 42 290 q 26 522 19 433 q 61 694 33 611 q 125 830 85 765 q 224 943 165 894 q 354 1015 281 992 q 440 1029 396 1028 q 528 1022 485 1031 q 699 945 622 1003 q 819 803 776 888 q 862 681 849 744 q 875 553 875 617 q 852 355 875 453 q 781 171 829 257 q 825 114 803 142 q 869 58 847 86 q 886 36 878 47 q 897 11 894 25 q 890 -24 900 -7 q 864 -56 881 -40 q 828 -83 847 -71 q 792 -104 808 -96 m 361 944 q 363 921 358 932 q 377 903 368 910 q 398 894 386 896 q 421 899 410 893 q 445 932 442 910 q 429 969 449 954 q 389 976 411 983 q 361 944 367 968 m 133 732 q 140 710 133 719 q 157 694 147 700 q 178 690 167 689 q 200 699 190 690 q 213 716 208 706 q 221 738 217 726 q 242 775 229 757 q 269 810 254 793 l 300 840 q 310 846 303 842 q 319 853 317 850 q 334 877 332 863 q 330 903 336 892 q 311 922 324 915 q 282 925 299 929 q 262 915 275 924 q 244 901 249 906 q 232 890 240 899 q 214 872 224 882 q 197 853 204 863 q 186 840 189 844 q 163 805 175 822 q 143 768 151 788 q 137 750 140 758 q 133 732 133 742 m 354 414 q 365 369 357 392 q 384 327 372 346 q 413 298 396 308 q 453 290 431 288 q 494 308 474 292 q 521 338 510 321 q 539 374 532 356 q 561 452 554 411 q 565 533 568 493 q 557 590 563 561 q 536 642 551 618 q 509 672 525 660 q 474 688 493 683 q 437 687 456 692 q 401 668 418 682 q 370 622 381 649 q 356 567 360 594 q 349 490 349 529 q 354 414 349 451 z "},"r":{"ha":881,"x_min":46,"x_max":861,"o":"m 224 -24 q 177 -24 200 -25 q 131 -17 154 -24 q 78 22 97 -6 q 60 53 67 36 q 51 88 54 69 q 47 152 49 106 q 46 252 46 199 q 47 352 46 306 q 47 417 47 399 q 53 611 50 514 q 64 806 57 708 q 71 871 67 838 q 88 935 75 904 q 101 961 93 949 q 119 983 108 974 q 154 1001 135 996 q 193 1010 174 1007 q 254 1009 224 1013 q 315 1006 285 1006 q 431 1007 374 1003 q 544 1004 488 1011 q 641 984 593 999 q 729 942 689 969 q 780 895 757 922 q 819 838 803 868 q 858 702 854 772 q 838 569 861 632 q 765 458 814 507 q 646 388 717 408 q 639 376 638 385 q 643 358 640 367 q 653 340 647 349 q 665 322 658 331 q 719 259 689 288 q 781 203 749 231 q 806 178 793 190 q 825 150 818 165 q 832 125 831 139 q 831 100 833 111 q 815 70 826 83 q 790 46 804 57 q 748 20 771 31 q 701 3 725 10 q 650 -9 676 -4 q 600 -7 624 -14 q 567 6 582 -3 q 539 26 553 15 q 502 61 519 42 q 469 100 485 81 q 411 194 433 143 q 367 296 389 244 q 369 206 368 251 q 368 114 371 160 q 364 54 368 83 q 353 24 361 39 q 333 -3 346 8 q 312 -12 326 -8 q 281 -18 297 -15 q 248 -22 264 -21 q 224 -24 232 -24 m 610 871 q 639 876 625 865 q 660 901 653 886 q 660 924 664 914 q 646 943 656 935 q 624 958 636 951 q 600 968 613 964 q 567 977 583 975 q 532 982 550 979 q 507 983 526 983 q 482 982 488 983 q 444 980 464 979 q 411 969 425 981 q 396 947 399 960 q 399 922 393 933 q 416 902 404 910 q 444 897 428 894 q 463 897 454 899 q 482 899 472 896 q 501 899 486 899 q 519 900 515 900 q 536 898 522 900 q 553 894 550 896 q 581 885 568 893 q 610 871 594 876 m 667 872 q 657 845 656 860 q 667 820 658 831 q 688 806 675 810 q 717 808 701 801 q 737 828 731 815 q 741 853 743 840 q 730 877 739 867 q 704 889 721 888 q 667 872 679 892 m 360 578 q 416 561 385 564 q 475 565 447 558 q 513 583 494 571 q 542 611 531 594 q 553 650 553 629 q 550 690 554 671 q 532 722 546 708 q 501 746 518 736 q 463 760 483 756 q 425 763 443 764 q 401 758 413 761 q 381 747 389 756 q 365 715 369 738 q 358 667 360 693 q 358 617 357 642 q 360 578 360 593 z "},"s":{"ha":785,"x_min":28,"x_max":756,"o":"m 728 149 q 644 47 700 86 q 521 -12 589 7 q 378 -28 453 -31 q 240 -6 304 -26 q 133 51 183 14 q 53 140 82 89 q 34 188 40 161 q 28 242 28 215 q 36 292 28 268 q 64 331 44 315 q 168 378 108 367 q 205 381 186 381 q 240 375 224 382 q 285 343 265 367 q 308 311 299 328 q 332 279 318 294 q 352 260 340 268 q 378 249 364 251 q 405 247 392 244 q 428 257 418 250 q 444 275 439 264 q 449 300 450 286 q 436 328 446 315 q 414 353 426 342 q 331 403 376 385 q 240 444 285 421 q 178 482 208 461 q 121 529 147 503 q 66 608 88 563 q 39 701 44 653 q 45 792 35 746 q 81 876 56 839 q 161 960 113 922 q 253 1012 203 992 q 356 1039 303 1032 q 478 1040 415 1049 q 594 1004 542 1032 q 706 900 665 968 q 726 853 717 881 q 741 796 736 825 q 744 740 746 767 q 729 694 742 713 q 692 663 717 676 q 648 647 672 653 q 599 642 624 642 q 551 650 574 643 q 515 674 529 657 q 494 705 503 688 q 475 738 486 722 q 453 758 467 750 q 426 767 440 765 q 397 763 411 768 q 374 746 383 758 q 369 701 357 725 q 403 663 382 678 q 501 603 449 626 q 603 551 554 581 q 653 517 629 536 q 694 475 676 499 q 742 376 728 432 q 753 264 756 319 q 746 206 751 235 q 728 149 740 176 m 340 936 q 360 917 347 922 q 385 913 372 911 q 408 925 397 915 q 419 950 418 935 q 416 972 421 961 q 403 989 411 982 q 374 995 389 997 q 350 985 360 993 q 337 963 340 976 q 340 936 333 950 m 117 858 q 107 834 108 847 q 110 810 106 821 q 124 791 114 799 q 147 783 133 783 q 185 807 172 783 q 218 851 196 832 q 264 883 240 871 q 277 888 271 886 q 290 892 283 889 q 312 915 307 900 q 312 942 317 929 q 294 964 307 956 q 263 969 281 972 q 244 965 257 969 q 226 957 231 960 q 197 940 211 949 q 171 921 183 932 q 142 891 156 907 q 117 858 129 875 z "},"t":{"ha":783,"x_min":6,"x_max":778,"o":"m 431 -14 q 380 -16 406 -17 q 329 -12 354 -15 q 283 -3 306 -10 q 242 18 260 3 q 220 42 229 28 q 207 71 211 56 q 199 126 200 99 q 197 182 197 154 q 199 317 196 250 q 204 451 201 385 q 210 582 207 518 q 218 711 214 646 q 168 706 193 708 q 117 703 143 703 q 86 708 101 704 q 57 719 71 711 q 26 756 38 732 q 13 804 15 781 q 10 883 6 842 q 35 956 14 924 q 101 1003 58 992 q 171 1013 136 1013 q 240 1011 206 1014 q 366 1006 303 1008 q 492 1003 429 1003 q 550 1003 521 1003 q 608 1006 579 1004 q 660 1004 633 1006 q 710 992 686 1003 q 760 936 744 975 q 774 885 771 911 q 775 831 778 858 q 772 806 775 824 q 767 781 769 788 q 754 749 767 768 q 731 721 742 729 q 700 707 717 711 q 665 700 683 703 q 610 699 638 697 q 556 704 583 701 q 564 515 560 608 q 575 328 568 422 q 581 244 578 286 q 582 161 585 203 q 575 113 579 138 q 560 67 571 89 q 524 21 546 38 q 479 -3 504 6 q 431 -14 454 -11 m 43 836 q 60 810 47 818 q 86 804 72 803 q 111 816 100 806 q 125 844 122 826 q 125 853 125 847 q 126 863 125 860 q 129 870 128 867 q 133 878 131 874 q 136 883 133 882 q 181 893 157 893 q 210 903 199 893 q 223 928 221 914 q 217 955 225 942 q 192 975 210 968 q 176 976 186 976 q 154 975 165 976 q 133 971 143 974 q 117 965 122 968 q 84 949 100 958 q 61 922 68 939 q 44 881 51 903 q 43 836 38 858 m 246 931 q 265 894 246 907 q 306 890 285 881 q 329 924 326 901 q 314 963 332 947 q 269 968 293 979 q 246 931 246 957 z "},"u":{"ha":885,"x_min":26,"x_max":856,"o":"m 583 -4 q 411 -22 501 -29 q 246 24 321 -15 q 198 55 221 38 q 157 94 175 72 q 111 160 129 125 q 79 235 93 196 q 53 338 63 285 q 36 444 43 392 q 32 592 26 518 q 49 740 38 667 q 59 793 51 758 q 77 865 67 828 q 100 935 88 903 q 125 982 113 968 q 158 1006 139 997 q 197 1017 178 1014 q 242 1017 215 1018 q 294 1010 268 1015 q 344 997 321 1006 q 379 974 368 988 q 399 933 394 957 q 406 886 404 910 q 400 822 406 854 q 389 757 394 789 q 369 651 378 704 q 354 543 360 597 q 351 489 351 515 q 356 435 350 463 q 371 392 360 413 q 397 358 382 372 q 431 337 413 343 q 472 338 450 331 q 497 349 486 340 q 518 368 508 357 q 540 410 533 388 q 546 457 546 433 q 533 619 546 539 q 510 779 521 699 q 502 829 507 804 q 496 879 497 854 q 496 914 494 896 q 504 947 497 932 q 547 992 517 978 q 592 1006 569 1003 q 639 1011 615 1008 q 687 1013 663 1014 q 731 1000 711 1013 q 760 969 750 989 q 778 928 771 949 q 834 715 815 824 q 854 494 853 606 q 839 335 856 415 q 786 183 822 254 q 744 115 768 147 q 690 56 721 82 q 640 20 667 35 q 583 -4 613 6 m 276 896 q 313 892 293 885 q 339 918 332 899 q 333 955 346 938 q 299 972 319 972 q 272 963 282 972 q 258 942 261 954 q 258 917 254 931 q 276 896 263 904 m 94 783 q 106 763 97 771 q 126 751 115 754 q 149 752 138 749 q 168 767 160 756 q 176 790 175 776 q 181 814 178 803 q 192 852 183 828 q 211 883 200 876 q 214 885 213 883 q 216 885 215 885 q 218 886 217 886 q 239 908 235 894 q 239 935 243 922 q 222 957 235 949 q 192 964 210 965 q 167 953 179 963 q 143 932 154 944 q 124 906 132 919 q 111 879 115 892 q 106 859 110 872 q 99 831 103 846 q 94 803 96 817 q 94 783 93 789 z "},"v":{"ha":863,"x_min":10,"x_max":851,"o":"m 540 13 q 472 -13 510 -7 q 395 -14 433 -19 q 323 9 357 -8 q 265 54 289 26 q 233 103 246 76 q 210 157 221 129 q 161 301 182 228 q 122 449 140 375 q 86 597 104 522 q 46 744 68 671 q 28 800 38 772 q 14 857 19 828 q 10 885 11 871 q 13 913 10 899 q 43 961 18 942 q 88 985 60 975 q 146 999 115 994 q 206 1003 176 1004 q 257 997 236 1003 q 297 973 279 990 q 326 936 315 956 q 363 842 351 892 q 379 740 374 792 q 393 632 386 686 q 411 525 400 578 q 417 491 414 508 q 428 458 421 474 q 436 440 431 449 q 450 438 442 432 q 463 457 457 440 q 472 482 469 474 q 494 575 486 528 q 510 669 503 622 q 525 764 517 717 q 546 857 533 811 q 554 887 549 868 q 567 925 560 906 q 584 960 575 944 q 604 982 593 976 q 647 993 626 992 q 754 992 704 1000 q 800 979 778 989 q 835 950 822 969 q 849 915 846 935 q 850 876 851 896 q 842 810 849 843 q 826 746 835 778 q 767 540 799 642 q 703 336 736 439 q 669 238 686 288 q 632 140 651 189 q 595 69 617 104 q 540 13 574 33 m 207 969 q 179 950 186 965 q 176 919 172 935 q 192 894 179 904 q 226 889 206 885 q 254 908 247 893 q 258 939 261 924 q 241 964 254 954 q 207 969 228 974 m 69 726 q 110 702 83 701 q 147 729 138 703 q 149 754 151 743 q 142 773 146 760 q 135 800 139 786 q 130 826 132 814 q 129 846 128 839 q 136 858 132 853 q 144 868 140 863 q 153 890 153 878 q 149 912 154 901 q 133 929 143 922 q 111 936 124 936 q 71 913 88 936 q 49 865 54 889 q 47 853 47 861 q 46 835 46 844 q 47 817 46 826 q 49 804 47 808 q 52 789 50 800 q 58 765 54 778 q 64 742 61 753 q 69 726 67 731 z "},"w":{"ha":1154,"x_min":32,"x_max":1125,"o":"m 939 -1 q 878 -3 910 -7 q 819 13 847 1 q 757 52 786 28 q 704 106 728 76 q 649 190 672 144 q 607 282 626 235 q 597 309 604 293 q 578 326 589 325 q 559 312 565 328 q 549 285 553 296 q 502 178 529 231 q 435 85 475 126 q 383 40 411 60 q 321 8 354 19 q 249 -3 286 -3 q 178 11 211 -3 q 78 101 111 39 q 45 192 56 144 q 33 288 35 239 q 38 483 32 385 q 63 676 43 581 q 96 800 75 739 q 149 917 117 861 q 214 974 172 957 q 292 985 250 989 q 369 964 335 982 q 429 908 410 946 q 440 865 438 888 q 439 819 442 842 q 428 757 436 788 q 411 696 419 726 q 387 613 399 654 q 365 528 375 571 q 356 479 360 504 q 353 429 351 454 q 358 399 353 414 q 379 388 364 385 q 404 405 392 389 q 422 432 417 421 q 447 488 438 460 q 468 546 457 517 q 483 589 475 568 q 504 629 490 610 q 526 654 514 643 q 554 671 539 665 q 592 674 574 678 q 626 657 610 669 q 653 627 642 644 q 672 590 665 610 q 698 519 686 554 q 725 450 710 483 q 733 433 728 443 q 745 413 739 422 q 758 395 751 403 q 772 386 765 388 q 790 389 783 383 q 799 405 796 394 q 803 428 803 415 q 803 453 803 440 q 795 504 800 479 q 783 554 790 529 q 772 601 781 565 q 752 676 763 636 q 733 751 742 715 q 722 797 724 786 q 716 849 717 822 q 725 899 715 875 q 754 942 733 924 q 802 970 775 960 q 859 983 829 981 q 915 981 889 986 q 981 949 953 972 q 1022 888 1003 928 q 1055 799 1040 849 q 1081 695 1069 750 q 1101 588 1093 640 q 1115 490 1110 535 q 1122 414 1119 444 q 1124 300 1125 357 q 1110 189 1122 243 q 1086 117 1101 153 q 1046 56 1071 82 q 939 -1 1000 10 m 125 783 q 127 758 122 769 q 141 740 132 747 q 163 731 150 732 q 188 738 175 731 q 204 757 199 744 q 213 783 210 769 q 220 797 215 790 q 228 813 225 804 q 242 830 233 824 q 263 842 251 836 q 285 867 282 850 q 282 897 289 883 q 260 919 275 911 q 226 917 244 926 q 174 877 197 903 q 138 822 151 851 q 132 803 136 818 q 125 783 128 788 m 331 901 q 315 878 318 892 q 317 853 313 865 q 334 834 322 842 q 361 828 346 826 q 392 847 381 831 q 398 877 401 863 q 384 901 394 892 q 359 911 374 910 q 331 901 344 913 z "},"x":{"ha":849,"x_min":19,"x_max":826,"o":"m 776 43 q 728 8 756 24 q 671 -16 700 -8 q 614 -20 642 -24 q 564 3 586 -17 q 546 26 557 8 q 523 65 535 44 q 501 105 511 86 q 488 132 492 124 q 456 186 472 160 q 424 239 440 213 q 390 186 406 213 q 358 132 374 160 q 344 106 354 124 q 324 67 335 88 q 301 28 313 46 q 283 6 290 11 q 242 -16 267 -10 q 196 -18 218 -22 q 140 -1 167 -12 q 89 28 113 11 q 53 62 69 43 q 29 104 36 81 q 28 168 19 135 q 53 232 38 201 q 86 292 68 263 q 155 402 118 349 q 228 508 192 456 q 156 603 192 556 q 86 699 119 650 q 50 756 67 726 q 28 818 33 785 q 28 872 24 844 q 49 921 33 899 q 89 962 64 944 q 142 989 114 979 q 201 999 171 999 q 256 986 231 999 q 292 961 274 978 q 363 888 331 928 q 425 806 394 847 q 474 869 449 838 q 526 928 499 900 q 560 961 543 946 q 600 986 578 976 q 657 996 626 999 q 723 982 692 994 q 778 947 754 969 q 814 895 801 925 q 825 831 826 865 q 808 766 824 797 q 772 707 792 735 q 698 606 736 656 q 621 507 660 556 q 685 410 654 458 q 747 314 717 363 q 785 249 767 282 q 814 181 803 217 q 822 148 819 165 q 821 115 824 131 q 804 76 817 94 q 776 43 792 58 m 174 894 q 198 882 185 883 q 223 887 211 881 q 241 906 235 893 q 243 933 247 918 q 226 960 239 951 q 200 967 214 968 q 174 955 186 965 q 161 926 163 944 q 174 894 158 910 m 168 650 q 210 645 188 635 q 235 682 232 656 q 228 703 238 693 q 213 725 219 714 q 204 738 210 729 q 192 758 199 747 q 181 779 186 769 q 174 793 175 789 q 170 816 169 804 q 168 839 171 828 q 151 865 164 857 q 125 871 139 872 q 99 859 111 869 q 86 831 88 849 q 91 777 83 804 q 114 728 99 750 q 138 687 128 708 q 168 650 149 665 z "},"y":{"ha":929,"x_min":4,"x_max":928,"o":"m 497 -24 q 435 -24 465 -26 q 375 -12 404 -21 q 334 6 354 -6 q 303 35 314 17 q 285 78 289 54 q 281 126 282 103 q 289 270 278 199 q 310 414 300 342 q 311 422 310 417 q 310 429 313 426 q 256 479 282 453 q 204 533 229 506 q 149 592 176 563 q 94 651 121 621 q 42 723 67 685 q 10 806 18 761 q 13 868 4 836 q 42 925 22 900 q 72 959 56 943 q 108 986 89 975 q 172 1008 136 1001 q 235 999 207 1014 q 269 974 254 990 q 297 942 285 958 q 382 809 342 876 q 463 674 422 742 q 465 669 465 671 q 499 727 474 686 q 552 815 524 768 q 607 901 581 861 q 644 956 633 942 q 669 981 656 969 q 699 1000 683 993 q 758 1006 728 1011 q 817 986 789 1001 q 869 947 846 971 q 906 896 892 922 q 921 804 928 853 q 897 737 914 769 q 857 676 879 704 q 799 609 829 642 q 739 544 769 576 q 676 481 707 513 q 611 421 644 450 q 619 353 617 388 q 629 267 624 318 q 635 165 635 217 q 626 69 636 113 q 589 4 617 25 q 545 -17 569 -11 q 497 -24 521 -22 m 163 968 q 142 948 147 961 q 141 922 138 935 q 155 899 144 908 q 182 889 165 889 q 217 908 206 889 q 223 935 225 922 q 213 958 221 949 q 190 972 204 968 q 163 968 176 975 m 119 668 q 153 651 133 651 q 178 660 168 651 q 192 681 189 668 q 192 706 196 693 q 176 728 189 719 q 166 738 172 731 q 153 754 160 746 q 142 770 147 763 q 136 782 138 778 q 133 806 133 789 q 135 831 132 824 q 138 862 143 847 q 120 884 132 876 q 93 890 108 892 q 65 875 78 889 q 56 858 58 868 q 51 836 54 847 q 51 778 46 808 q 72 724 57 747 q 119 668 93 693 z "},"z":{"ha":775,"x_min":22,"x_max":754,"o":"m 615 -17 q 532 -20 574 -21 q 449 -19 490 -19 q 353 -21 410 -19 q 240 -17 296 -22 q 137 3 183 -12 q 72 51 90 18 q 59 90 63 69 q 54 129 56 110 q 71 253 50 192 q 131 367 92 313 q 288 558 200 467 q 349 619 318 590 q 406 685 381 649 l 251 668 q 191 663 221 665 q 131 664 161 661 q 91 671 111 665 q 57 692 71 676 q 34 733 42 707 q 24 789 26 760 q 26 847 22 818 q 38 896 29 875 q 81 953 51 932 q 130 976 104 968 q 183 989 156 985 q 291 1003 236 1000 q 400 1007 346 1007 q 485 1006 442 1007 q 569 996 528 1004 q 621 984 596 992 q 668 961 646 976 q 715 904 701 939 q 731 837 729 872 q 726 767 733 801 q 695 669 717 717 q 647 578 674 622 q 558 444 606 508 q 461 317 511 379 q 440 292 450 304 q 421 267 431 279 q 515 276 468 272 q 608 278 561 279 q 665 272 636 278 q 713 247 693 267 q 739 207 729 232 q 751 154 749 182 q 751 99 754 126 q 738 50 747 71 q 696 4 724 19 q 657 -10 678 -7 q 615 -17 636 -14 m 301 956 q 274 936 281 951 q 270 906 267 921 q 287 880 274 890 q 321 874 300 869 q 349 893 342 878 q 352 924 356 908 q 335 949 349 939 q 301 956 322 960 m 75 760 q 91 740 79 746 q 115 736 103 735 q 139 745 128 738 q 154 768 150 753 q 154 777 154 769 q 153 794 154 785 q 152 810 153 803 q 151 821 151 818 q 156 835 153 824 q 163 849 160 846 q 180 859 165 856 q 201 865 194 863 q 228 887 221 872 q 233 915 236 901 q 218 939 231 929 q 185 947 206 949 q 169 942 179 946 q 147 935 158 939 q 126 926 136 931 q 113 917 117 921 q 89 887 97 904 q 74 851 81 869 q 68 823 68 838 q 69 793 68 808 q 75 760 69 775 z "},"{":{"ha":642,"x_min":26,"x_max":615,"o":"m 538 -50 q 460 -68 500 -64 q 379 -72 419 -72 q 283 -65 332 -72 q 194 -31 235 -57 q 134 34 158 -7 q 106 119 110 75 q 106 172 103 146 q 113 226 108 199 q 121 279 117 253 q 125 332 125 306 q 122 377 125 354 q 104 417 118 400 q 92 426 101 419 q 70 439 82 432 q 49 452 58 446 q 36 461 39 458 q 36 485 26 474 q 60 504 46 497 q 97 530 79 514 q 121 568 115 546 q 122 649 132 608 q 103 731 111 690 q 94 815 94 771 q 104 899 93 858 q 163 1000 119 957 q 208 1035 183 1021 q 261 1060 233 1050 q 355 1081 307 1075 q 450 1089 403 1088 q 507 1084 478 1089 q 560 1068 536 1079 q 599 1038 583 1057 q 614 990 614 1018 q 613 949 615 974 q 603 897 610 924 q 588 848 597 871 q 565 814 578 825 q 525 801 549 801 q 478 807 501 800 q 432 813 456 814 q 394 796 404 813 q 382 754 383 779 q 385 699 381 729 q 393 643 390 669 q 397 603 396 624 q 394 564 399 583 q 387 539 392 551 q 372 517 382 526 q 335 491 357 500 q 292 471 313 482 q 335 435 315 456 q 368 389 356 414 q 389 311 385 354 q 389 284 389 301 q 390 248 389 267 q 394 213 392 229 q 403 190 396 197 q 418 183 410 183 q 435 183 426 182 q 472 187 454 183 q 508 193 490 190 q 546 193 526 197 q 575 172 563 188 q 595 136 588 157 q 606 93 603 115 q 608 53 608 71 q 606 19 608 36 q 593 -12 603 3 q 568 -35 583 -26 q 538 -50 553 -43 m 271 972 q 290 951 276 957 q 315 948 303 946 q 338 960 328 950 q 350 986 349 969 q 324 1029 353 1021 q 278 1018 296 1038 q 271 972 260 999 m 126 801 q 144 771 131 779 q 173 765 158 763 q 199 782 188 768 q 208 818 210 796 q 211 860 207 839 q 226 901 215 882 q 235 910 229 907 q 246 918 240 914 q 262 947 261 931 q 254 974 263 963 q 231 991 246 986 q 199 988 215 996 q 162 955 178 976 q 136 907 146 933 q 124 853 126 881 q 126 801 122 825 z "},"}":{"ha":642,"x_min":28,"x_max":615,"o":"m 443 -33 q 327 -69 390 -64 q 203 -69 264 -75 q 150 -63 176 -67 q 99 -49 124 -60 q 69 -32 83 -42 q 46 -7 54 -22 q 36 22 39 7 q 33 51 33 36 q 36 92 33 69 q 47 135 39 114 q 66 172 54 156 q 94 193 78 188 q 129 194 110 197 q 151 190 138 193 q 181 185 165 188 q 211 183 197 183 q 232 186 225 183 q 249 219 247 193 q 251 264 251 246 q 256 325 251 294 q 272 383 260 356 q 306 433 285 411 q 350 471 326 454 q 310 490 331 482 q 274 513 289 497 q 246 576 249 538 q 251 663 243 621 q 260 749 260 706 q 258 772 260 760 q 250 793 257 783 q 219 813 242 810 q 173 809 196 815 q 126 801 150 803 q 101 803 114 800 q 78 814 88 806 q 58 840 65 825 q 46 869 51 854 q 38 903 42 882 q 31 948 33 925 q 28 992 28 971 q 35 1024 28 1013 q 68 1060 46 1046 q 114 1081 90 1074 q 170 1089 142 1088 q 227 1087 199 1090 q 284 1078 256 1083 q 340 1068 313 1074 q 376 1059 358 1064 q 408 1046 393 1054 q 475 1002 444 1029 q 522 940 506 975 q 548 836 546 892 q 539 728 550 781 q 521 650 531 689 q 519 572 511 611 q 540 534 524 551 q 575 508 556 517 q 603 490 590 501 q 607 464 615 479 q 597 454 604 460 q 579 444 589 449 q 561 434 569 439 q 549 426 553 429 q 528 401 535 417 q 519 369 522 385 q 519 305 515 338 q 528 240 522 272 q 537 174 533 207 q 535 110 540 142 q 504 28 528 68 q 443 -33 481 -12 m 386 900 q 414 885 397 888 q 444 892 431 883 q 460 924 463 903 q 446 961 458 944 q 389 1014 422 992 q 318 1044 356 1036 q 305 1047 314 1046 q 287 1049 296 1049 q 269 1051 278 1050 q 256 1051 260 1051 q 230 1034 238 1047 q 224 1006 222 1021 q 235 981 225 992 q 265 968 246 969 q 357 935 315 965 q 373 918 367 928 q 386 900 379 908 m 413 836 q 414 794 401 814 q 450 775 426 775 q 473 782 463 775 q 488 799 483 789 q 492 822 493 810 q 483 844 492 833 q 446 860 468 864 q 413 836 424 857 z "},"~":{"ha":939,"x_min":28,"x_max":907,"o":"m 679 194 q 597 199 639 189 q 519 228 556 210 q 468 260 492 243 q 418 293 444 278 q 358 308 390 308 q 329 300 343 307 q 303 285 315 293 q 253 241 276 265 q 197 207 229 217 q 156 208 178 203 q 114 223 135 213 q 75 249 93 233 q 47 281 57 264 q 29 346 28 310 q 44 418 31 382 q 82 488 58 454 q 132 544 106 521 q 188 584 157 568 q 250 606 218 600 q 347 592 300 614 q 389 565 369 581 q 427 535 408 550 q 466 506 446 519 q 510 485 486 492 q 575 489 544 474 q 607 515 593 499 q 633 549 621 531 q 652 575 640 558 q 677 607 664 592 q 705 633 690 622 q 732 643 719 643 q 797 631 765 643 q 853 597 829 618 q 892 547 878 576 q 907 485 907 518 q 899 408 907 446 q 871 336 890 369 q 790 243 842 283 q 679 194 739 203 m 258 529 q 270 508 261 517 q 290 497 279 500 q 313 498 301 494 q 333 513 325 501 q 341 553 349 532 q 310 581 333 575 q 269 569 286 586 q 258 529 253 553 m 74 399 q 76 374 71 385 q 90 355 81 363 q 112 347 100 347 q 136 353 124 346 q 144 361 140 357 q 151 371 149 365 q 158 385 153 375 q 168 404 163 394 q 179 422 174 414 q 189 433 185 431 q 199 444 192 436 q 210 456 207 453 q 218 460 214 458 q 225 465 222 463 q 242 493 240 478 q 235 521 243 508 q 211 538 226 533 q 178 535 196 543 q 165 526 174 532 q 149 511 157 519 q 133 496 140 503 q 122 485 125 489 q 110 467 118 479 q 95 442 103 456 q 81 417 88 429 q 74 399 75 404 z "}," ":{"ha":417,"x_min":0,"x_max":0,"o":""},"¢":{"ha":801,"x_min":38,"x_max":760,"o":"m 500 -53 q 472 -62 490 -60 q 434 -64 454 -64 q 395 -62 414 -64 q 365 -57 376 -60 q 335 -47 350 -53 q 314 -29 321 -42 q 308 6 303 -14 q 317 44 313 26 q 229 78 272 57 q 153 131 186 99 q 108 181 129 154 q 75 240 88 208 q 53 316 60 276 q 43 396 46 356 q 42 517 38 456 q 63 636 47 578 q 98 735 76 686 q 151 825 119 783 q 242 904 188 872 q 356 949 297 936 q 351 972 353 960 q 350 997 350 985 q 360 1033 347 1019 q 389 1049 371 1047 q 425 1054 407 1051 q 466 1056 444 1056 q 507 1049 488 1056 q 540 1021 531 1039 q 549 983 549 1003 q 547 944 549 964 q 630 910 590 933 q 699 854 669 888 q 738 783 726 824 q 748 738 743 765 q 755 681 753 710 q 753 625 757 651 q 739 585 750 599 q 715 567 729 574 q 686 556 701 560 q 650 551 674 553 q 601 548 626 549 q 551 549 575 547 q 517 554 528 550 q 497 567 506 557 q 489 585 493 572 q 482 614 485 599 q 478 644 479 629 q 475 665 476 658 q 472 678 474 672 q 464 690 469 685 q 448 697 457 696 q 431 694 439 697 q 398 675 413 689 q 376 644 383 661 q 343 514 349 583 q 353 379 338 444 q 360 356 354 369 q 373 330 365 343 q 390 307 381 317 q 407 293 399 297 q 440 297 422 288 q 467 318 457 306 q 483 350 478 333 q 500 382 489 367 q 532 407 511 400 q 568 414 550 413 q 604 417 586 415 q 631 417 613 417 q 668 417 649 418 q 704 415 688 417 q 729 408 721 413 q 751 376 747 397 q 756 306 760 342 q 743 236 751 269 q 724 188 736 211 q 696 144 713 164 q 616 77 664 104 q 518 39 568 50 q 520 10 519 24 q 518 -19 521 -4 q 500 -53 515 -39 m 403 910 q 383 890 388 903 q 382 866 378 878 q 397 846 386 854 q 425 839 408 838 q 453 854 444 842 q 460 879 461 867 q 451 901 458 892 q 430 913 443 910 q 403 910 417 915 m 181 789 q 192 763 178 774 q 221 751 206 751 q 261 781 253 751 q 285 806 265 793 q 317 824 306 818 q 338 830 328 826 q 356 842 349 833 q 364 860 364 850 q 359 880 364 871 q 345 895 354 889 q 324 901 336 901 q 285 892 304 901 q 250 872 267 883 q 205 838 226 858 q 181 789 183 817 z "},"£":{"ha":885,"x_min":33,"x_max":843,"o":"m 749 -3 q 676 -13 714 -17 q 600 -7 638 -10 q 388 -7 493 -3 q 296 -10 342 -8 q 204 -10 250 -12 q 157 -7 181 -8 q 111 1 133 -6 q 78 18 92 6 q 38 90 44 47 q 35 133 33 108 q 42 183 36 158 q 60 229 49 208 q 86 261 71 250 q 133 274 107 274 q 182 271 157 274 q 229 275 207 268 q 245 296 240 279 q 250 325 250 313 q 249 355 251 340 q 244 385 247 369 q 190 379 217 382 q 135 379 163 376 q 108 385 121 381 q 85 399 94 389 q 74 419 78 406 q 70 447 71 432 q 71 475 69 461 q 75 499 72 489 q 86 526 76 513 q 111 542 97 538 q 149 549 129 549 q 188 550 168 550 q 158 641 171 594 q 144 735 146 688 q 150 816 143 775 q 176 893 157 857 q 254 979 204 944 q 332 1015 290 1003 q 415 1031 374 1028 q 559 1022 486 1038 q 694 969 632 1006 q 760 916 731 949 q 810 846 790 883 q 834 787 825 818 q 843 724 843 756 q 837 676 843 700 q 815 635 831 653 q 783 607 803 618 q 743 590 764 596 q 708 586 729 588 q 663 585 686 585 q 620 591 640 586 q 589 606 600 596 q 574 625 579 613 q 568 649 569 638 q 565 685 565 667 q 563 722 565 703 q 544 762 558 744 q 506 775 529 779 q 472 756 486 772 q 451 719 457 739 q 447 633 440 678 q 469 547 454 588 q 542 554 506 550 q 615 556 579 558 q 651 551 633 554 q 683 536 669 547 q 701 506 697 525 q 707 469 706 488 q 703 432 708 451 q 682 404 697 413 q 653 396 674 399 q 610 392 633 393 q 567 390 588 390 q 536 390 546 390 q 549 344 544 368 q 553 297 554 321 q 615 305 585 301 q 676 310 644 308 q 710 310 693 311 q 743 307 726 310 q 771 297 760 304 q 803 255 792 282 q 818 197 814 228 q 820 133 822 165 q 813 76 818 101 q 789 28 806 51 q 749 -3 772 6 m 374 950 q 385 929 376 938 q 406 918 394 921 q 428 919 417 915 q 449 933 440 922 q 456 974 464 951 q 425 1001 449 996 q 385 990 401 1007 q 374 950 368 974 m 193 761 q 208 737 197 744 q 233 729 219 729 q 259 737 247 729 q 275 761 271 744 l 275 797 q 278 808 275 800 q 283 819 281 817 q 291 842 286 831 q 303 860 296 853 q 319 873 306 863 q 336 886 333 883 q 344 910 344 897 q 338 932 344 922 q 321 948 332 942 q 296 953 310 954 q 278 945 286 951 q 264 933 271 939 q 233 906 247 922 q 213 871 219 890 q 202 842 210 864 q 193 814 194 821 q 192 788 192 807 q 193 761 192 768 z "},"¤":{"ha":843,"x_min":36,"x_max":804,"o":"m 710 93 q 685 86 699 88 q 661 90 672 85 q 619 118 638 101 q 585 154 601 135 q 570 172 582 158 q 556 189 558 186 q 546 206 546 196 q 412 187 482 183 q 278 213 342 190 q 269 203 276 210 q 260 192 267 200 q 250 182 253 185 q 216 144 233 163 q 176 111 199 125 q 132 101 156 97 q 97 117 113 104 q 69 146 82 131 q 47 178 57 161 q 38 214 36 194 q 42 235 38 225 q 51 254 46 244 q 90 299 67 279 q 142 329 114 318 q 111 417 119 369 q 113 544 100 479 q 157 663 125 608 q 118 687 138 674 q 83 718 99 700 q 65 744 72 729 q 54 774 57 758 q 61 810 53 792 q 75 832 65 819 q 96 856 85 844 q 119 877 107 868 q 142 889 132 886 q 161 892 151 892 q 179 888 171 892 q 239 841 215 872 q 290 785 263 810 q 426 817 353 815 q 563 794 499 818 q 565 796 564 793 q 568 800 565 799 q 580 810 575 804 q 592 824 585 817 q 625 862 607 843 q 665 894 643 881 q 710 904 686 908 q 744 888 729 901 q 772 860 760 875 q 794 828 783 844 q 804 792 804 811 q 799 771 803 781 q 790 751 796 761 q 755 712 775 729 q 711 682 735 694 q 745 605 735 647 q 754 522 756 563 q 735 413 751 467 q 689 313 719 358 q 728 288 708 301 q 761 256 747 275 q 778 232 771 244 q 786 204 785 219 q 778 167 789 185 q 756 133 768 149 q 735 110 746 121 q 710 93 724 100 m 381 756 q 385 738 379 744 q 401 728 392 731 q 420 728 410 726 q 439 738 431 731 q 442 763 450 749 q 418 779 435 776 q 392 776 404 782 q 381 756 381 769 m 194 619 q 210 608 200 611 q 231 606 221 604 q 248 615 240 608 q 256 631 256 621 q 271 658 257 640 q 292 683 285 676 q 306 694 299 690 q 322 704 314 699 q 337 710 329 708 q 351 719 344 713 q 358 736 360 728 q 350 751 357 744 q 333 759 343 757 q 313 757 322 761 q 250 721 276 743 q 241 712 247 718 q 228 698 235 706 q 215 683 221 690 q 207 672 208 675 q 194 647 200 663 q 194 619 189 631 m 354 510 q 356 461 353 486 q 368 417 358 436 q 393 385 378 397 q 432 375 408 372 q 471 390 453 378 q 507 447 496 411 q 516 489 514 465 q 515 534 518 513 q 503 574 513 556 q 475 604 493 593 q 424 614 451 618 q 381 590 397 610 q 361 552 367 574 q 354 510 356 531 z "},"¥":{"ha":968,"x_min":22,"x_max":946,"o":"m 515 -24 q 453 -24 483 -26 q 393 -12 422 -21 q 348 9 369 -6 q 315 44 326 24 q 303 78 306 60 q 299 115 300 97 q 298 159 297 138 q 301 201 299 181 q 255 198 278 199 q 208 199 232 197 q 167 207 188 199 q 140 233 150 213 q 135 272 133 250 q 151 307 138 293 q 174 321 161 317 q 199 326 186 325 q 257 328 228 329 q 315 325 286 328 q 318 344 317 335 q 321 363 319 353 q 251 356 285 360 q 182 354 217 351 q 152 365 167 357 q 131 388 138 374 q 125 434 121 407 q 147 475 129 461 q 176 489 160 486 q 208 492 193 492 q 238 490 215 492 q 268 486 261 488 q 189 567 228 526 q 113 651 150 608 q 60 723 85 685 q 28 806 36 761 q 31 868 22 836 q 60 925 40 900 q 90 959 74 943 q 126 986 107 975 q 190 1008 154 1001 q 253 999 225 1014 q 288 974 272 990 q 315 942 303 958 q 400 809 360 876 q 481 674 440 742 q 483 669 483 671 q 517 727 492 686 q 570 815 542 768 q 625 901 599 861 q 663 956 651 942 q 688 981 674 969 q 717 1000 701 993 q 776 1006 746 1011 q 835 986 807 1001 q 887 947 864 971 q 924 896 910 922 q 939 804 946 853 q 903 717 931 757 q 844 640 876 676 q 774 563 810 600 q 703 490 739 526 q 748 492 726 492 q 793 490 769 493 q 818 481 806 488 q 838 464 831 475 q 847 424 849 447 q 831 386 844 401 q 793 365 817 372 q 716 359 756 354 q 636 365 676 364 q 638 348 638 357 q 640 331 639 339 q 663 332 646 331 q 699 335 679 333 q 735 339 718 338 q 757 340 751 340 q 793 338 775 340 q 826 326 811 336 q 850 301 842 318 q 858 267 858 283 q 855 244 858 256 q 843 225 851 232 q 822 216 833 218 q 800 213 811 214 q 770 214 785 213 q 740 217 756 215 l 650 217 q 644 72 657 140 q 632 34 642 53 q 607 4 622 15 q 563 -17 588 -11 q 515 -24 539 -22 m 181 968 q 160 948 165 961 q 159 922 156 935 q 173 899 163 908 q 200 889 183 889 q 235 908 224 889 q 241 935 243 922 q 231 958 239 949 q 208 972 222 968 q 181 968 194 975 m 138 668 q 171 651 151 651 q 197 660 186 651 q 210 681 207 668 q 210 706 214 693 q 194 728 207 719 q 184 738 190 731 q 172 754 178 746 q 160 770 165 763 q 154 782 156 778 q 151 806 151 789 q 153 831 150 824 q 156 862 161 847 q 138 884 150 876 q 111 890 126 892 q 83 875 96 889 q 74 858 76 868 q 69 836 72 847 q 69 778 64 808 q 90 724 75 747 q 138 668 111 693 z "},"­":{"ha":0,"x_min":0,"x_max":0,"o":""},"±":{"ha":739,"x_min":33,"x_max":701,"o":"m 504 417 q 467 397 490 403 q 419 390 444 390 q 367 392 393 389 q 324 403 342 396 q 293 424 307 410 q 275 456 279 438 q 271 510 268 482 q 276 565 274 538 q 219 565 249 564 q 161 568 190 565 q 122 574 142 571 q 85 588 103 578 q 58 608 68 594 q 44 639 49 622 q 36 672 39 656 q 33 712 33 692 q 39 751 33 732 q 92 813 51 794 q 138 826 114 822 q 188 832 163 829 l 279 836 q 274 874 276 856 q 275 911 272 892 q 281 933 278 922 q 292 954 285 944 q 335 981 307 974 q 390 988 364 988 q 438 985 414 988 q 481 967 461 982 q 501 941 493 957 q 511 910 508 925 q 514 872 514 890 q 514 835 514 854 q 544 833 524 835 q 588 829 565 832 q 630 822 610 826 q 658 813 650 818 q 679 790 671 804 q 692 761 688 776 q 699 710 697 736 q 697 658 701 685 q 688 627 694 643 q 669 600 682 611 q 631 582 654 585 q 605 577 625 581 q 579 574 585 574 q 552 572 565 572 q 525 571 539 571 q 527 531 526 551 q 526 492 528 511 q 522 452 525 472 q 504 417 518 432 m 286 743 q 321 735 299 731 q 342 747 335 738 q 350 768 350 757 q 343 790 350 779 q 322 804 336 800 q 297 803 308 808 q 279 788 285 797 q 274 765 274 778 q 286 743 275 753 m 111 722 q 135 724 122 719 q 158 729 147 729 q 185 731 164 731 q 211 732 206 732 q 234 744 226 733 q 242 766 242 754 q 235 789 243 778 q 214 803 228 800 q 201 804 207 804 q 189 804 196 804 q 168 803 182 804 q 140 799 154 801 q 114 792 126 796 q 96 785 101 789 q 83 748 78 769 q 111 722 88 726 m 418 -10 q 312 -13 365 -12 q 206 -7 258 -14 q 159 3 182 -4 q 121 26 136 11 q 98 65 107 40 q 86 116 89 89 q 85 169 83 143 q 94 215 88 196 q 146 274 108 256 q 217 293 179 289 q 292 300 256 297 q 317 301 297 300 q 358 303 336 303 q 398 305 379 304 q 424 306 417 306 q 499 306 461 307 q 574 301 536 306 q 613 294 593 299 q 649 276 633 289 q 667 253 660 267 q 679 225 675 240 q 690 147 688 188 q 681 69 692 107 q 651 28 674 43 q 631 17 642 21 q 608 11 619 13 l 600 11 q 590 7 596 7 q 504 -3 547 0 q 418 -10 461 -7 m 353 235 q 364 195 347 211 q 404 185 381 179 q 425 196 417 188 q 436 215 433 204 q 435 238 439 226 q 421 258 431 250 q 381 265 403 274 q 353 235 358 257 m 172 253 q 144 232 151 247 q 140 201 136 217 q 156 176 143 186 q 189 171 168 167 q 203 174 192 171 q 218 178 215 178 q 232 178 222 178 q 252 180 242 179 q 272 181 263 181 q 285 183 282 182 q 307 197 299 186 q 317 219 315 207 q 313 243 318 232 q 293 261 307 254 q 278 263 289 263 q 255 264 267 264 q 232 263 243 264 q 215 261 221 261 q 193 258 210 261 q 172 253 176 254 z "},"×":{"ha":728,"x_min":35,"x_max":692,"o":"m 279 78 q 246 58 264 67 q 208 50 228 49 q 153 68 181 51 q 121 89 136 76 q 94 117 106 101 q 76 159 82 136 q 75 204 69 182 q 90 241 79 224 q 115 274 101 258 q 158 314 135 296 q 206 350 182 332 q 134 395 169 372 q 72 450 99 418 q 47 489 57 468 q 35 533 36 510 q 38 560 35 547 q 43 586 40 574 q 61 632 50 610 q 92 669 72 654 q 130 699 110 685 q 174 715 150 713 q 213 711 193 718 q 249 693 232 704 q 320 635 289 669 q 379 564 351 600 q 436 640 406 606 q 481 678 456 661 q 536 700 507 694 q 579 697 557 704 q 618 675 601 690 q 642 653 625 669 q 663 628 658 636 q 675 611 669 622 q 685 588 681 600 q 690 562 689 575 q 690 540 692 549 q 678 502 688 521 q 657 467 668 483 q 611 415 638 439 q 557 371 585 392 q 626 313 593 344 q 672 239 658 281 q 654 143 690 186 q 619 109 639 124 q 576 86 600 94 q 545 81 561 82 q 514 83 529 79 q 483 99 497 88 q 458 121 469 110 q 426 159 440 139 q 396 200 411 179 q 340 136 367 168 q 279 78 313 104 m 200 604 q 240 597 218 589 q 267 628 261 604 q 265 651 269 640 q 252 669 261 663 q 231 678 243 676 q 208 675 219 681 q 185 642 188 664 q 200 604 182 619 m 47 525 q 63 501 51 510 q 86 493 74 493 q 110 501 99 493 q 128 524 122 508 q 129 533 129 528 q 161 579 139 560 q 171 606 168 589 q 166 626 172 617 q 151 642 160 636 q 131 648 142 647 q 110 643 119 649 q 81 617 93 632 q 61 583 69 601 q 49 555 54 569 q 47 525 44 540 z "},"÷":{"ha":636,"x_min":22,"x_max":614,"o":"m 396 600 q 368 572 385 582 q 332 558 351 561 q 292 558 313 554 q 253 571 271 561 q 227 597 236 581 q 218 631 218 613 q 226 665 218 649 q 251 690 235 681 q 297 706 272 703 q 344 704 322 710 q 382 683 365 699 q 404 644 399 668 q 396 600 408 621 m 469 276 q 382 269 439 274 q 264 265 325 265 q 148 269 203 264 q 68 292 93 275 q 44 313 54 300 q 31 342 35 326 q 24 383 25 361 q 26 425 22 404 q 35 448 29 436 q 50 469 40 460 q 84 491 65 483 q 122 501 103 499 q 215 510 168 508 q 308 514 261 513 q 400 516 354 515 q 492 513 446 517 q 529 508 511 511 q 564 499 547 506 q 604 454 593 488 q 611 423 608 442 q 614 385 614 404 q 611 347 614 365 q 601 319 608 329 q 573 296 590 304 q 536 285 556 288 q 503 280 519 282 q 469 276 488 278 m 290 467 q 293 435 279 449 q 326 419 307 421 q 362 433 347 418 q 365 467 376 449 q 349 481 360 476 q 328 485 339 485 q 306 481 317 485 q 290 467 296 476 m 78 435 q 97 413 82 419 q 126 410 111 407 q 140 413 133 411 q 154 415 147 414 q 167 416 157 415 q 188 417 176 417 q 208 417 199 417 q 221 419 218 418 q 235 426 228 422 q 247 438 243 431 q 247 467 257 453 q 219 483 236 481 q 206 483 215 483 q 185 483 196 483 q 165 481 175 482 q 151 481 156 481 q 123 476 138 479 q 97 469 108 474 q 80 456 86 464 q 78 435 74 447 m 354 86 q 306 79 331 78 q 263 90 282 81 q 231 118 243 100 q 222 161 219 136 q 258 213 226 196 q 325 228 290 231 q 363 218 344 226 q 392 197 381 210 q 408 167 404 183 q 406 132 413 150 q 384 104 399 117 q 354 86 369 92 z "},"‘":{"ha":332,"x_min":32,"x_max":299,"o":"m 229 651 q 190 640 213 643 q 147 638 168 636 q 106 647 125 639 q 76 669 88 654 q 57 716 65 685 q 43 783 49 747 q 35 851 38 818 q 33 901 32 883 q 40 946 36 924 q 56 985 43 968 q 88 1006 68 1000 q 126 1013 107 1011 q 158 1014 138 1014 q 200 1013 178 1014 q 242 1007 222 1011 q 271 997 261 1003 q 290 971 283 986 q 297 919 296 954 q 297 847 299 885 q 292 776 296 810 q 285 724 289 742 q 274 693 281 708 q 256 667 267 678 q 229 651 244 656 m 85 958 q 71 936 74 949 q 72 912 68 924 q 86 892 76 900 q 111 883 96 883 q 147 902 135 883 q 151 943 158 921 q 123 967 144 963 q 85 958 101 971 z "},"’":{"ha":332,"x_min":32,"x_max":299,"o":"m 229 651 q 190 640 213 643 q 147 638 168 636 q 106 647 125 639 q 76 669 88 654 q 57 716 65 685 q 43 783 49 747 q 35 851 38 818 q 33 901 32 883 q 40 946 36 924 q 56 985 43 968 q 88 1006 68 1000 q 126 1013 107 1011 q 158 1014 138 1014 q 200 1013 178 1014 q 242 1007 222 1011 q 271 997 261 1003 q 290 971 283 986 q 297 919 296 954 q 297 847 299 885 q 292 776 296 810 q 285 724 289 742 q 274 693 281 708 q 256 667 267 678 q 229 651 244 656 m 85 958 q 71 936 74 949 q 72 912 68 924 q 86 892 76 900 q 111 883 96 883 q 147 902 135 883 q 151 943 158 921 q 123 967 144 963 q 85 958 101 971 z "},"“":{"ha":604,"x_min":33,"x_max":571,"o":"m 197 629 q 114 628 157 617 q 83 643 96 632 q 64 674 72 653 q 50 721 56 696 q 42 770 44 746 q 38 808 39 794 q 34 867 35 838 q 39 926 33 897 q 44 945 42 936 q 51 964 46 954 q 88 992 65 986 q 131 999 108 999 q 175 997 153 999 q 215 995 194 997 q 250 979 236 993 q 268 944 265 965 q 272 903 271 922 q 273 849 274 883 q 269 778 272 815 q 258 708 265 742 q 242 660 251 675 q 222 641 235 649 q 197 629 210 633 m 494 625 q 411 624 454 613 q 379 639 394 628 q 360 670 368 649 q 347 717 353 692 q 339 766 342 742 q 335 804 336 790 q 331 863 332 833 q 336 922 331 893 q 347 960 338 939 q 383 988 363 982 q 426 994 404 994 q 471 993 449 994 q 511 991 490 993 q 547 975 532 989 q 565 940 561 961 q 569 899 568 918 q 569 845 571 879 q 565 774 568 811 q 554 704 561 738 q 538 656 547 671 q 494 625 522 635 m 67 910 q 83 875 65 889 q 121 872 101 861 q 138 889 132 878 q 143 911 143 900 q 138 933 143 922 q 122 949 133 943 q 85 945 103 958 q 67 910 68 932 m 364 906 q 380 871 363 885 q 417 868 397 857 q 434 885 428 874 q 440 907 440 896 q 435 928 440 918 q 419 944 431 939 q 383 941 400 954 q 364 906 365 928 z "},"”":{"ha":604,"x_min":33,"x_max":571,"o":"m 197 629 q 114 628 157 617 q 83 643 96 632 q 64 674 72 653 q 50 721 56 696 q 42 770 44 746 q 38 808 39 794 q 34 867 35 838 q 39 926 33 897 q 44 945 42 936 q 51 964 46 954 q 88 992 65 986 q 131 999 108 999 q 175 997 153 999 q 215 995 194 997 q 250 979 236 993 q 268 944 265 965 q 272 903 271 922 q 273 849 274 883 q 269 778 272 815 q 258 708 265 742 q 242 660 251 675 q 222 641 235 649 q 197 629 210 633 m 494 625 q 411 624 454 613 q 379 639 394 628 q 360 670 368 649 q 347 717 353 692 q 339 766 342 742 q 335 804 336 790 q 331 863 332 833 q 336 922 331 893 q 347 960 338 939 q 383 988 363 982 q 426 994 404 994 q 471 993 449 994 q 511 991 490 993 q 547 975 532 989 q 565 940 561 961 q 569 899 568 918 q 569 845 571 879 q 565 774 568 811 q 554 704 561 738 q 538 656 547 671 q 494 625 522 635 m 67 910 q 83 875 65 889 q 121 872 101 861 q 138 889 132 878 q 143 911 143 900 q 138 933 143 922 q 122 949 133 943 q 85 945 103 958 q 67 910 68 932 m 364 906 q 380 871 363 885 q 417 868 397 857 q 434 885 428 874 q 440 907 440 896 q 435 928 440 918 q 419 944 431 939 q 383 941 400 954 q 364 906 365 928 z "},"€":{"ha":786,"x_min":24,"x_max":746,"o":"m 693 36 q 629 0 669 11 q 543 -13 589 -11 q 453 -8 497 -15 q 376 10 408 -1 q 308 40 342 22 q 247 81 275 57 q 202 131 222 103 q 168 189 182 158 q 144 269 153 228 q 131 350 136 310 q 128 351 131 353 q 122 350 125 350 q 94 349 108 349 q 65 351 79 349 q 40 367 50 356 q 28 393 31 379 q 29 422 25 407 q 44 450 33 438 q 81 468 58 465 q 125 472 104 471 q 125 488 125 479 q 126 503 125 496 q 108 503 119 503 q 83 505 96 504 q 60 508 71 506 q 43 514 49 510 q 28 535 32 521 q 25 564 24 550 q 29 596 26 579 q 43 624 32 613 q 62 632 49 629 q 90 636 75 635 q 120 637 106 638 q 143 636 135 636 q 145 646 143 639 q 149 661 147 653 q 153 676 151 669 q 156 686 156 683 q 191 805 167 747 q 253 911 215 863 q 301 963 275 939 q 357 1006 326 988 q 435 1033 393 1025 q 517 1043 476 1042 q 567 1043 542 1044 q 618 1036 593 1042 q 656 1023 638 1032 q 688 1000 674 1014 q 723 953 710 981 q 740 897 736 925 q 745 835 746 867 q 733 775 744 804 q 719 744 728 760 q 699 718 711 729 q 661 697 682 703 q 622 691 642 692 q 581 690 601 690 q 542 688 561 690 q 506 678 522 686 q 456 628 474 660 q 485 629 464 628 q 531 632 507 631 q 575 633 554 633 q 604 632 596 633 q 619 626 611 629 q 631 615 626 622 q 640 571 642 599 q 626 528 639 543 q 593 507 614 511 q 551 501 572 501 q 508 503 529 501 q 465 509 486 506 q 422 513 443 513 l 422 478 q 481 478 451 478 q 539 482 510 479 q 566 485 553 483 q 593 485 579 488 q 626 471 615 482 q 644 422 644 453 q 632 368 644 390 q 607 350 624 354 q 574 348 597 347 q 526 351 551 349 q 477 355 500 353 q 444 357 454 357 q 460 326 451 342 q 482 299 469 310 q 529 274 503 281 q 586 267 557 267 q 643 263 615 267 q 700 238 678 258 q 722 201 717 221 q 729 160 729 182 q 726 117 729 138 q 716 73 724 94 q 693 36 708 51 m 472 1003 q 456 975 456 990 q 466 949 456 960 q 494 934 476 938 q 528 943 511 931 q 546 971 546 956 q 535 997 546 986 q 507 1012 525 1008 q 472 1003 489 1015 m 238 799 q 251 777 239 785 q 276 768 263 769 q 303 772 290 767 q 321 789 317 776 q 327 806 325 797 q 332 822 329 814 q 354 864 340 843 q 367 881 357 869 q 383 896 378 893 q 410 908 396 903 q 431 926 424 914 q 428 963 442 946 q 390 981 414 981 q 375 977 385 981 q 356 969 365 974 q 337 960 346 965 q 324 951 328 956 q 283 909 300 933 q 253 857 265 885 q 240 828 246 843 q 238 799 235 814 z "},"™":{"ha":418,"x_min":24,"x_max":399,"o":"m 272 579 q 235 565 256 568 q 194 563 214 561 q 163 567 179 564 q 133 579 146 569 q 121 600 124 588 q 117 625 118 613 q 116 675 115 639 q 118 753 117 711 q 122 831 119 794 q 125 881 124 867 q 85 877 106 879 q 47 885 64 875 q 33 901 38 890 q 26 924 28 911 q 25 949 24 936 q 29 972 26 961 q 37 987 32 979 q 49 999 42 994 q 85 1010 60 1007 q 140 1013 111 1013 q 196 1010 169 1013 q 238 1008 222 1008 q 259 1009 243 1008 q 293 1010 275 1010 q 327 1009 311 1010 q 350 1007 343 1008 q 390 969 382 1000 q 388 907 399 938 q 369 885 381 890 q 330 874 351 874 q 288 878 308 875 q 292 797 290 838 q 296 715 293 756 q 300 669 299 692 q 297 622 301 646 q 272 579 293 594 m 43 932 q 61 921 49 921 q 79 932 74 921 q 81 944 82 938 q 86 956 81 951 q 97 959 89 958 q 107 961 104 960 q 122 967 117 961 q 128 980 128 974 q 123 992 128 986 q 108 997 118 997 q 60 985 81 997 q 43 957 49 976 q 41 944 42 953 q 43 932 40 936 m 150 960 q 173 963 163 954 q 176 985 183 972 q 165 994 174 992 q 150 993 157 996 q 139 976 139 988 q 150 960 139 965 z "},"−":{"ha":667,"x_min":29,"x_max":638,"o":"m 364 242 q 258 237 311 238 q 151 243 204 236 q 106 253 128 246 q 67 276 83 261 q 44 315 53 290 q 33 366 36 339 q 31 419 29 393 q 40 465 33 446 q 60 501 47 485 q 92 525 74 517 q 164 544 126 540 q 238 550 201 547 q 263 551 244 550 q 303 553 282 553 q 344 555 325 554 q 369 556 363 556 q 444 556 407 557 q 519 551 482 556 q 559 544 539 549 q 594 526 579 539 q 613 503 606 517 q 625 476 621 490 q 636 398 635 438 q 626 321 638 358 q 616 297 624 308 q 597 278 608 285 q 576 267 588 271 q 554 261 565 263 q 550 262 553 261 q 547 261 547 263 q 542 258 544 258 q 538 257 540 258 q 451 247 494 250 q 364 242 408 244 m 300 485 q 311 445 294 461 q 351 435 328 429 q 372 446 364 438 q 382 465 379 454 q 381 488 385 476 q 367 508 376 500 q 327 516 349 524 q 300 485 306 508 m 118 503 q 90 482 97 497 q 86 451 83 467 q 102 426 89 436 q 136 421 115 417 q 151 425 139 422 q 165 429 163 428 q 178 430 168 429 q 198 431 188 431 q 218 431 208 431 q 231 433 228 432 q 253 447 244 436 q 263 469 261 457 q 258 493 264 482 q 240 511 253 504 q 224 515 235 514 q 201 515 214 515 q 178 513 189 514 q 161 513 167 513 q 140 508 157 511 q 118 503 124 504 z "},"|":{"ha":554,"x_min":61,"x_max":497,"o":"m 433 -124 q 374 -143 413 -137 q 294 -149 336 -149 q 213 -144 253 -149 q 150 -131 174 -139 q 119 -116 133 -125 q 93 -93 104 -107 q 74 -53 79 -75 q 65 -10 68 -32 q 62 51 63 8 q 61 147 61 93 q 62 263 61 201 q 63 378 63 324 q 65 474 64 432 q 65 535 65 517 q 65 581 65 549 q 64 656 64 614 q 64 744 64 697 q 64 833 64 792 q 64 908 64 875 q 64 954 64 940 q 67 1001 65 978 q 75 1049 68 1025 q 107 1092 82 1075 q 154 1106 129 1103 q 203 1113 179 1110 q 218 1113 207 1113 q 242 1113 229 1113 q 267 1114 256 1114 q 282 1114 278 1114 q 356 1113 318 1113 q 428 1099 393 1113 q 474 1057 458 1086 q 488 1006 485 1033 q 492 951 490 979 q 493 803 494 876 q 489 654 492 729 q 489 282 481 468 q 494 147 492 214 q 493 13 497 79 q 486 -36 490 -11 q 471 -83 482 -61 q 433 -124 458 -107 m 268 1021 q 288 993 272 1000 q 318 990 303 986 q 344 1006 333 993 q 350 1039 354 1018 q 331 1067 346 1060 q 300 1070 315 1074 q 274 1054 285 1067 q 268 1021 264 1042 m 94 844 q 115 824 103 829 q 140 822 128 819 q 163 834 153 824 q 174 861 172 844 q 173 908 176 885 q 176 954 169 932 q 182 967 178 960 q 192 978 186 975 q 205 983 199 981 q 217 992 211 986 q 227 1017 226 1003 q 221 1042 228 1031 q 201 1058 214 1053 q 175 1060 189 1064 q 152 1050 164 1056 q 131 1036 140 1044 q 117 1020 122 1029 q 106 1001 111 1011 q 90 950 92 978 q 90 894 89 922 q 90 869 90 882 q 94 844 89 856 z "},"`":{"ha":443,"x_min":21,"x_max":421,"o":"m 410 744 q 389 717 401 732 q 362 690 376 703 q 332 668 347 676 q 303 661 317 660 q 280 670 296 663 q 258 681 264 678 q 206 716 231 696 q 158 756 182 736 q 124 785 146 767 q 80 826 101 804 q 42 869 58 847 q 24 907 25 890 q 33 948 21 928 q 60 983 44 968 q 92 1010 74 999 q 131 1022 110 1022 q 156 1019 143 1022 q 179 1010 168 1015 q 228 976 196 1001 q 294 922 260 951 q 357 863 328 892 q 399 821 386 835 q 410 803 406 813 q 418 783 415 794 q 410 744 421 761 m 185 910 q 204 906 194 904 q 221 915 214 908 q 229 930 228 921 q 224 949 231 939 q 213 960 219 956 q 199 971 206 965 q 177 986 188 978 q 154 999 167 994 q 132 998 142 1003 q 118 985 122 993 q 116 966 114 976 q 129 949 118 956 l 149 939 q 155 933 150 938 q 166 924 160 929 q 177 915 172 919 q 185 910 182 911 m 247 854 q 272 851 258 847 q 290 868 286 856 q 283 899 297 886 q 251 904 268 911 q 233 881 233 899 q 247 854 232 863 z "}}}
